<svg width="95" height="95" viewBox="0 0 95 95" fill="none" xmlns="http://www.w3.org/2000/svg">
<g clip-path="url(#clip0_699_88)">
<path d="M67.2925 80.018H6.95801C3.88368 80.018 1.3916 77.5259 1.3916 74.4516V38.1998C1.3916 34.528 4.36833 31.5513 8.04012 31.5513H67.2919C70.9637 31.5513 73.9404 34.528 73.9404 38.1998V73.37C73.9404 77.0416 70.9641 80.018 67.2925 80.018Z" fill="#D9DDFF"/>
<path d="M47.2298 93.6084H28.1022L31.317 80.0181H44.015L47.2298 93.6084Z" fill="#6967BF"/>
<path d="M44.0151 80.0181H36.5932L39.808 93.6084H47.2299L44.0151 80.0181Z" fill="#5B59B2"/>
<path d="M1.3916 68.3228V74.4517C1.3916 77.5261 3.88368 80.0181 6.95801 80.0181H68.374C71.4483 80.0181 73.9404 77.5261 73.9404 74.4517V68.3228H1.3916Z" fill="#7776D0"/>
<path d="M86.1656 18.391V48.7398C86.1656 51.4753 83.9479 53.6928 81.2126 53.6928H69.284L61.1603 59.7397V53.6928H55.2909C52.5554 53.6928 50.338 51.4751 50.338 48.7398V18.391C50.338 15.6555 52.5556 13.438 55.2909 13.438H81.2126C83.9479 13.4378 86.1656 15.6555 86.1656 18.391Z" fill="#FFF5B5"/>
<path d="M81.2124 13.4375H73.7905C76.526 13.4375 78.7435 15.6552 78.7435 18.3905V48.7393C78.7435 51.4748 76.526 53.6923 73.7905 53.6923H81.2124C83.9479 53.6923 86.1654 51.4746 86.1654 48.7393V18.3907C86.1656 15.6552 83.9479 13.4375 81.2124 13.4375Z" fill="#FFEF8F"/>
<path d="M86.7311 77.007C87.2337 77.9921 87.5191 79.1065 87.5191 80.2882C87.5191 84.2819 84.2817 87.5194 80.288 87.5194C77.476 87.5194 75.0409 85.9133 73.8449 83.5694L68.416 86.3343C70.6191 90.652 75.1083 93.6086 80.288 93.6086C87.6445 93.6086 93.6084 87.645 93.6084 80.2882C93.6084 78.1114 93.0861 76.0567 92.1602 74.2422L86.7311 77.007Z" fill="#A6F5CF"/>
<path d="M73.0569 80.2882C73.0569 76.2945 76.2943 73.057 80.288 73.057V66.9678C72.9314 66.9678 66.9676 72.9314 66.9676 80.2882C66.9676 82.465 67.4899 84.5198 68.416 86.3342L73.8449 83.5694C73.3422 82.5845 73.0569 81.4699 73.0569 80.2882Z" fill="#FFD54D"/>
<path d="M86.7311 77.007L92.16 74.2421C89.9568 69.9245 85.4677 66.9678 80.288 66.9678V73.057C83.1 73.057 85.5351 74.6631 86.7311 77.007Z" fill="#FF8CCC"/>
<path d="M7.67145 15.8711H15.9094V24.4792H7.67145V15.8711Z" fill="#FFD54D"/>
<path d="M32.8605 10.6055H41.0984V24.4792H32.8605V10.6055Z" fill="#A6F5CF"/>
<path d="M20.266 1.3916H28.5039V24.479H20.266V1.3916Z" fill="#FF8CCC"/>
<path d="M30.7047 49.3825C31.4604 49.5183 32.185 49.0166 32.3213 48.2601L32.9745 44.6414L34.0657 48.3399C34.2764 49.0545 34.8834 49.4386 35.5975 49.4732C36.226 49.4699 36.9394 48.9487 37.1164 48.3256L38.1696 44.6314L38.8658 48.2741C39.0099 49.0289 39.7388 49.5243 40.4938 49.3797C41.2486 49.2356 41.7436 48.5066 41.5992 47.7517L39.9571 39.1594C39.641 37.6072 37.3029 37.5302 36.8709 39.0338L35.5692 43.6005L34.2178 39.0201C33.7686 37.473 31.4274 37.6509 31.1296 39.1925L29.5823 47.7658C29.4459 48.5221 29.9484 49.246 30.7047 49.3825Z" fill="black"/>
<path d="M13.5642 49.4736C15.0386 49.4736 16.4522 48.8681 17.4039 47.7331C17.8975 47.144 17.8201 46.2664 17.2308 45.7728C16.6419 45.2793 15.7642 45.3565 15.2705 45.9458C14.8642 46.4313 14.1843 46.6905 13.5642 46.6905C11.9043 46.6905 10.5537 45.3401 10.5537 43.6802C10.5537 42.0203 11.9041 40.6699 13.5642 40.6699C14.1676 40.6699 14.7493 40.8475 15.246 41.1831C15.8835 41.6138 16.748 41.4459 17.1783 40.8091C17.6084 40.1723 17.441 39.3073 16.8042 38.877C15.8453 38.2291 14.7248 37.8867 13.564 37.8867C10.3693 37.8867 7.77032 40.4857 7.77032 43.6802C7.77032 46.8748 10.3697 49.4736 13.5642 49.4736Z" fill="black"/>
<path d="M21.2646 49.4733C22.0333 49.4733 22.6562 48.8502 22.6562 48.0817V46.3609L24.9798 49.001C25.6173 49.5857 26.2719 49.6274 26.9438 49.1263C27.5207 48.6186 27.5767 47.7391 27.069 47.1623L25.1167 44.9441C26.4682 44.3783 27.416 43.0769 27.416 41.5658C27.416 39.5369 25.7073 37.8862 23.6069 37.8862H21.2676C21.267 37.8862 21.2666 37.8862 21.2661 37.8862C21.2655 37.8862 21.2651 37.8862 21.2646 37.8862C20.4959 37.8862 19.873 38.5093 19.873 39.2778V48.0817C19.873 48.8502 20.4961 49.4733 21.2646 49.4733ZM23.6069 40.6694C24.1534 40.6694 24.6328 41.0882 24.6328 41.5658C24.6328 42.0434 24.1534 42.4624 23.6069 42.4624C23.3802 42.4624 23.0293 42.4635 22.6677 42.4652C22.6653 41.8666 22.6638 41.268 22.6632 40.6694H23.6069Z" fill="black"/>
<path d="M61.5544 36.9884V30.6919C61.5544 29.9234 60.9316 29.3003 60.1628 29.3003C59.3941 29.3003 58.7712 29.9234 58.7712 30.6919V36.9884C58.7712 37.757 59.3941 38.38 60.1628 38.38C60.9316 38.38 61.5544 37.757 61.5544 36.9884Z" fill="black"/>
<path d="M77.7319 36.9884V30.6919C77.7319 29.9234 77.109 29.3003 76.3403 29.3003C75.5716 29.3003 74.9487 29.9234 74.9487 30.6919V36.9884C74.9487 37.757 75.5716 38.38 76.3403 38.38C77.109 38.38 77.7319 37.757 77.7319 36.9884Z" fill="black"/>
<path d="M71.4639 35.2962V32.3842C71.4639 30.613 70.0228 29.1719 68.2516 29.1719C66.4803 29.1719 65.0394 30.613 65.0394 32.3842V35.2962C65.0394 37.0676 66.4805 38.5086 68.2516 38.5086C70.023 38.5086 71.4639 37.0675 71.4639 35.2962ZM68.6807 35.2962C68.6807 35.533 68.4881 35.7254 68.2516 35.7254C68.015 35.7254 67.8226 35.5328 67.8226 35.2962V32.3842C67.8226 32.1477 68.015 31.9551 68.2516 31.9551C68.4881 31.9551 68.6807 32.1477 68.6807 32.3842V35.2962Z" fill="black"/>
<path d="M69.6432 26.2931V19.9966C69.6432 19.228 69.0203 18.605 68.2516 18.605C67.4828 18.605 66.86 19.228 66.86 19.9966V26.2931C66.86 27.0617 67.4828 27.6847 68.2516 27.6847C69.0203 27.6847 69.6432 27.0617 69.6432 26.2931Z" fill="black"/>
<path d="M63.3754 21.6889C63.3754 19.9175 61.9343 18.4766 60.163 18.4766C58.3918 18.4766 56.9508 19.9177 56.9508 21.6889V24.6009C56.9508 26.3721 58.392 27.8133 60.163 27.8133C61.9344 27.8133 63.3754 26.3721 63.3754 24.6009V21.6889ZM60.5922 24.6007C60.5922 24.8373 60.3996 25.0299 60.163 25.0299C59.9265 25.0299 59.734 24.8373 59.734 24.6007V21.6887C59.734 21.452 59.9265 21.2596 60.163 21.2596C60.3996 21.2596 60.5922 21.4522 60.5922 21.6887V24.6007Z" fill="black"/>
<path d="M79.5527 21.6889C79.5527 19.9175 78.1115 18.4766 76.3403 18.4766C74.5691 18.4766 73.1281 19.9177 73.1281 21.6889V24.6009C73.1281 26.3721 74.5693 27.8133 76.3403 27.8133C78.1117 27.8133 79.5527 26.3721 79.5527 24.6009V21.6889ZM76.7695 24.6007C76.7695 24.8373 76.5769 25.0299 76.3403 25.0299C76.1037 25.0299 75.9113 24.8373 75.9113 24.6007V21.6887C75.9113 21.452 76.1037 21.2596 76.3403 21.2596C76.5769 21.2596 76.7695 21.4522 76.7695 21.6887V24.6007Z" fill="black"/>
<path d="M66.86 41.3877V47.6842C66.86 48.4528 67.4828 49.0758 68.2516 49.0758C69.0203 49.0758 69.6432 48.4528 69.6432 47.6842V41.3877C69.6432 40.6192 69.0203 39.9961 68.2516 39.9961C67.4828 39.9961 66.86 40.6192 66.86 41.3877Z" fill="black"/>
<path d="M56.9507 43.0796V45.9915C56.9507 47.7628 58.3918 49.2039 60.1628 49.2039C61.9343 49.2039 63.3752 47.7628 63.3752 45.9915V43.0796C63.3752 41.3081 61.9341 39.8672 60.1628 39.8672C58.3916 39.8672 56.9507 41.3081 56.9507 43.0796ZM59.7339 43.0796C59.7339 42.8428 59.9263 42.6504 60.1628 42.6504C60.3994 42.6504 60.592 42.843 60.592 43.0796V45.9915C60.592 46.2281 60.3994 46.4207 60.1628 46.4207C59.9263 46.4207 59.7339 46.2281 59.7339 45.9915V43.0796Z" fill="black"/>
<path d="M73.1279 43.0796V45.9915C73.1279 47.7628 74.5691 49.2039 76.3401 49.2039C78.1115 49.2039 79.5525 47.7628 79.5525 45.9915V43.0796C79.5525 41.3081 78.1113 39.8672 76.3401 39.8672C74.5691 39.8672 73.1279 41.3081 73.1279 43.0796ZM75.9111 43.0796C75.9111 42.8428 76.1035 42.6504 76.3401 42.6504C76.5767 42.6504 76.7693 42.843 76.7693 43.0796V45.9915C76.7693 46.2281 76.5767 46.4207 76.3401 46.4207C76.1035 46.4207 75.9111 46.2281 75.9111 45.9915V43.0796Z" fill="black"/>
<path d="M93.3997 73.6094C93.3989 73.6079 93.3982 73.6066 93.3974 73.6052C90.8681 68.6525 85.8453 65.576 80.288 65.576C78.55 65.576 76.8812 65.879 75.332 66.4349V55.0837H81.2124C84.7107 55.0837 87.557 52.2376 87.557 48.7391V37.8495C87.557 36.0503 84.7738 36.0503 84.7738 37.8495V48.7391C84.7738 50.7029 83.1762 52.3005 81.2124 52.3005H69.2838C68.9845 52.3005 68.693 52.3971 68.4527 52.5758L62.5516 56.9685V53.6921C62.5516 52.9235 61.9287 52.3005 61.16 52.3005H55.2906C53.3267 52.3005 51.729 50.7029 51.729 48.7391V31.5656C51.729 31.5608 51.7292 31.556 51.7292 31.5513C51.7292 31.5467 51.729 31.5417 51.729 31.537V18.3905C51.729 16.4267 53.3267 14.8291 55.2906 14.8291H81.2122C83.176 14.8291 84.7736 16.4267 84.7736 18.3905V30.4334C84.7736 32.2327 87.5568 32.2327 87.5568 30.4334V18.3905C87.5568 14.892 84.7105 12.0459 81.2122 12.0459H55.2907C51.7923 12.0459 48.946 14.892 48.946 18.3905V30.1597H8.04012C3.60666 30.1595 0 33.7664 0 38.1997V74.4514C0 78.2882 3.12127 81.4094 6.95801 81.4094H10.2051C12.0043 81.4094 12.0043 78.6262 10.2051 78.6262H6.95801C4.65611 78.6262 2.7832 76.7535 2.7832 74.4514V69.714H70.0688C67.6751 72.0282 66.0623 75.1452 65.6693 78.6262H18.0428C16.2435 78.6262 16.2435 81.4094 18.0428 81.4094H29.5578L27.0013 92.2168H22.0801C21.3114 92.2168 20.6885 92.8399 20.6885 93.6084C20.6885 94.3769 21.3114 95 22.0801 95H53.252C54.0207 95 54.6436 94.3769 54.6436 93.6084C54.6436 92.8399 54.0207 92.2168 53.252 92.2168H48.3307L45.7742 81.4096H65.6174C65.7619 83.3543 66.2846 85.2191 67.1761 86.9668C69.705 91.9218 74.729 95 80.288 95C88.4003 95 95 88.4003 95 80.288C95 77.9375 94.4615 75.6905 93.3997 73.6094ZM75.0845 82.9367C75.084 82.9356 75.0832 82.9343 75.0827 82.9332C74.662 82.1077 74.4485 81.2176 74.4485 80.288C74.4485 77.068 77.068 74.4485 80.288 74.4485C82.4934 74.4485 84.4873 75.671 85.4917 77.6393C85.9136 78.4663 86.1277 79.3573 86.1277 80.288C86.1277 83.508 83.5082 86.1275 80.288 86.1275C78.0828 86.1275 76.0889 84.905 75.0845 82.9367ZM90.2162 73.6701L87.2401 75.1858C85.9036 73.3582 83.9123 72.1375 81.6796 71.7764V68.439C85.164 68.8424 88.2724 70.7472 90.2162 73.6701ZM2.7832 38.1997C2.7832 35.3009 5.1415 32.9427 8.04012 32.9427H48.946V48.7391C48.946 52.2376 51.7923 55.0837 55.2907 55.0837H59.7685V59.7391C59.7685 60.8594 61.0818 61.5322 61.9912 60.8553L69.745 55.0837H72.5488V66.9308H2.7832V38.1997ZM78.8964 68.4399V71.7775C74.8012 72.4447 71.6653 76.0069 71.6653 80.288C71.6653 81.1907 71.8014 82.0685 72.0718 82.9107L69.1075 84.4203L69.0951 84.4266C68.606 83.1098 68.359 81.723 68.359 80.288C68.3592 74.1809 72.9717 69.1312 78.8964 68.4399ZM45.4705 92.2168H29.8614L32.4176 81.4096H42.914L45.4705 92.2168ZM80.288 92.2168C76.2494 92.2168 72.559 90.2131 70.3597 86.9059L73.3361 85.3902C74.945 87.5902 77.502 88.9109 80.288 88.9109C85.0426 88.9109 88.9109 85.0428 88.9109 80.2882C88.9109 79.3857 88.7747 78.508 88.5044 77.6657L90.8514 76.4704L91.4809 76.1497C91.97 77.4666 92.217 78.8533 92.217 80.2882C92.2168 86.8656 86.8654 92.2168 80.288 92.2168Z" fill="black"/>
<path d="M7.67145 25.8708C8.44017 25.8708 9.06305 25.2477 9.06305 24.4792V17.2627H14.5178V24.4792C14.5178 26.2784 17.301 26.2784 17.301 24.4792V15.8711C17.301 15.1026 16.6781 14.4795 15.9094 14.4795H7.67145C6.90273 14.4795 6.27985 15.1026 6.27985 15.8711V24.4792C6.27985 25.2477 6.90273 25.8708 7.67145 25.8708Z" fill="black"/>
<path d="M32.8605 25.8706C33.6293 25.8706 34.2521 25.2475 34.2521 24.479V11.9971H39.7068V24.479C39.7068 26.2782 42.49 26.2782 42.49 24.479V10.6055C42.49 9.83693 41.8672 9.21387 41.0984 9.21387H32.8605C32.0918 9.21387 31.4689 9.83693 31.4689 10.6055V24.479C31.4689 25.2475 32.0918 25.8706 32.8605 25.8706Z" fill="black"/>
<path d="M20.266 25.8706C21.0347 25.8706 21.6576 25.2475 21.6576 24.479V2.7832H27.1123V24.479C27.1123 26.2783 29.8955 26.2783 29.8955 24.479V1.3916C29.8955 0.623066 29.2726 0 28.5039 0H20.266C19.4973 0 18.8744 0.623066 18.8744 1.3916V24.479C18.8744 25.2475 19.4973 25.8706 20.266 25.8706Z" fill="black"/>
<path d="M41.771 52.9087H9.2059C8.43718 52.9087 7.8143 53.5318 7.8143 54.3003C7.8143 55.0688 8.43718 55.6919 9.2059 55.6919H41.771C42.5398 55.6919 43.1626 55.0688 43.1626 54.3003C43.1626 53.5318 42.5398 52.9087 41.771 52.9087Z" fill="black"/>
<path d="M26.8796 58.9404H9.2059C8.43718 58.9404 7.8143 59.5635 7.8143 60.332C7.8143 61.1006 8.43718 61.7236 9.2059 61.7236H26.8796C27.6483 61.7236 28.2712 61.1006 28.2712 60.332C28.2712 59.5635 27.6483 58.9404 26.8796 58.9404Z" fill="black"/>
</g>
<defs>
<clipPath id="clip0_699_88">
<rect width="95" height="95" fill="white"/>
</clipPath>
</defs>
</svg>
