<svg width="368" height="260" viewBox="0 0 368 260" fill="none" xmlns="http://www.w3.org/2000/svg">
<path d="M91.8087 53.5294C91.8087 48.9411 88.7485 45.8823 84.158 45.8823H7.65073C3.06029 45.8823 0 48.9411 0 53.5294C0 58.1176 3.06029 61.1764 7.65073 61.1764H84.158C88.7485 61.1764 91.8087 58.1176 91.8087 53.5294Z" fill="#BABABA" fill-opacity="0.3"/>
<path d="M114.761 91.7647C114.761 87.1765 111.701 84.1177 107.11 84.1177H38.2536C33.6632 84.1177 30.6029 87.1765 30.6029 91.7647C30.6029 96.353 33.6632 99.4118 38.2536 99.4118H107.11C111.701 99.4118 114.761 96.353 114.761 91.7647Z" fill="#BABABA" fill-opacity="0.3"/>
<path d="M137.713 130C137.713 125.412 134.653 122.353 130.062 122.353H68.8565C64.2661 122.353 61.2058 125.412 61.2058 130C61.2058 134.588 64.2661 137.647 68.8565 137.647H130.062C134.653 137.647 137.713 134.588 137.713 130Z" fill="#BABABA" fill-opacity="0.3"/>
<path d="M122.412 183.529H321.331C324.391 183.529 327.451 181.235 328.981 178.176L367.235 48.1765C368.765 44.3529 366.47 39.7647 361.879 39C361.114 39 360.349 39 359.584 39H146.129L137.713 5.35294C136.948 2.29412 133.888 0 130.062 0H68.8565C64.2661 0 61.2058 3.05882 61.2058 7.64706C61.2058 12.2353 64.2661 15.2941 68.8565 15.2941H123.942L166.021 168.235H122.412C109.405 168.235 99.4594 178.176 99.4594 191.176C99.4594 204.176 109.405 214.118 122.412 214.118H157.605C155.31 218.706 153.015 224.059 153.015 229.412C153.015 246.235 166.786 260 183.617 260C200.449 260 214.22 246.235 214.22 229.412C214.22 224.059 212.69 218.706 209.63 214.118H263.95C261.655 218.706 259.36 224.059 259.36 229.412C259.36 246.235 273.131 260 289.963 260C306.794 260 320.565 246.235 320.565 229.412C320.565 224.059 319.035 218.706 315.975 214.118H351.933C356.524 214.118 359.584 211.059 359.584 206.471C359.584 201.882 356.524 198.824 351.933 198.824H122.412C117.821 198.824 114.761 195.765 114.761 191.176C114.761 186.588 117.821 183.529 122.412 183.529Z" fill="#BABABA" fill-opacity="0.3"/>
</svg>
