<svg width="199" height="41" viewBox="0 0 199 41" fill="none" xmlns="http://www.w3.org/2000/svg">
<path d="M12.365 19.654C12.365 12.235 13.406 10.543 16.921 10.543C22.127 10.543 24.6 10.543 28.375 10.673L29.286 1.56197C25.8307 0.49149 22.2301 -0.0354657 18.613 -3.42084e-05C17.571 8.45997 10.8 14.968 2.473 14.968C1.73295 14.9896 0.992429 14.9461 0.26 14.838C0.13 16.53 0 18.352 0 20.435C0 22.518 0.13 24.47 0.26 26.292C3.4365 22.7845 7.69981 20.4466 12.365 19.654Z" fill="#ED6D1D"/>
<path d="M18.612 0H16.92C6.24701 0 1.30101 4.035 0.26001 14.838C0.99203 14.95 1.73291 14.9936 2.47301 14.968C10.803 15.098 17.573 8.46 18.613 0H18.612Z" fill="#E8481D"/>
<path d="M0.651001 28.5049C2.213 37.4859 7.159 41.0049 17.051 41.0049C22.908 41.0049 26.422 40.4839 30.197 39.0529L29.416 31.1129C25.5813 33.1963 21.28 34.2713 16.916 34.2369C10.9891 34.2976 5.23029 32.2681 0.651001 28.5049Z" fill="#2B8836"/>
<path d="M17.051 30.4541C13.407 30.4541 12.495 28.5021 12.495 20.4321V19.6541C7.80096 20.3618 3.51112 22.7144 0.390991 26.2921C0.520991 27.0731 0.520991 27.7241 0.650991 28.5051C5.23229 32.2676 10.993 34.2954 16.921 34.2321C21.2811 34.2339 25.5744 33.1609 29.421 31.1081L29.291 30.0671C25.2212 30.4205 21.135 30.5497 17.051 30.4541Z" fill="#7ABA48"/>
<path d="M37.616 9.89195C37.616 6.89795 38.397 4.42495 40.089 2.73295C40.9977 1.8027 42.0949 1.07756 43.3068 0.606184C44.5188 0.134811 45.8176 -0.0718913 47.116 -5.42533e-05C48.3892 -0.0803174 49.6636 0.136555 50.8385 0.633431C52.0134 1.13031 53.0568 1.89358 53.886 2.86295C55.448 4.68495 56.099 7.02795 56.099 10.0219V29.9369C56.2205 32.6697 55.4432 35.367 53.886 37.6159C52.324 39.6989 49.986 40.6099 46.857 40.6099C40.74 40.6099 37.616 36.9659 37.616 29.8099V9.89195ZM49.981 31.2379V9.49995C49.981 6.76695 48.94 5.46495 46.857 5.46495C44.774 5.46495 43.733 6.76495 43.733 9.49995V31.2379C43.733 33.9709 44.774 35.2729 46.857 35.2729C48.94 35.2729 49.981 33.8409 49.981 31.2379ZM61.565 40.7379V-5.42533e-05H66.902L74.581 24.3399C74.841 25.2513 75.2314 26.6846 75.752 28.6399C75.4438 26.8296 75.2265 25.005 75.101 23.1729V-5.42533e-05H80.701V40.7399H75.101L67.816 18.2219V18.0919L67.686 17.7019C67.165 16.1399 66.775 14.7079 66.515 13.6669C66.905 16.6609 67.166 18.4829 67.166 19.2669V40.6099L61.566 40.7399L61.565 40.7379ZM86.816 40.7379V-5.42533e-05H102.435V5.85695H92.803V16.5299H99.703V22.3869H92.803V34.6219H102.435V40.7399L86.816 40.7379ZM106.34 29.9379V9.89195C106.34 6.89795 107.121 4.42495 108.813 2.73295C109.722 1.80257 110.819 1.07735 112.031 0.605973C113.243 0.134596 114.542 -0.0720362 115.841 -5.42533e-05C117.114 -0.0800014 118.388 0.137025 119.562 0.63389C120.737 1.13076 121.78 1.89386 122.609 2.86295C124.171 4.68495 124.822 7.02795 124.822 10.0219V13.7999H118.705V9.49995C118.705 6.76695 117.664 5.46495 115.581 5.46495C113.498 5.46495 112.457 6.76495 112.457 9.49995V31.3679C112.457 34.1009 113.498 35.4029 115.581 35.4029C117.664 35.4029 118.705 34.1029 118.705 31.3679V26.0319H124.822V30.0669C124.964 32.802 124.184 35.5057 122.609 37.7459C121.047 39.8289 118.709 40.7399 115.58 40.7399C109.463 40.7399 106.339 37.2259 106.339 29.9399L106.34 29.9379ZM126.64 5.98895V0.129946H145.123V5.98695H138.875V40.8699H132.888V5.98695H126.64V5.98895ZM147.86 40.7399V-5.42533e-05H153.977V40.7399H147.86ZM158.533 40.7399V34.4919L169.333 6.24795H159.441V-5.42533e-05H175.841V5.85695L164.916 34.4919H175.849V40.7399H158.533ZM178.057 40.7399L184.435 -5.42533e-05H192.245L198.623 40.7399H192.375L191.204 31.8889H185.086L183.786 40.7399H178.059H178.057ZM185.997 26.1619H190.553L188.47 9.11095H188.08L185.997 26.1619Z" fill="#1D354D"/>
</svg>
