<svg width="81" height="81" viewBox="0 0 81 81" fill="none" xmlns="http://www.w3.org/2000/svg">
<path d="M45.935 81H35.086C32.9036 81 31.1199 79.2163 31.1199 77.0339V71.2212C29.1474 70.6127 27.2588 69.8363 25.4332 68.871L21.2992 72.9839C20.5438 73.7394 19.5575 74.1381 18.4873 74.1381C17.4171 74.1381 16.4308 73.7184 15.6754 72.9839L7.99508 65.3036C7.23964 64.5482 6.84093 63.5619 6.84093 62.4917C6.84093 61.4425 7.26062 60.4352 7.99508 59.7008L12.108 55.5878C11.1427 53.7622 10.3453 51.8736 9.75777 49.901H3.96606C1.78368 49.901 0 48.1174 0 45.935V35.086C0 32.9036 1.78368 31.1199 3.96606 31.1199H9.79974C10.4083 29.1474 11.1847 27.2378 12.15 25.4332L8.01606 21.2992C7.26062 20.5648 6.86192 19.5575 6.86192 18.5083C6.86192 17.4381 7.28161 16.4518 8.01606 15.6964L9.02332 14.6891C9.63187 14.0806 10.6391 14.0806 11.2477 14.6891C11.8562 15.2977 11.8562 16.3049 11.2477 16.9135L10.2404 17.9207C10.0935 18.0676 10.0096 18.2775 10.0096 18.5083C10.0096 18.6342 10.0306 18.886 10.2404 19.0749L15.2137 24.0482C15.7174 24.5518 15.8223 25.3282 15.4655 25.9578C14.1645 28.2031 13.1573 30.5953 12.5067 33.0925C12.3179 33.785 11.7093 34.2676 10.9749 34.2676H3.96606C3.52539 34.2676 3.14767 34.6244 3.14767 35.086V45.935C3.14767 46.3756 3.5044 46.7534 3.96606 46.7534H10.9749C11.6883 46.7534 12.3179 47.236 12.5067 47.9285C13.1782 50.4256 14.1645 52.8389 15.4655 55.0632C15.8223 55.6718 15.7174 56.4692 15.2137 56.9728L10.2614 61.9251C10.0516 62.135 10.0306 62.3658 10.0306 62.4917C10.0306 62.6176 10.0516 62.8694 10.2614 63.0583L17.9417 70.7386C18.2565 71.0534 18.7811 71.0534 19.0959 70.7386L24.0272 65.7863C24.5308 65.2826 25.3073 65.1777 25.9368 65.5345C28.1821 66.8355 30.5744 67.8427 33.0715 68.4933C33.764 68.6821 34.2466 69.2907 34.2466 70.0251V77.0339C34.2466 77.4746 34.6034 77.8523 35.065 77.8523H45.914C46.3547 77.8523 46.7324 77.4956 46.7324 77.0339V70.0251C46.7324 69.3117 47.215 68.6821 47.9075 68.4933C50.4047 67.8427 52.8179 66.8355 55.0422 65.5345C55.6508 65.1777 56.4482 65.2826 56.9518 65.7863L61.9041 70.7386C62.2189 71.0534 62.7435 71.0534 63.0583 70.7386L70.7386 63.0583C70.9484 62.8484 70.9694 62.6176 70.9694 62.4917C70.9694 62.3658 70.9484 62.114 70.7386 61.9251L65.7863 56.9728C65.2826 56.4692 65.1777 55.6927 65.5345 55.0632C66.8355 52.8179 67.8427 50.4256 68.4933 47.9285C68.6821 47.236 69.2907 46.7534 70.0251 46.7534H77.0339C77.4746 46.7534 77.8523 46.3966 77.8523 45.935V35.086C77.8523 34.6453 77.4956 34.2676 77.0339 34.2676H70.0251C69.3117 34.2676 68.6821 33.785 68.4933 33.0925C67.8847 30.8052 67.0034 28.6018 65.8492 26.5244C65.7443 26.3145 65.6394 26.1256 65.5135 25.9368C65.1567 25.3282 65.2617 24.5308 65.7653 24.0272L70.7176 19.0749C70.9275 18.865 70.9484 18.6342 70.9484 18.5083C70.9484 18.2984 70.8645 18.0886 70.7176 17.9207L63.0373 10.2404C62.7225 9.92565 62.1979 9.92565 61.8832 10.2404L56.9728 15.2137C56.4692 15.7174 55.6927 15.8223 55.0632 15.4655C53.2376 14.3953 51.307 13.535 49.2925 12.9054C48.8518 12.7585 48.3692 12.6326 47.9075 12.5067C47.215 12.3179 46.7324 11.7093 46.7324 10.9959V3.96606C46.7324 3.52539 46.3756 3.14767 45.914 3.14767H35.065C34.6244 3.14767 34.2466 3.5044 34.2466 3.96606V10.9749C34.2466 11.6883 33.764 12.3179 33.0715 12.5067C30.5744 13.1782 28.1611 14.1645 25.9368 15.4655C25.3282 15.8223 24.5308 15.7174 24.0272 15.2137L19.0749 10.2404C18.7601 9.92565 18.2355 9.92565 17.9207 10.2404L15.1508 13.0313C14.5422 13.6399 13.535 13.6399 12.9264 13.0313C12.3179 12.4228 12.3179 11.4155 12.9264 10.807L15.7174 8.01606C17.2702 6.46321 19.7674 6.46321 21.3202 8.01606L25.4332 12.129C27.2588 11.1637 29.1474 10.3663 31.1199 9.77876V3.96606C31.1199 1.78368 32.9036 0 35.086 0H45.935C48.1174 0 49.901 1.78368 49.901 3.96606V9.77876C50.0269 9.82073 50.1319 9.84171 50.2578 9.88368C52.0834 10.4712 53.8881 11.2267 55.5878 12.129L59.7008 8.01606C61.2536 6.46321 63.7508 6.46321 65.3036 8.01606L72.9839 15.6964C73.7394 16.4518 74.1381 17.4381 74.1381 18.5083C74.1381 19.5575 73.7184 20.5648 72.9839 21.3202L68.871 25.4332C69.8363 27.2378 70.6337 29.1474 71.2212 31.1199H77.0339C79.2163 31.1199 81 32.9036 81 35.086V45.935C81 48.1174 79.2163 49.901 77.0339 49.901H71.2212C70.6127 51.8736 69.8363 53.7622 68.871 55.5878L72.9839 59.7008C73.7394 60.4562 74.1381 61.4425 74.1381 62.4917C74.1381 63.5409 73.7184 64.5482 72.9839 65.3036L65.3036 72.9839C64.5482 73.7394 63.5619 74.1381 62.4917 74.1381C61.4425 74.1381 60.4352 73.7184 59.6798 72.9839L55.5668 68.871C53.7412 69.8363 51.8526 70.6337 49.8801 71.2212V77.0339C49.8801 79.2163 48.1174 81 45.935 81ZM43.3749 64.1705C42.2417 64.1705 41.2554 63.7718 40.5 63.2891C39.4508 63.9816 37.9819 64.4642 36.2402 63.9816C34.3935 63.478 33.2813 62.3658 32.6728 61.5474C30.9311 61.5684 27.4267 61.2326 24.8456 58.7355C22.7681 56.7 21.7819 53.7622 21.9497 49.985C20.5018 49.0407 17.7948 46.8793 16.6826 43.2909C15.6754 40.0593 16.2 36.513 18.2145 32.7358C18.0676 31.2249 17.9837 27.049 20.6907 23.6915C22.7681 21.1104 25.9158 19.6415 30.1127 19.3057C31.2039 18.1725 33.9109 15.9062 37.5622 17.1863C38.7373 17.585 39.7446 18.3194 40.5 19.2427C41.2554 18.3194 42.2627 17.606 43.4378 17.1863C47.1101 15.9062 49.8171 18.1516 50.8873 19.3057C55.0632 19.6415 58.2319 21.1104 60.2883 23.6705C62.9743 27.028 62.8904 31.1829 62.7645 32.7148C64.779 36.492 65.3036 40.0383 64.2964 43.2699C63.1842 46.8583 60.4772 49.0197 59.0293 49.964C59.1971 53.7412 58.2319 56.7 56.1334 58.7145C53.5523 61.2117 50.0479 61.5474 48.3062 61.5264C47.6977 62.3448 46.5855 63.457 44.7389 63.9606C44.2772 64.1075 43.8155 64.1705 43.3749 64.1705ZM42.0738 60.5402C42.4516 60.8339 43.1021 61.1697 43.9205 60.9389C45.3264 60.5402 45.914 59.5119 46.0189 59.3231L47.3409 55.6088C47.6347 54.7904 48.537 54.3707 49.3554 54.6435C50.1738 54.9373 50.5935 55.8396 50.3207 56.658L49.7332 58.2948C51.0552 58.1269 52.7339 57.6653 53.972 56.4482C55.1681 55.2731 55.8187 53.5313 55.9026 51.286C54.056 51.7057 51.8736 51.6637 50.0899 50.9503C48.4951 52.0624 46.5855 52.5031 45.2845 52.3143C44.4241 52.1883 43.8365 51.3909 43.9624 50.5306C44.0883 49.6702 44.8857 49.0826 45.7461 49.2085C46.2078 49.2715 47.6977 48.9987 48.7469 47.9915C48.7679 47.9705 48.7889 47.9495 48.7889 47.9495C48.8308 47.9075 48.8518 47.8655 48.8938 47.8446C49.7961 46.8583 50.0269 45.4523 49.5863 43.6896C49.3764 42.8503 49.901 41.9899 50.7404 41.7801C51.5798 41.5702 52.4402 42.0948 52.65 42.9342C53.2166 45.2845 52.9018 47.0471 52.3143 48.3272C53.8251 48.579 55.5668 48.3062 56.658 47.7187C56.679 47.7187 56.7 47.6977 56.721 47.6977C56.9098 47.5927 60.2464 45.8301 61.3166 42.3256C62.072 39.8495 61.5684 36.9956 59.8057 33.8479C59.6588 33.6381 58.3997 31.7705 56.2383 30.9731C55.4199 30.6793 55.0003 29.7769 55.294 28.9585C55.5878 28.1402 56.4902 27.7205 57.3086 28.0142C58.106 28.308 58.8194 28.6858 59.428 29.1054C59.1762 27.9723 58.7145 26.7132 57.8332 25.643C56.2383 23.6915 53.6363 22.6003 50.0689 22.4114C49.6073 22.3904 49.1666 22.1596 48.8728 21.7819C48.8098 21.6979 46.9632 19.3057 44.4661 20.187C43.0391 20.6907 42.0738 22.0756 42.0738 23.6495V60.5402ZM34.9811 59.3231C35.086 59.5119 35.6526 60.5611 37.0795 60.9389C37.8979 61.1697 38.5484 60.8339 38.9262 60.5402V23.6495C38.9262 22.0756 37.9609 20.6697 36.5339 20.187C34.0368 19.3267 32.2111 21.6979 32.1272 21.8029C31.8544 22.1806 31.4137 22.4114 30.9521 22.4324C27.3847 22.6212 24.7617 23.6915 23.1878 25.664C22.3065 26.7552 21.8448 27.9933 21.593 29.1264C22.2016 28.7067 22.915 28.329 23.7124 28.0352C24.5308 27.7415 25.4332 28.1611 25.7269 28.9795C26.0207 29.7979 25.601 30.7003 24.7826 30.994C22.6212 31.7915 21.3412 33.6591 21.2153 33.8689C19.4526 37.0166 18.928 39.8495 19.7044 42.3466C20.7746 45.851 24.0902 47.6137 24.3 47.7187C24.321 47.7187 24.342 47.7396 24.363 47.7396C25.4541 48.3272 27.2168 48.6 28.7067 48.3482C28.0982 47.0681 27.8044 45.3054 28.371 42.9552C28.5808 42.1158 29.4202 41.5912 30.2806 41.801C31.1199 42.0109 31.6446 42.8503 31.4347 43.7106C30.994 45.4943 31.2459 46.8793 32.1272 47.8655C32.1692 47.9075 32.1902 47.9495 32.2321 47.9705C32.2531 47.9915 32.2741 48.0124 32.2951 48.0334C33.3233 49.0407 34.8342 49.3135 35.2959 49.2505C36.1562 49.1246 36.9536 49.7122 37.0795 50.5725C37.2054 51.4329 36.6179 52.2303 35.7575 52.3562C34.4775 52.5451 32.5469 52.1044 30.9521 50.9922C29.1474 51.7057 26.986 51.7477 25.1394 51.328C25.2233 53.5733 25.8738 55.315 27.0699 56.4902C28.329 57.7073 30.0078 58.1899 31.3088 58.3368L30.7212 56.7C30.4275 55.8816 30.8681 54.9793 31.6865 54.6855C32.5049 54.3917 33.4073 54.8324 33.701 55.6508L34.9811 59.3231ZM25.2023 42.3676C24.363 42.3676 23.6705 41.7171 23.6285 40.8567C23.5236 38.4435 24.9295 35.7155 27.0699 34.1837C29.2313 32.6518 31.9174 32.421 34.6453 33.5332C35.4427 33.8689 35.8414 34.7712 35.5057 35.5896C35.1699 36.387 34.2676 36.7858 33.4492 36.45C31.7075 35.7365 30.1547 35.8415 28.8746 36.7438C27.4267 37.772 26.6922 39.5347 26.7552 40.6889C26.7971 41.5492 26.1256 42.2837 25.2653 42.3256C25.2443 42.3676 25.2233 42.3676 25.2023 42.3676ZM55.8187 42.3676C55.7977 42.3676 55.7767 42.3676 55.7347 42.3676C54.8744 42.3256 54.2029 41.5912 54.2448 40.7308C54.2868 39.8285 53.8461 38.6534 53.1326 37.751C52.587 37.0795 52.713 36.0723 53.3845 35.5477C54.056 35.0021 55.0632 35.128 55.5878 35.7995C56.7839 37.3104 57.4554 39.2199 57.3715 40.8987C57.3505 41.6961 56.637 42.3676 55.8187 42.3676ZM46.9422 36.5759C46.3127 36.5759 45.7251 36.1982 45.4733 35.5896C45.1376 34.7922 45.5363 33.8689 46.3337 33.5332C47.4459 33.0925 48.537 32.8407 49.6073 32.8407C50.4676 32.8197 51.1811 33.5332 51.2021 34.3935C51.2021 35.2539 50.5096 35.9674 49.6492 35.9883C48.9777 35.9883 48.2642 36.1562 47.5298 36.45C47.3409 36.5339 47.1311 36.5759 46.9422 36.5759Z" fill="black"/>
</svg>
