<svg width="85" height="85" viewBox="0 0 85 85" fill="none" xmlns="http://www.w3.org/2000/svg">
<path d="M79.3857 54.7002C80.076 54.7002 80.6357 54.1406 80.6357 53.4502V21.7602C80.6357 19.0032 78.3927 16.7602 75.6357 16.7602H72.8531V7.49994C72.8531 4.74298 70.6101 2.49994 67.8531 2.49994H17.1469C14.39 2.49994 12.1469 4.74298 12.1469 7.49994V58.955C12.1469 59.6453 12.7066 60.205 13.3969 60.205H78.1357V67.6281C78.1357 68.8818 77.1097 69.9017 75.8481 69.9017H9.15192C7.89032 69.9017 6.86432 68.8818 6.86432 67.6281C6.86432 51.4386 6.86432 49.8703 6.86432 21.7602C6.86432 20.3814 7.98553 19.2602 9.36432 19.2602C10.0546 19.2602 10.6143 18.7005 10.6143 18.0102C10.6143 17.3199 10.0546 16.7602 9.36432 16.7602C6.60736 16.7602 4.36432 19.0032 4.36432 21.7602V67.6281C4.36432 70.2606 6.51214 72.4017 9.15192 72.4017H29.7195V79.9981H24.3356C23.6453 79.9981 23.0856 80.5578 23.0856 81.2481C23.0856 81.9384 23.6453 82.4981 24.3356 82.4981C59.9361 82.5024 53.8117 82.4982 61.2076 82.4981C61.8979 82.4981 62.4576 81.9384 62.4576 81.2481C62.4576 80.5578 61.8979 79.9981 61.2076 79.9981H55.8316V72.4017H75.8481C78.4879 72.4017 80.6357 70.2606 80.6357 67.6281V58.955C80.6357 58.2647 80.076 57.705 79.3857 57.705C66.314 57.705 29.7439 57.705 14.6469 57.705V7.49993C14.6469 6.12114 15.7681 4.99993 17.1469 4.99993H54.5315V13.7536H17.8189C17.1286 13.7536 16.5689 14.3133 16.5689 15.0036C16.5689 15.6939 17.1286 16.2536 17.8189 16.2536H70.3531V52.705C70.3531 53.3953 70.9128 53.955 71.6031 53.955C72.2934 53.955 72.8531 53.3953 72.8531 52.705V19.2602H75.6357C77.0145 19.2602 78.1357 20.3814 78.1357 21.7602V53.4502C78.1357 54.1406 78.6954 54.7002 79.3857 54.7002V54.7002ZM32.2195 79.9981V72.4078H53.3316V79.9981H32.2195ZM57.0316 13.7536V4.99993H67.8531C69.2319 4.99993 70.3531 6.12114 70.3531 7.49993V13.7536H57.0316Z" fill="black"/>
<path d="M50.1913 43.3331C50.6796 43.8213 51.4706 43.8214 51.9589 43.3331L58.0588 37.2338C58.2932 36.9994 58.425 36.6815 58.425 36.35C58.425 36.0186 58.2932 35.7006 58.0588 35.4662L51.9589 29.3664C51.4706 28.8781 50.6796 28.8781 50.1913 29.3664C49.7031 29.8547 49.7031 30.6457 50.1913 31.134L55.4074 36.35L50.1913 41.5655C49.7031 42.0538 49.7031 42.8448 50.1913 43.3331Z" fill="black"/>
<path d="M34.8086 29.3664C34.3204 28.8781 33.5293 28.8781 33.0411 29.3664L26.9412 35.4662C26.454 35.9535 26.4523 36.7449 26.9412 37.2338L33.0411 43.3331C33.2852 43.5772 33.605 43.6993 33.9249 43.6993C34.2447 43.6993 34.5645 43.5772 34.8086 43.3331C35.2969 42.8448 35.2969 42.0538 34.8086 41.5655L29.5926 36.35L34.8086 31.134C35.2969 30.6457 35.2969 29.8547 34.8086 29.3664Z" fill="black"/>
<path d="M44.393 25.266L37.0932 46.6253C36.8698 47.2784 37.2183 47.9888 37.872 48.2122C38.5262 48.4363 39.2358 48.0859 39.4589 47.4334L46.7587 26.0742C46.9821 25.4211 46.6336 24.7106 45.9799 24.4872C45.3287 24.2651 44.6158 24.6124 44.393 25.266Z" fill="black"/>
<path d="M18.9059 10.6268H20.8395C21.5299 10.6268 22.0895 10.0671 22.0895 9.37677C22.0895 8.68646 21.5299 8.12677 20.8395 8.12677H18.9059C18.2156 8.12677 17.6559 8.68646 17.6559 9.37677C17.6559 10.0671 18.2156 10.6268 18.9059 10.6268Z" fill="black"/>
<path d="M27.7304 10.6268C28.4207 10.6268 28.9804 10.0671 28.9804 9.37677C28.9804 8.68646 28.4207 8.12677 27.7304 8.12677H25.7968C25.1065 8.12677 24.5468 8.68646 24.5468 9.37677C24.5468 10.0671 25.1065 10.6268 25.7968 10.6268H27.7304Z" fill="black"/>
<path d="M34.6219 10.6268C35.3122 10.6268 35.8719 10.0671 35.8719 9.37677C35.8719 8.68646 35.3122 8.12677 34.6219 8.12677H32.6883C31.998 8.12677 31.4383 8.68646 31.4383 9.37677C31.4383 10.0671 31.998 10.6268 32.6883 10.6268H34.6219Z" fill="black"/>
</svg>
