<svg width="65" height="65" viewBox="0 0 65 65" fill="none" xmlns="http://www.w3.org/2000/svg">
<g clip-path="url(#clip0_1078_375)">
<path d="M0 18.0555V48.0316C0 48.4283 0.321699 48.75 0.718428 48.75H64.2816C64.6783 48.75 65 48.4283 65 48.0316V18.0555L32.5 16.25L0 18.0555Z" fill="#F2FBFF"/>
<path d="M59.7684 17.7649V38.1696C59.7684 42.5684 56.2025 46.1342 51.8037 46.1342H0V48.0317C0 48.4283 0.321699 48.75 0.718428 48.75H64.2816C64.6783 48.75 65 48.4283 65 48.0315V18.0555L59.7684 17.7649Z" fill="#DFF6FD"/>
<path d="M65 7.22224L32.5 12.4538L0 7.22224V0.718428C0 0.321699 0.321699 0 0.718428 0H64.2816C64.6783 0 65 0.321699 65 0.718428V7.22224Z" fill="#0681AF"/>
<path d="M64.2816 0H59.7684V8.06432L65 7.22224V0.718428C65 0.321572 64.6783 0 64.2816 0Z" fill="#017297"/>
<path d="M65 7.22227H21.1989C20.4601 7.22227 19.8612 6.62343 19.8612 5.88456V4.9267C19.8612 4.20015 19.2722 3.61108 18.5456 3.61108H4.92667C4.20012 3.61108 3.61105 4.20015 3.61105 4.9267V5.88456C3.61105 6.62343 3.01209 7.22227 2.27335 7.22227H0V18.0556H65V7.22227Z" fill="#01C0FA"/>
<path d="M59.7684 7.22217H65V18.0555H59.7684V7.22217Z" fill="#08A9F1"/>
<path d="M18.0555 10.8333H61.3888V14.4443H18.0555V10.8333Z" fill="#F2FBFF"/>
<path d="M59.7684 10.8333H61.3888V14.4444H59.7684V10.8333Z" fill="#DFF6FD"/>
<path d="M12.6389 14.4446C13.6361 14.4446 14.4445 13.6361 14.4445 12.639C14.4445 11.6418 13.636 10.8335 12.6389 10.8335C11.6417 10.8335 10.8334 11.6419 10.8334 12.639C10.8333 13.6361 11.6417 14.4446 12.6389 14.4446Z" fill="#C8EFFE"/>
<path d="M3.61105 21.6667H19.8611V45.139H3.61105V21.6667Z" fill="#01C0FA"/>
<path d="M23.4722 30.6946H39.7222V45.1391H23.4722V30.6946Z" fill="#FE0364"/>
<path d="M23.4722 21.6667H39.7222V27.0835H23.4722V21.6667Z" fill="#FED402"/>
<path d="M43.3333 21.6667H61.3888V32.5H43.3333V21.6667Z" fill="#AF66DA"/>
<path d="M59.7684 21.6667H61.3888V32.5H59.7684V21.6667Z" fill="#9857BD"/>
<path d="M35.6369 23.7419C34.8452 24.1123 34.1903 24.503 33.8053 24.8879C32.0638 26.6295 32.0638 29.4531 33.8053 31.1946C35.5469 32.9361 38.3704 32.9361 40.112 31.1946C40.4969 30.8097 40.8877 30.1547 41.258 29.363L35.6369 23.7419Z" fill="#FFF9E2"/>
<path d="M37.6398 26.4262H37.9003C38.2723 26.4262 38.5738 26.7277 38.5738 27.0997V27.3602C38.5738 28.2894 39.2571 29.0773 40.177 29.2087L41.2581 29.3632C42.5635 26.573 43.6154 22.0845 43.2654 21.7347C42.9155 21.3848 38.4271 22.4367 35.6369 23.7421L35.7914 24.8232C35.9228 25.743 36.7105 26.4262 37.6398 26.4262Z" fill="#FE0364"/>
<path d="M61.3874 4.53711C61.9133 4.53711 62.3396 4.11082 62.3396 3.58496C62.3396 3.0591 61.9133 2.63281 61.3874 2.63281C60.8616 2.63281 60.4353 3.0591 60.4353 3.58496C60.4353 4.11082 60.8616 4.53711 61.3874 4.53711Z" fill="#08A9F1"/>
<path d="M57.7778 4.53711C58.3036 4.53711 58.7299 4.11082 58.7299 3.58496C58.7299 3.0591 58.3036 2.63281 57.7778 2.63281C57.2519 2.63281 56.8256 3.0591 56.8256 3.58496C56.8256 4.11082 57.2519 4.53711 57.7778 4.53711Z" fill="#01C0FA"/>
<path d="M54.1681 4.53711C54.6939 4.53711 55.1202 4.11082 55.1202 3.58496C55.1202 3.0591 54.6939 2.63281 54.1681 2.63281C53.6422 2.63281 53.2159 3.0591 53.2159 3.58496C53.2159 4.11082 53.6422 4.53711 54.1681 4.53711Z" fill="#01C0FA"/>
<path d="M7.22223 11.6869H5.90979L6.08994 11.5067C6.46178 11.1349 6.46178 10.5321 6.08994 10.1603C5.71809 9.78831 5.11519 9.78843 4.74347 10.1603L2.93782 11.9657C2.56153 12.3415 2.56965 12.9473 2.94074 13.3152L4.74334 15.1178C4.9292 15.3038 5.17295 15.3967 5.41658 15.3967C5.6602 15.3967 5.90395 15.3038 6.08981 15.1178C6.46165 14.746 6.46165 14.1431 6.08981 13.7713L5.90966 13.5912H7.2221C7.74794 13.5912 8.17425 13.1649 8.17425 12.639C8.17425 12.1132 7.74807 11.6869 7.22223 11.6869Z" fill="#C8EFFE"/>
<path d="M61.3889 37.0632H48.75C48.2242 37.0632 47.7978 36.6369 47.7978 36.1111C47.7978 35.5852 48.2242 35.1589 48.75 35.1589H61.3889C61.9148 35.1589 62.3411 35.5852 62.3411 36.1111C62.3411 36.6369 61.9148 37.0632 61.3889 37.0632ZM62.3411 39.7223C62.3411 39.1964 61.9148 38.7701 61.3889 38.7701H43.3333C42.8074 38.7701 42.3811 39.1964 42.3811 39.7223C42.3811 40.2481 42.8074 40.6744 43.3333 40.6744H61.3888C61.9148 40.6744 62.3411 40.2481 62.3411 39.7223ZM56.9244 43.3333C56.9244 42.8075 56.4981 42.3812 55.9722 42.3812H43.3333C42.8074 42.3812 42.3811 42.8075 42.3811 43.3333C42.3811 43.8592 42.8074 44.2855 43.3333 44.2855H55.9722C56.4981 44.2855 56.9244 43.8592 56.9244 43.3333Z" fill="#017297"/>
<path d="M61.3889 40.6743C61.9148 40.6743 62.3411 40.248 62.3411 39.7222C62.3411 39.1963 61.9148 38.77 61.3889 38.77H59.7462C59.6969 39.4304 59.5672 40.0685 59.3666 40.6743H61.3889Z" fill="#025F80"/>
<path d="M61.389 35.1589H59.7685V37.0632H61.389C61.9148 37.0632 62.3411 36.6369 62.3411 36.1111C62.3411 35.5852 61.9148 35.1589 61.389 35.1589Z" fill="#025F80"/>
<path d="M50.5555 28.0354H46.9445C46.4186 28.0354 45.9923 27.6091 45.9923 27.0833C45.9923 26.5574 46.4186 26.1311 46.9445 26.1311H50.5555C51.0813 26.1311 51.5077 26.5574 51.5077 27.0833C51.5077 27.6091 51.0813 28.0354 50.5555 28.0354Z" fill="#F2FBFF"/>
<path d="M57.7777 28.0354H54.1667C53.6408 28.0354 53.2145 27.6091 53.2145 27.0833C53.2145 26.5574 53.6408 26.1311 54.1667 26.1311H57.7777C58.3036 26.1311 58.7299 26.5574 58.7299 27.0833C58.7299 27.6091 58.3036 28.0354 57.7777 28.0354Z" fill="#F2FBFF"/>
<path d="M37.9167 4.56323H27.0834C26.5576 4.56323 26.1313 4.13692 26.1313 3.61108C26.1313 3.08524 26.5576 2.65894 27.0834 2.65894H37.9167C38.4425 2.65894 38.8688 3.08524 38.8688 3.61108C38.8688 4.13692 38.4425 4.56323 37.9167 4.56323Z" fill="#F2FBFF"/>
<path d="M43.3333 4.56323H41.5277C41.0019 4.56323 40.5756 4.13692 40.5756 3.61108C40.5756 3.08524 41.0019 2.65894 41.5277 2.65894H43.3333C43.8591 2.65894 44.2854 3.08524 44.2854 3.61108C44.2854 4.13692 43.8591 4.56323 43.3333 4.56323Z" fill="#F2FBFF"/>
<path d="M12.8941 33.4028L19.8611 23.3395V21.6667H18.703L11.7361 31.7301L4.76925 21.6667H3.61105V23.3395L10.578 33.4028L3.61105 43.4661V45.139H4.76912L11.7361 35.0755L18.7031 45.139H19.8611V43.4661L12.8941 33.4028Z" fill="#08A9F1"/>
<path d="M15.5921 44.0581L0.593764 61.0562C-0.235494 61.9961 -0.19106 63.4186 0.695199 64.3048C1.58146 65.1911 3.00397 65.2355 3.9438 64.4063L20.9419 49.4079C23.001 47.5911 24.9665 45.6751 26.8319 43.6675L24.9742 40.0258L21.3326 38.168C19.3249 40.0335 17.409 41.999 15.5921 44.0581Z" fill="#FED402"/>
<path d="M35.0547 32.4441L32.556 29.9454C32.3657 29.7551 32.0675 29.7256 31.8435 29.8748L31.7938 29.908C28.0872 32.379 24.5894 35.1418 21.3326 38.1681L26.8321 43.6675C29.8584 40.4107 32.6211 36.9129 35.0921 33.2064L35.1253 33.1566C35.2746 32.9326 35.245 32.6344 35.0547 32.4441Z" fill="#B4D2E2"/>
<path d="M28.7267 41.5571C29.144 41.076 29.5558 40.5901 29.9621 40.0995L24.9005 35.0378C24.4098 35.4441 23.9239 35.8559 23.4428 36.2732L28.7267 41.5571Z" fill="#8ABBD5"/>
</g>
<defs>
<clipPath id="clip0_1078_375">
<rect width="65" height="65" fill="white"/>
</clipPath>
</defs>
</svg>
