<svg width="199" height="54" viewBox="0 0 199 54" fill="none" xmlns="http://www.w3.org/2000/svg">
<path fill-rule="evenodd" clip-rule="evenodd" d="M122.67 0.532059C112.576 2.48756 107.053 8.13912 107.032 16.5351C107.011 24.9336 111.952 29.4035 124.773 32.5862C128.781 33.5817 133.007 34.9522 134.164 35.6333C138.732 38.3187 133.863 43.4426 127.897 42.2305C126.396 41.9246 124.283 40.57 123.205 39.2197C121.312 36.8504 120.978 36.7644 113.673 36.7644H106.103L106.107 39.0823C106.11 41.6793 108.872 46.3109 111.867 48.7444C112.955 49.6285 115.689 51.1559 117.943 52.1387C126.077 55.6872 141.161 53.9467 147.378 48.7435C150.419 46.198 152.551 41.2578 152.551 36.756C152.551 27.7405 147.695 23.8379 131.604 19.9235C126.181 18.6044 123.407 16.874 123.407 14.8089C123.407 10.9687 133.489 11.0504 134.81 14.9016C135.305 16.3463 136.251 16.5351 142.996 16.5351C147.191 16.5351 150.813 16.2494 151.046 15.9004C151.85 14.6968 149.045 8.75189 146.476 6.21565C141.46 1.26537 131.346 -1.1495 122.67 0.532059ZM24.135 19.2973C24.135 34.1658 23.8928 37.5525 22.717 39.1051C19.8299 42.92 16.1222 40.9139 15.2761 35.0795L14.7779 31.643L7.38896 31.8858L0 32.1285L0.160293 36.2679C0.605652 47.802 7.52375 53.7739 20.5922 53.9087C29.2179 53.9981 35.9748 50.5732 38.7071 45.5159L40.0732 43.4087L40.5286 42.1444L40.4148 41.4422L40.5286 40.7867V21.0749V1.36315H32.3318H24.135V19.2973ZM48.7254 27.0712V52.7793H57.3776H66.0297V42.6646V32.55H74.2265H82.4233V42.6646V52.7793H90.6201H98.8169V27.0712V1.36315H90.6201H82.4233V11.4778V21.5924H74.2265H66.0297V11.4778V1.36315H57.3776H48.7254V27.0712ZM158.927 27.0712V52.7793H167.579H176.231V44.3504V35.9215H185.339H194.446V29.5999V23.2782H185.339H176.231V18.2209V13.1636H187.616H199V7.26336V1.36315H178.963H158.927V27.0712Z" fill="black"/>
</svg>
