<svg width="30" height="42" viewBox="0 0 30 42" fill="none" xmlns="http://www.w3.org/2000/svg">
<path d="M14.684 0C12.069 4.19476e-05 9.50143 0.698568 7.24681 2.02335C4.99219 3.34812 3.13233 5.25107 1.85954 7.53545C0.586756 9.81982 -0.0527724 12.4027 0.00708188 15.017C0.0669362 17.6314 0.823999 20.1823 2.2 22.406L13.86 41.19C13.9713 41.3663 14.1254 41.5115 14.308 41.6122C14.4905 41.7129 14.6955 41.7658 14.904 41.766H14.915C15.1258 41.7636 15.3325 41.7072 15.5152 41.6021C15.698 41.4971 15.8508 41.3469 15.959 41.166L27.3 22.21C28.6255 19.9797 29.337 17.4383 29.3625 14.844C29.3879 12.2497 28.7262 9.6949 27.4447 7.43906C26.1633 5.18321 24.3076 3.30672 22.0661 2.00015C19.8247 0.693588 17.2774 0.00350142 14.683 0H14.684ZM25.191 20.949L14.869 38.189L4.275 21.113C3.1287 19.265 2.49511 17.145 2.43935 14.971C2.38358 12.7971 2.90766 10.6474 3.9577 8.74306C5.00775 6.83867 6.54591 5.24818 8.41413 4.13506C10.2823 3.02193 12.4132 2.42629 14.5879 2.40935C16.7625 2.3924 18.9024 2.95476 20.7878 4.03864C22.6731 5.12251 24.2359 6.68882 25.3155 8.57661C26.3951 10.4644 26.9526 12.6056 26.9307 14.7802C26.9088 16.9548 26.3084 19.0843 25.191 20.95V20.949Z" fill="white"/>
<path d="M14.684 7.34204C13.2319 7.34204 11.8124 7.77266 10.605 8.57941C9.39762 9.38616 8.45658 10.5328 7.90089 11.8744C7.34519 13.216 7.19978 14.6922 7.48307 16.1164C7.76636 17.5406 8.46563 18.8488 9.49242 19.8756C10.5192 20.9024 11.8274 21.6017 13.2517 21.885C14.6759 22.1683 16.1521 22.0229 17.4937 21.4672C18.8352 20.9115 19.9819 19.9704 20.7887 18.763C21.5954 17.5556 22.026 16.1362 22.026 14.6841C22.0231 12.7377 21.2486 10.872 19.8724 9.4957C18.4961 8.11944 16.6303 7.34495 14.684 7.34204ZM14.684 19.5891C13.7139 19.5891 12.7656 19.3014 11.9589 18.7624C11.1523 18.2235 10.5236 17.4574 10.1524 16.5611C9.78112 15.6648 9.68399 14.6786 9.87325 13.7271C10.0625 12.7757 10.5297 11.9017 11.2156 11.2157C11.9016 10.5297 12.7756 10.0626 13.7271 9.87329C14.6786 9.68403 15.6648 9.78116 16.5611 10.1524C17.4573 10.5237 18.2234 11.1524 18.7624 11.959C19.3013 12.7656 19.589 13.7139 19.589 14.6841C19.5866 15.9842 19.0691 17.2304 18.1497 18.1498C17.2304 19.0691 15.9842 19.5867 14.684 19.5891Z" fill="white"/>
</svg>
