<svg width="288" height="47" viewBox="0 0 288 47" fill="none" xmlns="http://www.w3.org/2000/svg">
<path d="M83.2 36.487H78.274V15.617H83.2V18.384C83.8873 17.331 84.8364 16.4746 85.9543 15.8989C87.0723 15.3232 88.3206 15.0479 89.577 15.1C94.689 15.1 97.644 18.477 97.644 23.917V36.487H92.719V24.856C92.719 21.62 91.124 19.65 88.076 19.65C85.121 19.65 83.199 21.901 83.199 25.465V36.487H83.2ZM101.256 27.487V15.617H106.18V27.2C106.18 30.483 107.775 32.453 110.542 32.453C113.309 32.453 114.904 30.483 114.904 27.2V15.617H119.781V27.483C119.781 33.483 116.31 36.957 110.495 36.957C104.725 37 101.255 33.486 101.255 27.483L101.256 27.487ZM121.282 15.622H126.535L132.116 30.114L137.744 15.622H142.856L134.273 36.492H129.91L121.281 15.622H121.282ZM162.741 31.568C161.844 33.2693 160.481 34.6799 158.812 35.6349C157.142 36.59 155.235 37.0499 153.314 36.961C146.983 36.961 142.48 32.461 142.48 26.034C142.429 24.613 142.666 23.1963 143.177 21.8691C143.687 20.542 144.461 19.3317 145.451 18.3111C146.441 17.2904 147.627 16.4805 148.938 15.9299C150.249 15.3793 151.658 15.0994 153.08 15.107C159.18 15.107 163.445 19.797 163.445 26.034C163.445 26.409 163.445 26.925 163.398 27.534H147.356C147.514 29.0069 148.218 30.3673 149.328 31.348C150.438 32.3287 151.875 32.8587 153.356 32.834C154.446 32.8625 155.521 32.5827 156.459 32.0268C157.396 31.471 158.158 30.6617 158.656 29.692L162.741 31.568ZM158.567 23.968C158.42 22.6061 157.763 21.3504 156.727 20.454C155.692 19.5575 154.355 19.0869 152.986 19.137C151.639 19.1677 150.345 19.6664 149.326 20.5474C148.306 21.4284 147.625 22.6367 147.4 23.965L158.567 23.968ZM171.04 36.487H166.116V15.617H171.04V18.384C171.628 17.3349 172.498 16.4712 173.551 15.8908C174.604 15.3105 175.799 15.0365 177 15.1C178.325 15.0361 179.638 15.3736 180.767 16.0682C181.897 16.7628 182.79 17.7822 183.331 18.993C184.028 17.777 185.041 16.7727 186.263 16.0871C187.486 15.4016 188.871 15.0604 190.272 15.1C195.103 15.1 197.872 18.43 197.872 23.636V36.436H192.948V24.622C192.948 21.574 191.541 19.651 188.962 19.651C186.289 19.651 184.554 21.808 184.507 25.232V36.487H179.583V24.763C179.583 21.527 178.176 19.604 175.597 19.604C172.877 19.604 171.142 21.804 171.142 25.373V36.487H171.04ZM203.822 29.593C204.099 30.4929 204.65 31.2839 205.399 31.8555C206.147 32.4272 207.055 32.7511 207.996 32.782C209.544 32.782 210.81 32.082 210.81 30.625C210.81 29.453 210.11 28.89 208.418 28.374L205.885 27.574C202.368 26.448 200.585 24.432 200.585 21.524C200.585 17.631 203.868 15.146 207.761 15.146C209.351 15.1103 210.918 15.5395 212.268 16.3809C213.618 17.2224 214.693 18.4395 215.361 19.883L211.42 22C210.62 20.359 209.356 19.233 207.809 19.233C206.402 19.233 205.276 19.933 205.276 21.156C205.276 22.141 206.026 22.891 207.621 23.407L210.107 24.207C214 25.52 215.594 27.537 215.594 30.307C215.594 34.575 212.03 37.014 207.949 37.014C206.216 37.1011 204.5 36.6345 203.05 35.6817C201.6 34.7288 200.49 33.3393 199.882 31.714L203.822 29.593ZM223 36.487H218.08V7.83202H223V18.384C223.687 17.331 224.637 16.4748 225.755 15.8992C226.873 15.3237 228.122 15.0486 229.378 15.101C234.49 15.101 237.445 18.478 237.445 23.918V36.487H232.521V24.856C232.521 21.62 230.926 19.65 227.878 19.65C224.923 19.65 223.001 21.901 223.001 25.465V36.487H223ZM262.254 26.029C262.291 28.2357 261.671 30.4035 260.472 32.2564C259.273 34.1093 257.55 35.5634 255.522 36.4335C253.493 37.3036 251.252 37.5504 249.083 37.1423C246.914 36.7343 244.916 35.6899 243.343 34.1422C241.769 32.5945 240.692 30.6136 240.249 28.4516C239.805 26.2897 240.015 24.0447 240.851 22.0024C241.688 19.9602 243.114 18.2132 244.947 16.984C246.78 15.7548 248.937 15.0989 251.144 15.1C252.599 15.0584 254.048 15.3113 255.403 15.8434C256.758 16.3756 257.992 17.176 259.03 18.1967C260.068 19.2174 260.889 20.4373 261.444 21.7832C261.999 23.1291 262.276 24.5733 262.259 26.029H262.254ZM244.948 26.029C244.916 26.8618 245.053 27.6925 245.35 28.4713C245.646 29.25 246.097 29.9609 246.675 30.5613C247.253 31.1618 247.946 31.6394 248.713 31.9657C249.48 32.2919 250.305 32.4601 251.139 32.4601C251.972 32.4601 252.797 32.2919 253.564 31.9657C254.331 31.6394 255.024 31.1618 255.602 30.5613C256.18 29.9609 256.631 29.25 256.927 28.4713C257.224 27.6925 257.361 26.8618 257.329 26.029C257.361 25.1962 257.224 24.3656 256.927 23.5868C256.631 22.808 256.18 22.0971 255.602 21.4967C255.024 20.8962 254.331 20.4186 253.564 20.0924C252.797 19.7661 251.972 19.5979 251.139 19.5979C250.305 19.5979 249.48 19.7661 248.713 20.0924C247.946 20.4186 247.253 20.8962 246.675 21.4967C246.097 22.0971 245.646 22.808 245.35 23.5868C245.053 24.3656 244.916 25.1962 244.948 26.029ZM270 15.617V18.617C270.821 17.5183 271.891 16.6305 273.122 16.027C274.354 15.4234 275.711 15.1215 277.082 15.146C282.851 15.146 287.259 19.836 287.259 26.073C287.259 32.217 282.851 37 277.082 37C275.716 37.0521 274.359 36.772 273.125 36.1838C271.892 35.5956 270.819 34.7169 270 33.623V44.273H265.12V15.617H270ZM276.05 19.603C275.214 19.6134 274.388 19.7895 273.621 20.1214C272.853 20.4532 272.159 20.934 271.579 21.536C270.999 22.138 270.544 22.8492 270.241 23.6284C269.937 24.4075 269.792 25.2391 269.812 26.075C269.78 26.9141 269.918 27.7509 270.217 28.5355C270.516 29.3201 270.97 30.0363 271.553 30.6412C272.135 31.2461 272.833 31.7272 273.606 32.0559C274.379 32.3846 275.21 32.554 276.049 32.554C276.889 32.554 277.72 32.3846 278.493 32.0559C279.266 31.7272 279.964 31.2461 280.546 30.6412C281.129 30.0363 281.583 29.3201 281.882 28.5355C282.181 27.7509 282.319 26.9141 282.287 26.075C282.312 25.2377 282.169 24.4038 281.867 23.6224C281.566 22.8409 281.111 22.1277 280.529 21.5245C279.948 20.9213 279.252 20.4403 278.482 20.1099C277.713 19.7794 276.885 19.606 276.047 19.6L276.05 19.603ZM41.693 1.56794e-05H41.646C35.5426 -0.00706585 29.681 2.38486 25.325 6.66002C22.5507 5.48072 19.5275 5.00724 16.5255 5.2819C13.5235 5.55657 10.6364 6.57083 8.12222 8.234C5.60803 9.89717 3.54514 12.1574 2.11796 14.8127C0.690792 17.468 -0.0561829 20.4355 -0.0561829 23.45C-0.0561829 26.4645 0.690792 29.4321 2.11796 32.0873C3.54514 34.7426 5.60803 37.0029 8.12222 38.666C10.6364 40.3292 13.5235 41.3435 16.5255 41.6181C19.5275 41.8928 22.5507 41.4193 25.325 40.24C28.0775 42.9153 31.4449 44.8735 35.1314 45.9426C38.8178 47.0117 42.7105 47.1589 46.4672 46.3714C50.2239 45.5838 53.7296 43.8856 56.6763 41.4259C59.623 38.9662 61.9204 35.8204 63.3666 32.2649C64.8128 28.7094 65.3636 24.8531 64.9705 21.0349C64.5774 17.2167 63.2525 13.5536 61.1121 10.3673C58.9718 7.18111 56.0816 4.56938 52.6956 2.76167C49.3096 0.953964 45.5314 0.00563058 41.693 1.56794e-05ZM41.646 41.693C36.8111 41.6803 32.1778 39.7542 28.7588 36.3356C25.3398 32.917 23.4132 28.2839 23.4 23.449H18.2C18.1869 27.8817 19.4396 32.226 21.811 35.971C20.6364 36.3063 19.4215 36.4799 18.2 36.487C14.7421 36.487 11.4258 35.1134 8.98075 32.6683C6.53565 30.2232 5.162 26.9069 5.162 23.449C5.162 19.9911 6.53565 16.6749 8.98075 14.2298C11.4258 11.7847 14.7421 10.411 18.2 10.411C21.6555 10.4179 24.9675 11.7938 27.4106 14.2375C29.8537 16.6812 31.2289 19.9935 31.235 23.449H36.44C36.4538 20.7827 35.8764 18.1465 34.7493 15.73C33.6223 13.3136 31.9736 11.177 29.922 9.47402C32.1688 7.58938 34.8369 6.27418 37.7 5.63987C40.5632 5.00556 43.5371 5.07084 46.3696 5.83018C49.2022 6.58952 51.81 8.02053 53.9719 10.0019C56.1339 11.9834 57.7863 14.4568 58.7891 17.2125C59.792 19.9683 60.1157 22.9252 59.7328 25.8327C59.3499 28.7402 58.2718 31.5125 56.5897 33.9148C54.9077 36.317 52.6713 38.2783 50.0701 39.6325C47.4689 40.9867 44.5796 41.6938 41.647 41.694L41.646 41.693Z" fill="#2C3357"/>
</svg>
