<svg width="65" height="65" viewBox="0 0 65 65" fill="none" xmlns="http://www.w3.org/2000/svg">
<path d="M37.9167 62.8333H27.0833L30.3333 52H34.6667L37.9167 62.8333Z" fill="#476C99"/>
<path d="M61.8854 53.0834H3.11459C1.9928 53.0834 1.08334 52.174 1.08334 51.0522V13.948C1.08334 12.8262 1.9928 11.9167 3.11459 11.9167H61.8854C63.0072 11.9167 63.9167 12.8262 63.9167 13.948V51.0522C63.9167 52.174 63.0072 53.0834 61.8854 53.0834Z" fill="#FFDA7D"/>
<path d="M61.8854 53.0833H3.11459C1.9928 53.0833 1.08334 52.1738 1.08334 51.052V46.5833H63.9167V51.052C63.9167 52.1738 63.0072 53.0833 61.8854 53.0833Z" fill="#6498D8"/>
<path d="M43.3333 63.9166H21.6667C21.6667 61.5234 23.6068 59.5833 26 59.5833H39C41.3932 59.5833 43.3333 61.5234 43.3333 63.9166Z" fill="#6498D8"/>
<path d="M32.5 43.3333L21.6667 37.9166V27.0833L32.5 32.4999V43.3333Z" fill="#EF7086"/>
<path d="M32.5 43.3333L43.3333 37.9166V27.0833L32.5 32.4999V43.3333Z" fill="#B95667"/>
<path d="M43.3333 27.0834L32.5 32.5001L21.6667 27.0834L32.5 21.6667L43.3333 27.0834Z" fill="#763742"/>
<path d="M8.66666 37.9167H13V42.2501H8.66666V37.9167Z" fill="#6498D8"/>
<path d="M4.33331 37.9167H8.66665V42.2501H4.33331V37.9167Z" fill="#476C99"/>
<path d="M8.66666 16.25H13V20.5833H8.66666V16.25Z" fill="#476C99"/>
<path d="M4.33331 16.25H8.66665V20.5833H4.33331V16.25Z" fill="#6498D8"/>
<path d="M8.66666 20.5833H13V24.9166H8.66666V20.5833Z" fill="#6498D8"/>
<path d="M4.33331 20.5833H8.66665V24.9166H4.33331V20.5833Z" fill="#476C99"/>
<path d="M8.66666 24.9167H13V29.2501H8.66666V24.9167Z" fill="#476C99"/>
<path d="M4.33331 24.9167H8.66665V29.2501H4.33331V24.9167Z" fill="#6498D8"/>
<path d="M8.66666 29.25H13V33.5833H8.66666V29.25Z" fill="#6498D8"/>
<path d="M4.33331 29.25H8.66665V33.5833H4.33331V29.25Z" fill="#476C99"/>
<path d="M8.66666 33.5833H13V37.9166H8.66666V33.5833Z" fill="#476C99"/>
<path d="M4.33331 33.5833H8.66665V37.9166H4.33331V33.5833Z" fill="#6498D8"/>
<path d="M49.8333 16.25H60.6667V27.0833H49.8333V16.25Z" fill="#6498D8"/>
<path d="M49.8333 31.4167H60.6667V42.2501H49.8333V31.4167Z" fill="#6498D8"/>
<path d="M49.8333 31.4167H60.6667V34.6667H49.8333V31.4167Z" fill="#476C99"/>
<path d="M49.8333 16.25H60.6667V19.5H49.8333V16.25Z" fill="#476C99"/>
<path d="M41.1666 11.9166V7.58325H38.6287C38.5519 7.36604 38.4648 7.15371 38.3662 6.94788L40.1604 5.15374L37.0963 2.08967L35.302 3.88367C35.0961 3.78509 34.8839 3.69801 34.6666 3.62123V1.08325H30.3333V3.62123C30.1161 3.69801 29.9038 3.78522 29.6979 3.88367L27.9038 2.08953L24.8397 5.15361L26.6339 6.94774C26.5353 7.15371 26.4482 7.36591 26.3714 7.58312H23.8333V11.9165H26.3713C26.4481 12.1337 26.5351 12.346 26.6337 12.5518L24.8396 14.346L27.9037 17.41L29.6978 15.6159C29.9038 15.7145 30.116 15.8016 30.3332 15.8783V18.4166H34.6665V15.8786C34.8837 15.8018 35.0961 15.7148 35.3019 15.6162L37.096 17.4103L40.1601 14.3462L38.366 12.5521C38.4645 12.3461 38.5516 12.1339 38.6284 11.9167L41.1666 11.9166Z" fill="#6498D8"/>
<path d="M32.5 13C34.2949 13 35.75 11.5449 35.75 9.75C35.75 7.95507 34.2949 6.5 32.5 6.5C30.7051 6.5 29.25 7.95507 29.25 9.75C29.25 11.5449 30.7051 13 32.5 13Z" fill="#EF7086"/>
<path d="M20.5834 2.16675H8.66668C8.06841 2.16675 7.58335 2.65181 7.58335 3.25008V6.05145L7.26607 5.73416C6.84303 5.31112 6.15714 5.31112 5.7341 5.73416C5.31092 6.15721 5.31092 6.84309 5.7341 7.26613L7.90077 9.4328C8.11215 9.64432 8.38949 9.75008 8.66668 9.75008C8.94388 9.75008 9.22121 9.64432 9.43274 9.4328L11.5994 7.26613C12.0226 6.84309 12.0226 6.15721 11.5994 5.73416C11.1764 5.31112 10.4905 5.31112 10.0674 5.73416L9.75002 6.05145V4.33341H20.5834C21.1816 4.33341 21.6667 3.84835 21.6667 3.25008C21.6667 2.65181 21.1816 2.16675 20.5834 2.16675Z" fill="#476C99"/>
<path d="M59.2661 5.73403C58.843 5.31099 58.1571 5.31099 57.7341 5.73403L57.4167 6.05145V3.25008C57.4167 2.65181 56.9316 2.16675 56.3333 2.16675H44.4167C43.8184 2.16675 43.3333 2.65181 43.3333 3.25008C43.3333 3.84835 43.8184 4.33341 44.4167 4.33341H55.25V6.05145L54.9327 5.73416C54.5097 5.31112 53.8238 5.31112 53.4008 5.73416C52.9776 6.15721 52.9776 6.84309 53.4008 7.26613L55.5674 9.4328C55.7788 9.64432 56.0561 9.75008 56.3333 9.75008C56.6105 9.75008 56.8879 9.64432 57.0994 9.4328L59.2661 7.26613C59.6891 6.84309 59.6891 6.15707 59.2661 5.73403Z" fill="#476C99"/>
<path d="M61.8854 10.8333H42.25V7.58333C42.25 6.98506 41.7649 6.5 41.1667 6.5H40.3462L40.9263 5.91974C41.1294 5.71661 41.2436 5.44104 41.2436 5.15369C41.2436 4.86633 41.1294 4.59076 40.9263 4.38764L37.8622 1.32356C37.4393 0.900385 36.7534 0.900521 36.3303 1.32356L35.75 1.90382V1.08333C35.75 0.485062 35.2649 0 34.6667 0H30.3333C29.7351 0 29.25 0.485062 29.25 1.08333V1.90382L28.6699 1.3237C28.2468 0.900521 27.5609 0.900656 27.1379 1.3237L24.0738 4.38777C23.6508 4.81081 23.6507 5.4967 24.0738 5.91974L24.6538 6.5H23.8333C23.2351 6.5 22.75 6.98506 22.75 7.58333V10.8333H3.11458C1.39723 10.8333 0 12.2306 0 13.9479V51.0521C0 52.7694 1.39723 54.1667 3.11458 54.1667H28.5523L27.2523 58.5H26C23.0133 58.5 20.5833 60.9299 20.5833 63.9167C20.5833 64.5149 21.0684 65 21.6667 65H43.3333C43.9316 65 44.4167 64.5149 44.4167 63.9167C44.4167 60.9299 41.9868 58.5 39 58.5H37.7477L36.4477 54.1667H61.8854C63.6028 54.1667 65 52.7694 65 51.0521V13.9479C65 12.2306 63.6028 10.8333 61.8854 10.8333ZM24.9167 8.66667H26.3713C26.8305 8.66667 27.2397 8.37728 27.3928 7.94435C27.4579 7.75978 27.5314 7.58184 27.6109 7.41555C27.8092 7.00118 27.7245 6.50677 27.3997 6.18191L26.3716 5.15382L27.9037 3.62185L28.9318 4.64994C29.2566 4.97494 29.751 5.05944 30.1654 4.86119C30.3317 4.7817 30.5096 4.70817 30.6942 4.64303C31.1271 4.49001 31.4165 4.08078 31.4165 3.62158V2.16667H33.5832V3.62131C33.5832 4.08051 33.8726 4.48974 34.3055 4.64276C34.4901 4.7079 34.668 4.78143 34.8343 4.86092C35.2488 5.05903 35.7431 4.97453 36.068 4.64967L37.096 3.62158L38.628 5.15355L37.5999 6.18164C37.2751 6.50636 37.1904 7.00077 37.3887 7.41528C37.4682 7.58157 37.5417 7.75951 37.6068 7.94408C37.7599 8.37701 38.1691 8.6664 38.6283 8.6664H40.0833V10.8331H38.6287C38.1695 10.8331 37.7603 11.1224 37.6072 11.5554C37.5421 11.7399 37.4686 11.9179 37.3891 12.0842C37.1908 12.4987 37.2755 12.993 37.6003 13.3178L38.6284 14.3459L37.0964 15.8779L36.0684 14.8498C35.7436 14.5249 35.2494 14.4403 34.8347 14.6385C34.6684 14.718 34.4905 14.7916 34.3059 14.8567C33.873 15.0097 33.5836 15.4189 33.5836 15.8781V17.3333H31.4169V15.8787C31.4169 15.4195 31.1276 15.0103 30.6946 14.8572C30.5101 14.7921 30.3321 14.7186 30.1658 14.6391C29.7514 14.4407 29.2572 14.5255 28.9322 14.8503L27.9041 15.8784L26.372 14.3463L27.4001 13.3182C27.7249 12.9935 27.8096 12.4991 27.6113 12.0846C27.5318 11.9183 27.4583 11.7404 27.3932 11.5558C27.2401 11.1229 26.8309 10.8335 26.3717 10.8335H24.9684H24.9167V8.66667ZM39 60.6667C40.4124 60.6667 41.6172 61.5723 42.0643 62.8333H22.9357C23.3828 61.5723 24.5876 60.6667 26 60.6667H39ZM29.5143 58.5L30.8143 54.1667H34.1855L35.4855 58.5H29.5143ZM62.8333 51.0521C62.8333 51.5748 62.4081 52 61.8854 52H3.11458C2.59188 52 2.16667 51.5748 2.16667 51.0521V47.6667H62.8333V51.0521ZM62.8333 45.5H2.16667V13.9479C2.16667 13.4252 2.59188 13 3.11458 13H23.8333H24.6538L24.0737 13.5801C23.6505 14.0032 23.6505 14.6891 24.0737 15.1121L27.1378 18.1762C27.5608 18.5992 28.2467 18.5992 28.6697 18.1762L29.2499 17.596V18.4167C29.2499 19.0149 29.7349 19.5 30.3332 19.5H34.6665C35.2648 19.5 35.7499 19.0149 35.7499 18.4167V17.5962L36.3301 18.1763C36.7532 18.5995 37.4391 18.5993 37.8621 18.1763L40.9262 15.1122C41.1293 14.9091 41.2434 14.6335 41.2434 14.3462C41.2434 14.0588 41.1293 13.7832 40.9262 13.5801L40.3462 13H41.1667H61.8854C62.4081 13 62.8333 13.4252 62.8333 13.9479V45.5Z" fill="black"/>
<path d="M21.1821 38.8854L32.0155 44.3021C32.1683 44.3786 32.3344 44.4165 32.5 44.4165C32.6981 44.4165 32.8957 44.3622 33.0697 44.2547L43.818 38.8854C44.1848 38.7019 44.4166 38.3268 44.4166 37.9165V27.0832C44.4166 26.7078 44.2222 26.359 43.9029 26.1617L32.9845 20.6976C32.6795 20.5451 32.3206 20.5451 32.0156 20.6976L21.0972 26.1617C20.7778 26.359 20.5833 26.7078 20.5833 27.0832V37.9165C20.5833 38.3268 20.8151 38.7019 21.1821 38.8854ZM42.25 37.247L33.5833 41.5804V33.0407L42.25 28.8362V37.247ZM32.5 22.8777L40.911 27.0832L32.6718 31.3747L24.089 27.0832L32.5 22.8777ZM22.75 28.836L31.4166 33.1694V41.5802L22.75 37.2469V28.836Z" fill="black"/>
<path d="M13 15.1667H4.33333C3.73506 15.1667 3.25 15.6518 3.25 16.2501V42.2501C3.25 42.8484 3.73506 43.3334 4.33333 43.3334H13C13.5983 43.3334 14.0833 42.8484 14.0833 42.2501V16.2501C14.0833 15.6518 13.5983 15.1667 13 15.1667ZM7.58333 41.1667H5.41667V39.0001H7.58333V41.1667ZM7.58333 36.8334H5.41667V34.6667H7.58333V36.8334ZM7.58333 32.5001H5.41667V30.3334H7.58333V32.5001ZM7.58333 28.1667H5.41667V26.0001H7.58333V28.1667ZM7.58333 23.8334H5.41667V21.6667H7.58333V23.8334ZM7.58333 19.5001H5.41667V17.3334H7.58333V19.5001ZM11.9167 41.1667H9.75V39.0001H11.9167V41.1667ZM11.9167 36.8334H9.75V34.6667H11.9167V36.8334ZM11.9167 32.5001H9.75V30.3334H11.9167V32.5001ZM11.9167 28.1667H9.75V26.0001H11.9167V28.1667ZM11.9167 23.8334H9.75V21.6667H11.9167V23.8334ZM11.9167 19.5001H9.75V17.3334H11.9167V19.5001Z" fill="black"/>
<path d="M49.8333 28.1667H60.6667C61.2649 28.1667 61.75 27.6817 61.75 27.0834V16.2501C61.75 15.6518 61.2649 15.1667 60.6667 15.1667H49.8333C49.2351 15.1667 48.75 15.6518 48.75 16.2501V27.0834C48.75 27.6817 49.2351 28.1667 49.8333 28.1667ZM50.9167 26.0001V20.5834H59.5833V26.0001H50.9167ZM59.5833 17.3334V18.4167H50.9167V17.3334H59.5833Z" fill="black"/>
<path d="M49.8333 43.3333H60.6667C61.2649 43.3333 61.75 42.8482 61.75 42.2499V31.4166C61.75 30.8183 61.2649 30.3333 60.6667 30.3333H49.8333C49.2351 30.3333 48.75 30.8183 48.75 31.4166V42.2499C48.75 42.8482 49.2351 43.3333 49.8333 43.3333ZM50.9167 41.1666V35.7499H59.5833V41.1666H50.9167ZM59.5833 32.4999V33.5833H50.9167V32.4999H59.5833Z" fill="black"/>
<path d="M32.5 14.0834C34.8894 14.0834 36.8334 12.1395 36.8334 9.75008C36.8334 7.36065 34.8894 5.41675 32.5 5.41675C30.1106 5.41675 28.1667 7.36065 28.1667 9.75008C28.1667 12.1395 30.1106 14.0834 32.5 14.0834ZM32.5 7.58341C33.6947 7.58341 34.6667 8.55544 34.6667 9.75008C34.6667 10.9447 33.6947 11.9167 32.5 11.9167C31.3054 11.9167 30.3334 10.9447 30.3334 9.75008C30.3334 8.55544 31.3054 7.58341 32.5 7.58341Z" fill="black"/>
<path d="M7.90063 9.4328C8.11215 9.64432 8.38949 9.75008 8.66668 9.75008C8.94388 9.75008 9.22121 9.64432 9.43274 9.4328L11.5994 7.26613C12.0226 6.84309 12.0226 6.15721 11.5994 5.73416C11.1764 5.31112 10.4905 5.31112 10.0674 5.73416L9.75002 6.05145V4.33341H20.5834C21.1816 4.33341 21.6667 3.84835 21.6667 3.25008C21.6667 2.65181 21.1816 2.16675 20.5834 2.16675H8.66668C8.06841 2.16675 7.58335 2.65181 7.58335 3.25008V6.05145L7.26607 5.73416C6.84303 5.31112 6.15714 5.31112 5.7341 5.73416C5.31092 6.15721 5.31092 6.84309 5.7341 7.26613L7.90063 9.4328Z" fill="black"/>
<path d="M44.4167 4.33341H55.25V6.05145L54.9327 5.73416C54.5097 5.31112 53.8238 5.31112 53.4008 5.73416C52.9776 6.15721 52.9776 6.84309 53.4008 7.26613L55.5674 9.4328C55.7788 9.64432 56.0561 9.75008 56.3333 9.75008C56.6105 9.75008 56.8879 9.64432 57.0994 9.4328L59.2661 7.26613C59.6892 6.84309 59.6892 6.15721 59.2661 5.73416C58.843 5.31112 58.1571 5.31112 57.7341 5.73416L57.4167 6.05145V3.25008C57.4167 2.65181 56.9316 2.16675 56.3333 2.16675H44.4167C43.8184 2.16675 43.3333 2.65181 43.3333 3.25008C43.3333 3.84835 43.8184 4.33341 44.4167 4.33341Z" fill="black"/>
</svg>
