<svg width="266" height="76" viewBox="0 0 266 76" fill="none" xmlns="http://www.w3.org/2000/svg">
<path d="M57.119 14.2491C57.0924 14.089 57.0137 13.9423 56.895 13.8316C56.7764 13.7209 56.6245 13.6525 56.463 13.6371C56.201 13.5931 50.956 13.5501 50.956 13.5501C50.956 13.5501 46.542 9.26708 46.105 8.83008C45.8707 8.67126 45.6027 8.56884 45.3222 8.53084C45.0417 8.49285 44.7561 8.52031 44.488 8.61108C44.488 8.61108 43.658 8.87308 42.259 9.31108C41.9925 8.42021 41.6412 7.55693 41.21 6.73308C39.637 3.71808 37.364 2.14408 34.567 2.14408C34.377 2.13673 34.1867 2.15116 34 2.18708C33.9021 2.09465 33.8142 1.99208 33.738 1.88108C33.1594 1.24882 32.4478 0.752661 31.6545 0.428282C30.8612 0.103903 30.0058 -0.0406293 29.15 0.00508177C25.566 0.0900818 22.026 2.66808 19.1 7.30508C17.0819 10.4848 15.7145 14.0333 15.077 17.7451C10.969 19.0121 8.085 19.8861 8.041 19.9301C5.987 20.5861 5.9 20.6301 5.641 22.5961C5.419 24.0391 0 66.0371 0 66.0371L45.494 73.9051L65.2 69.0051C65.2 69.0051 57.163 14.5991 57.119 14.2491ZM39.988 10.0101C38.939 10.3161 37.759 10.7101 36.448 11.1031C36.4378 8.88763 36.0687 6.68847 35.355 4.59108C38.109 5.11508 39.42 8.17508 39.988 10.0101ZM34.088 11.8461C31.688 12.5891 29.106 13.3761 26.488 14.2061C27.1752 11.465 28.4905 8.92133 30.33 6.77608C31.0492 5.97714 31.9272 5.33715 32.908 4.89708C33.7788 7.10658 34.1806 9.473 34.088 11.8461ZM29.193 2.40508C29.947 2.37929 30.6919 2.57689 31.334 2.97308C30.2749 3.52413 29.3259 4.26471 28.534 5.15808C26.1095 7.97158 24.4801 11.3813 23.814 15.0351C21.629 15.6911 19.531 16.3461 17.565 16.9581C18.88 11.1901 23.687 2.58108 29.193 2.40508Z" fill="#95BF47"/>
<path d="M56.463 13.6381C56.201 13.5941 50.956 13.5511 50.956 13.5511C50.956 13.5511 46.542 9.26809 46.105 8.83109C46.0254 8.74908 45.9303 8.68368 45.8253 8.6387C45.7202 8.59373 45.6073 8.57007 45.493 8.56909V73.9031L65.203 69.0081C65.203 69.0081 57.162 14.6421 57.118 14.2491C57.0849 14.092 57.0042 13.9489 56.8868 13.8393C56.7694 13.7298 56.621 13.6592 56.462 13.6371L56.463 13.6381Z" fill="#5E8E3E"/>
<path d="M34.569 23.7761L32.296 32.3421C30.5291 31.5991 28.6156 31.2704 26.702 31.3811C22.244 31.6431 22.202 34.4401 22.244 35.1811C22.506 39.0291 32.559 39.8591 33.127 48.8161C33.564 55.8961 29.369 60.7031 23.338 61.0961C21.3047 61.2752 19.2564 61.0299 17.3229 60.3757C15.3894 59.7216 13.6129 58.6729 12.106 57.2961L13.636 50.7841C13.636 50.7841 17.657 53.7991 20.847 53.6251C21.2328 53.6179 21.6131 53.5315 21.9641 53.3712C22.3152 53.2109 22.6295 52.9802 22.8877 52.6933C23.1459 52.4065 23.3423 52.0696 23.4648 51.7037C23.5874 51.3378 23.6334 50.9505 23.6 50.5661C23.294 45.5841 15.078 45.8461 14.554 37.6741C14.117 30.7691 18.662 23.7741 28.67 23.1211C32.603 22.7711 34.57 23.7771 34.57 23.7771L34.569 23.7761Z" fill="white"/>
<path d="M91.907 42.0441C89.634 40.8201 88.454 39.7711 88.454 38.3291C88.454 36.4931 90.071 35.3141 92.654 35.3141C94.5803 35.3561 96.4802 35.7718 98.248 36.5381L100.348 30.1571C100.348 30.1571 98.425 28.6711 92.787 28.6711C84.921 28.6711 79.458 33.1711 79.458 39.5091C79.458 43.0931 81.993 45.8461 85.402 47.8091C88.155 49.3821 89.117 50.4751 89.117 52.1361C89.117 53.8361 87.762 55.1951 85.184 55.1951C82.6074 55.0899 80.0856 54.4183 77.798 53.2281L75.562 59.6121C78.2598 61.1527 81.3285 61.9237 84.434 61.8411C92.519 61.8411 98.334 57.8641 98.334 50.6971C98.375 46.8081 95.447 44.0551 91.907 42.0441ZM124.162 28.5841C122.316 28.6012 120.499 29.0392 118.848 29.8647C117.197 30.6903 115.756 31.8817 114.635 33.3481L114.504 33.3041L117.957 15.2111H108.957L100.216 61.2301H109.216L112.231 45.4971C113.411 39.5531 116.47 35.8821 119.355 35.8821C121.365 35.8821 122.155 37.2371 122.155 39.2031C122.154 40.5384 122.023 41.8705 121.762 43.1801L118.353 61.1851H127.353L130.893 42.5681C131.282 40.639 131.501 38.6795 131.549 36.7121C131.545 31.6861 128.836 28.5841 124.162 28.5841ZM151.913 28.5841C141.075 28.5841 133.908 38.3731 133.908 49.2991C133.908 56.2911 138.235 61.8851 146.32 61.8851C156.94 61.8851 164.151 52.3581 164.151 41.1701C164.107 34.7461 160.305 28.5841 151.914 28.5841H151.913ZM147.455 54.9841C144.396 54.9841 143.085 52.3621 143.085 49.1281C143.085 43.9711 145.751 35.5361 150.646 35.5361C153.836 35.5361 154.885 38.2891 154.885 40.9551C154.882 46.5021 152.216 54.9801 147.453 54.9801L147.455 54.9841ZM187.137 28.5841C181.062 28.5841 177.61 33.9161 177.61 33.9161H177.479L178.003 29.0651H170.049C169.656 32.3431 168.956 37.2811 168.213 40.9961L161.962 73.9471H170.962L173.453 60.6181H173.628C175.255 61.4717 177.08 61.8789 178.916 61.7981C189.492 61.7981 196.397 50.9601 196.397 39.9901C196.444 34.0031 193.734 28.5841 187.135 28.5841H187.137ZM178.528 55.1121C177.172 55.1383 175.852 54.6726 174.813 53.8011L176.299 45.3661C177.348 39.7721 180.276 36.0141 183.423 36.0141C186.176 36.0141 187.007 38.5491 187.007 40.9961C187.004 46.8081 183.551 55.1111 178.525 55.1111L178.528 55.1121ZM209.295 15.6921C208.609 15.6885 207.93 15.8223 207.297 16.0856C206.664 16.349 206.09 16.7365 205.609 17.2253C205.129 17.7142 204.751 18.2944 204.498 18.9318C204.245 19.5691 204.123 20.2507 204.138 20.9361C204.09 21.5171 204.164 22.1018 204.357 22.6522C204.549 23.2025 204.855 23.7062 205.255 24.1306C205.655 24.555 206.139 24.8905 206.677 25.1154C207.215 25.3404 207.794 25.4496 208.377 25.4361H208.508C209.207 25.4654 209.904 25.3502 210.555 25.0976C211.207 24.845 211.8 24.4605 212.297 23.9682C212.793 23.4759 213.182 22.8864 213.44 22.2367C213.698 21.5869 213.819 20.8908 213.796 20.1921C213.83 19.5923 213.737 18.992 213.523 18.4307C213.308 17.8694 212.978 17.3596 212.553 16.9348C212.129 16.51 211.619 16.1797 211.057 15.9655C210.496 15.7514 209.896 15.6582 209.296 15.6921H209.295ZM196.706 61.2291H205.706L211.824 29.3291H202.734L196.706 61.2291ZM234.727 29.2391H228.478L228.784 27.7531C229.308 24.6941 231.144 21.9411 234.116 21.9411C235.094 21.9421 236.066 22.0894 237 22.3781L238.748 15.3421C237.19 14.7385 235.522 14.4703 233.853 14.5551C230.645 14.475 227.514 15.5444 225.025 17.5701C221.966 20.1921 220.525 23.9511 219.781 27.7531L219.519 29.2391H215.319L214.008 36.0131H218.208L213.444 61.2291H222.444L227.208 36.0131H233.414L234.725 29.2391H234.727ZM256.404 29.3261C256.404 29.3261 250.766 43.5261 248.232 51.2651H248.101C247.926 48.7741 245.872 29.3261 245.872 29.3261H236.432L241.851 58.6551C241.981 59.1549 241.919 59.6853 241.676 60.1411C240.498 62.3106 238.82 64.1683 236.781 65.5601C235.208 66.6475 233.486 67.5013 231.668 68.0951L234.159 75.7431C237.462 74.8677 240.495 73.1856 242.987 70.8481C247.095 67.0021 250.897 61.0591 254.787 52.9741L265.8 29.3311H256.4L256.404 29.3261Z" fill="black"/>
</svg>
