<svg width="89" height="89" viewBox="0 0 89 89" fill="none" xmlns="http://www.w3.org/2000/svg">
<g clip-path="url(#clip0_933_147)">
<path d="M39.6328 33.375H1.39062C0.55625 33.375 0 32.6797 0 31.9844V23.0844C0 19.1906 3.19844 15.8531 7.23125 15.8531H44.3609C45.1953 15.8531 45.7516 16.5484 45.7516 17.2437C45.7516 17.9391 45.0562 18.6344 44.3609 18.6344H7.09219C4.72812 18.6344 2.78125 20.5812 2.78125 22.9453V30.4547H39.6328C40.4672 30.4547 41.0234 31.15 41.0234 31.8453C41.0234 32.5406 40.4672 33.375 39.6328 33.375Z" fill="black"/>
<path d="M7.09219 84.8281C5.14531 84.8281 3.3375 84.1328 2.08594 82.7422C0.695312 81.3516 0 79.5437 0 77.5969V31.8453C0 31.0109 0.695312 30.4547 1.39062 30.4547H39.6328C40.4672 30.4547 41.0234 31.15 41.0234 31.8453C41.0234 32.5406 40.3281 33.2359 39.6328 33.2359H2.78125V77.4578C2.78125 78.5703 3.19844 79.6828 4.03281 80.5172C4.86719 81.3516 5.97969 81.7687 7.09219 81.7687H72.3125C74.6766 81.7687 76.6234 79.8219 76.6234 77.4578V49.6453C76.6234 48.8109 77.3187 48.2547 78.0141 48.2547C78.7094 48.2547 79.4047 48.95 79.4047 49.6453V77.4578C79.4047 81.3516 76.2063 84.6891 72.1734 84.6891H7.09219V84.8281Z" fill="black"/>
<path d="M12.5156 26.0047H9.45625C8.62187 26.0047 8.06562 25.3094 8.06562 24.6141C8.06562 23.9188 8.76094 23.2234 9.45625 23.2234H12.5156C13.35 23.2234 13.9062 23.9188 13.9062 24.6141C13.9062 25.3094 13.35 26.0047 12.5156 26.0047Z" fill="black"/>
<path d="M19.3297 26.0047H16.2703C15.4359 26.0047 14.8797 25.3094 14.8797 24.6141C14.8797 23.9188 15.575 23.2234 16.2703 23.2234H19.3297C20.1641 23.2234 20.7203 23.9188 20.7203 24.6141C20.7203 25.3094 20.1641 26.0047 19.3297 26.0047Z" fill="black"/>
<path d="M26.1437 26.0047H23.0844C22.25 26.0047 21.6938 25.3094 21.6938 24.6141C21.6938 23.9188 22.3891 23.2234 23.0844 23.2234H26.1437C26.9781 23.2234 27.5344 23.9188 27.5344 24.6141C27.5344 25.3094 26.9781 26.0047 26.1437 26.0047Z" fill="black"/>
<path d="M34.2094 58.5453H13.9063C11.5422 58.5453 9.59531 56.5984 9.59531 54.2344V42.1359C9.59531 39.7719 11.5422 37.825 13.9063 37.825H34.2094C36.5734 37.825 38.5203 39.7719 38.5203 42.1359V54.2344C38.5203 56.5984 36.5734 58.5453 34.2094 58.5453ZM34.2094 40.6063H13.9063C13.0719 40.6063 12.5156 41.3016 12.5156 41.9969V54.2344C12.5156 55.0688 13.2109 55.625 13.9063 55.625H34.2094C35.0438 55.625 35.6 54.9297 35.6 54.2344V42.1359C35.6 41.3016 34.9047 40.6063 34.2094 40.6063Z" fill="black"/>
<path d="M48.8109 49.9234H47.2812C46.4469 49.9234 45.8906 49.2281 45.8906 48.5328C45.8906 47.8375 46.5859 47.1422 47.2812 47.1422H48.8109C49.6453 47.1422 50.2016 47.8375 50.2016 48.5328C50.2016 49.2281 49.5062 49.9234 48.8109 49.9234Z" fill="black"/>
<path d="M69.2531 59.1016H47.2812C46.4469 59.1016 45.8906 58.4062 45.8906 57.7109C45.8906 57.0156 46.5859 56.3203 47.2812 56.3203H69.2531C70.0875 56.3203 70.6437 57.0156 70.6437 57.7109C70.6437 58.4062 69.9484 59.1016 69.2531 59.1016Z" fill="black"/>
<path d="M69.2531 68.2797H10.2906C9.45625 68.2797 8.9 67.5844 8.9 66.8891C8.9 66.1938 9.59531 65.4984 10.2906 65.4984H69.2531C70.0875 65.4984 70.6437 66.1938 70.6437 66.8891C70.6437 67.5844 69.9484 68.2797 69.2531 68.2797Z" fill="black"/>
<path d="M69.2531 77.4578H10.2906C9.45625 77.4578 8.9 76.7625 8.9 76.0672C8.9 75.3719 9.59531 74.6766 10.2906 74.6766H69.2531C70.0875 74.6766 70.6437 75.3719 70.6437 76.0672C70.6437 76.7625 69.9484 77.4578 69.2531 77.4578Z" fill="black"/>
<path d="M67.3063 50.4797H65.0812C63.2734 50.4797 61.7438 49.0891 61.4656 47.4203L60.9094 43.9438C60.9094 43.6656 60.6313 43.5266 60.4922 43.3875C59.9359 43.2484 59.5188 42.9703 58.9625 42.8312C58.6844 42.6922 58.5453 42.6922 58.2672 42.8312L55.4859 44.9172C54.0953 45.8906 52.0094 45.7516 50.7578 44.5L49.0891 42.8312C47.8375 41.5797 47.6984 39.6328 48.6719 38.1031L50.7578 35.3219C50.8969 35.0437 50.8969 34.7656 50.7578 34.6266C50.4797 34.2094 50.3406 33.6531 50.0625 33.0969C49.9234 32.8187 49.7844 32.6797 49.5062 32.6797L46.1688 32.1234C44.3609 31.8453 43.1094 30.3156 43.1094 28.5078V26.1437C43.1094 24.3359 44.3609 22.8063 46.1688 22.5281L49.5062 21.9719C49.7844 21.9719 49.9234 21.6938 50.0625 21.5547C50.2016 20.9984 50.4797 20.5812 50.7578 20.025C50.8969 19.7469 50.8969 19.4687 50.7578 19.3297L48.6719 16.5484C47.5594 15.1578 47.8375 13.2109 48.95 11.8203L50.6188 10.1516C51.8703 8.9 53.9562 8.76094 55.3469 9.87344L57.9891 11.9594C58.2672 12.2375 58.5453 12.0984 58.6844 11.9594C59.2406 11.6813 59.6578 11.5422 60.2141 11.2641C60.4922 11.125 60.6313 10.9859 60.7703 10.7078L61.3266 7.23125C61.7437 5.5625 63.2734 4.17188 65.0812 4.17188H67.3063C69.1141 4.17188 70.6437 5.5625 70.9219 7.23125L71.4781 10.7078C71.4781 10.9859 71.7563 11.125 71.8953 11.2641C72.4516 11.4031 72.8687 11.6813 73.425 11.8203C73.7031 11.9594 73.8422 11.9594 74.1203 11.8203L76.9016 9.73438C78.2922 8.62187 80.3781 8.9 81.6297 10.1516L83.2984 11.8203C84.55 13.0719 84.6891 15.0187 83.7156 16.5484L81.6297 19.3297C81.4906 19.6078 81.4906 19.8859 81.6297 20.025C81.9078 20.4422 82.0469 20.9984 82.325 21.5547C82.4641 21.8328 82.6031 21.9719 82.8812 21.9719L86.2188 22.5281C88.0266 22.8063 89.2781 24.3359 89.2781 26.1437V28.5078C89.2781 30.3156 88.0266 31.8453 86.2188 32.1234L82.8812 32.6797C82.6031 32.6797 82.4641 32.9578 82.325 33.0969C82.1859 33.6531 81.9078 34.0703 81.7687 34.6266C81.6297 34.9047 81.6297 35.1828 81.7687 35.4609L83.8547 38.2422C84.8281 39.6328 84.6891 41.5797 83.5766 42.9703L81.4906 44.5C80.2391 45.7516 78.1531 45.8906 76.7625 44.7781L74.1203 42.6922C73.8422 42.4141 73.5641 42.5531 73.425 42.6922C72.8687 42.9703 72.4516 43.1094 71.8953 43.3875C71.6172 43.5266 71.4781 43.6656 71.4781 43.9438L70.9219 47.4203C70.6437 49.0891 69.1141 50.4797 67.3063 50.4797ZM58.5453 39.7719C59.1016 39.7719 59.6578 39.9109 60.075 40.1891C60.4922 40.3281 60.9094 40.6063 61.3266 40.7453C62.5781 41.1625 63.4125 42.275 63.6906 43.5266L64.2469 47.0031C64.2469 47.4203 64.6641 47.6984 64.9422 47.6984H67.1672C67.5844 47.6984 67.8625 47.4203 67.8625 47.1422L68.4188 43.6656C68.5578 42.4141 69.5313 41.3016 70.7828 40.8844C71.2 40.7453 71.6172 40.6063 72.0344 40.3281C73.1469 39.7719 74.6766 39.9109 75.7891 40.7453L78.5703 42.8312C78.9875 43.1094 79.2656 42.9703 79.5438 42.6922L81.2125 41.0234C81.4906 40.7453 81.4906 40.3281 81.2125 40.05L79.1266 37.2687C78.2922 36.1562 78.1531 34.7656 78.7094 33.6531C78.8484 33.2359 79.1266 32.8187 79.2656 32.4016C79.6828 31.15 80.7953 30.1766 82.0469 30.0375L85.3844 29.4813C85.8016 29.4813 85.9406 29.0641 85.9406 28.7859V26.4219C85.9406 26.0047 85.6625 25.7266 85.3844 25.7266L82.0469 25.1703C80.7953 25.0312 79.6828 24.0578 79.2656 22.8062C79.1266 22.3891 78.9875 21.9719 78.7094 21.5547C78.1531 20.3031 78.2922 18.9125 78.9875 17.8L81.0734 15.0188C81.3516 14.7406 81.2125 14.3234 81.0734 14.0453L79.4047 12.3766C79.2656 12.2375 78.9875 12.0984 78.8484 12.0984C78.7094 12.0984 78.5703 12.0984 78.4313 12.2375L75.7891 14.3234C74.8156 15.1578 73.2859 15.2969 72.0344 14.7406C71.6172 14.6016 71.2 14.3234 70.7828 14.1844C69.5313 13.7672 68.6969 12.6547 68.4188 11.4031L67.8625 7.92656C67.8625 7.50937 67.4453 7.23125 67.1672 7.23125H64.9422C64.525 7.23125 64.2469 7.50937 64.2469 7.7875L63.8297 11.125C63.6906 12.3766 62.7172 13.4891 61.4656 13.9062C61.0484 14.0453 60.6312 14.1844 60.2141 14.4625C59.1016 15.0187 57.5719 14.8797 56.4594 14.0453L53.6781 11.9594C53.2609 11.5422 52.9828 11.8203 52.7047 12.0984L51.0359 13.7672C50.7578 14.0453 50.7578 14.4625 51.0359 14.7406L53.1219 17.5219C53.8172 18.6344 53.9563 20.025 53.4 21.1375C53.2609 21.5547 52.9828 21.9719 52.8438 22.3891C52.4266 23.6406 51.3141 24.6141 50.0625 24.7531L46.725 25.3094C46.3078 25.3094 46.1688 25.7266 46.1688 26.0047V28.3687C46.1688 28.7859 46.4469 29.0641 46.725 29.0641L50.0625 29.6203C51.3141 29.7594 52.4266 30.7328 52.8438 31.9844C52.9828 32.4016 53.1219 32.8188 53.4 33.2359C53.9563 34.4875 53.8172 35.8781 52.9828 36.9906L50.8969 39.7719C50.6187 40.05 50.7578 40.4672 50.8969 40.7453L52.5656 42.4141C52.8437 42.6922 53.1219 42.8312 53.5391 42.5531L56.3203 40.4672C57.0156 40.05 57.85 39.7719 58.5453 39.7719Z" fill="black"/>
<path d="M66.1937 36.5734C61.0484 36.5734 56.8766 32.4016 56.8766 27.2562C56.8766 22.1109 61.0484 17.9391 66.1937 17.9391C71.3391 17.9391 75.5109 22.1109 75.5109 27.2562C75.5109 32.4016 71.3391 36.5734 66.1937 36.5734ZM66.1937 20.8594C62.5781 20.8594 59.7969 23.7797 59.7969 27.2562C59.7969 30.8719 62.7172 33.6531 66.1937 33.6531C69.6703 33.6531 72.5906 30.7328 72.5906 27.2562C72.5906 23.7797 69.6703 20.8594 66.1937 20.8594Z" fill="black"/>
</g>
<defs>
<clipPath id="clip0_933_147">
<rect width="89" height="89" fill="white"/>
</clipPath>
</defs>
</svg>
