<svg width="212" height="74" viewBox="0 0 212 74" fill="none" xmlns="http://www.w3.org/2000/svg">
<path d="M79.238 8.58934e-07H15.278C14.1436 -0.000578857 13.0284 0.292299 12.0407 0.85016C11.053 1.40802 10.2264 2.21189 9.64119 3.18367C9.05601 4.15545 8.73216 5.26208 8.70111 6.39603C8.67006 7.52997 8.93289 8.65266 9.46402 9.655L15.864 21.77H4.26401C3.5295 21.7702 2.80749 21.96 2.16789 22.3211C1.5283 22.6823 0.992807 23.2024 0.613296 23.8313C0.233784 24.4602 0.0231172 25.1764 0.00169298 25.9106C-0.0197313 26.6448 0.148816 27.3721 0.491012 28.022L21.069 66.971C21.4318 67.6559 21.9744 68.2291 22.6384 68.6288C23.3025 69.0286 24.0629 69.2398 24.838 69.2398C25.6131 69.2398 26.3735 69.0286 27.0376 68.6288C27.7017 68.2291 28.2442 67.6559 28.607 66.971L34.196 56.45L41.208 69.724C41.7665 70.7813 42.6025 71.6664 43.6262 72.2842C44.6499 72.9021 45.8226 73.2293 47.0183 73.2308C48.214 73.2322 49.3875 72.9078 50.4127 72.2924C51.4379 71.677 52.276 70.7939 52.837 69.738L84.895 9.411C85.4135 8.43488 85.6706 7.34124 85.6413 6.23636C85.612 5.13148 85.2974 4.05298 84.728 3.10568C84.1585 2.15839 83.3537 1.37454 82.3917 0.830338C81.4297 0.286133 80.3433 7.95735e-05 79.238 8.58934e-07ZM50.508 25.775L36.685 51.793C36.4434 52.2485 36.0823 52.6296 35.6404 52.8954C35.1986 53.1612 34.6927 53.3016 34.177 53.3016C33.6614 53.3016 33.1555 53.1612 32.7136 52.8954C32.2718 52.6296 31.9107 52.2485 31.669 51.793L17.979 25.884C17.7502 25.452 17.6368 24.9683 17.6497 24.4796C17.6627 23.9909 17.8017 23.5139 18.0531 23.0947C18.3046 22.6755 18.66 22.3283 19.085 22.0867C19.51 21.8452 19.9902 21.7175 20.479 21.716H48.069C48.5456 21.716 49.0141 21.8393 49.4289 22.074C49.8437 22.3087 50.1908 22.6467 50.4363 23.0552C50.6818 23.4636 50.8174 23.9287 50.83 24.4051C50.8426 24.8816 50.7316 25.3531 50.508 25.774V25.775Z" fill="#F71963"/>
<path d="M147.267 27.9861H140.267V51.9641C140.266 52.1825 140.18 52.3918 140.025 52.5462C139.871 52.7006 139.661 52.7876 139.443 52.7881H134.043C133.825 52.7876 133.615 52.7006 133.461 52.5462C133.307 52.3918 133.22 52.1825 133.219 51.9641V27.9861H126.182C126.076 27.9904 125.97 27.9734 125.871 27.9361C125.772 27.8987 125.681 27.8419 125.604 27.7689C125.528 27.6959 125.466 27.6082 125.424 27.511C125.382 27.4138 125.359 27.3091 125.358 27.2031V22.9621C125.359 22.8561 125.382 22.7514 125.424 22.6542C125.466 22.557 125.528 22.4693 125.604 22.3963C125.681 22.3233 125.772 22.2665 125.871 22.2292C125.97 22.1918 126.076 22.1748 126.182 22.1791H147.265C147.483 22.169 147.697 22.2457 147.859 22.3924C148.021 22.5391 148.118 22.7439 148.13 22.9621V27.2051C148.118 27.4226 148.02 27.6266 147.859 27.7728C147.697 27.919 147.485 27.9957 147.267 27.9861Z" fill="#F71963"/>
<path d="M169.724 52.616C166.97 53.0082 164.19 53.187 161.409 53.151C156.096 53.151 151.401 51.791 151.401 44.296V30.615C151.401 23.115 156.138 21.801 161.45 21.801C164.218 21.7645 166.984 21.9434 169.724 22.336C170.301 22.418 170.548 22.625 170.548 23.16V26.996C170.547 27.2144 170.46 27.4237 170.306 27.5781C170.152 27.7325 169.942 27.8195 169.724 27.8201H161.04C159.104 27.8201 158.405 28.478 158.405 30.62V34.369H169.396C169.614 34.3696 169.824 34.4566 169.978 34.611C170.132 34.7654 170.219 34.9747 170.22 35.193V39.106C170.219 39.3244 170.132 39.5337 169.978 39.6881C169.824 39.8425 169.614 39.9295 169.396 39.93H158.405V44.296C158.405 46.437 159.105 47.0961 161.04 47.0961H169.724C169.942 47.0966 170.152 47.1836 170.306 47.338C170.46 47.4924 170.547 47.7017 170.548 47.9201V51.7511C170.551 52.2861 170.303 52.534 169.724 52.616Z" fill="#F71963"/>
<path d="M200.801 52.7799H194.253C194.033 52.7971 193.813 52.7475 193.622 52.6373C193.431 52.5272 193.277 52.3618 193.182 52.1629L187.504 43.1489L182.36 51.9649C182.071 52.4589 181.784 52.7889 181.334 52.7889H175.239C175.162 52.7992 175.085 52.7932 175.011 52.7711C174.936 52.749 174.868 52.7114 174.81 52.6608C174.751 52.6102 174.704 52.5477 174.672 52.4776C174.64 52.4074 174.623 52.3311 174.622 52.2539C174.63 52.1531 174.658 52.0548 174.704 51.9649L183.626 37.0869L174.612 22.9589C174.566 22.8835 174.538 22.7987 174.53 22.7109C174.545 22.5596 174.617 22.4198 174.732 22.3203C174.847 22.2207 174.995 22.169 175.147 22.1759H181.777C182.23 22.1759 182.56 22.5879 182.803 22.9589L188.072 31.2789L193.172 22.9589C193.263 22.7523 193.405 22.5722 193.584 22.4353C193.764 22.2983 193.975 22.2091 194.198 22.1759H200.293C200.445 22.169 200.594 22.2207 200.709 22.3202C200.824 22.4197 200.896 22.5595 200.911 22.7109C200.903 22.7987 200.875 22.8834 200.829 22.9589L191.859 37.1739L201.213 51.9649C201.286 52.0905 201.328 52.2318 201.336 52.3769C201.338 52.6159 201.131 52.7799 200.801 52.7799Z" fill="#F71963"/>
<path d="M115.495 22.2611C115.348 22.2616 115.206 22.3129 115.092 22.4065C114.979 22.5 114.901 22.6299 114.873 22.7741L108.894 44.9021C108.812 45.3551 108.689 45.5191 108.318 45.5191C107.947 45.5191 107.824 45.3481 107.742 44.9021L101.757 22.7691C101.729 22.6247 101.651 22.4947 101.537 22.4011C101.424 22.3076 101.281 22.2563 101.134 22.2561H95.249C95.1533 22.2562 95.0588 22.2779 94.9727 22.3195C94.8865 22.3612 94.8109 22.4218 94.7514 22.4967C94.6919 22.5717 94.65 22.6592 94.629 22.7526C94.608 22.846 94.6083 22.9429 94.63 23.0361C94.63 23.0361 101.93 48.4131 102.013 48.6621C102.404 50.0187 103.247 51.2012 104.402 52.0138C105.556 52.8264 106.954 53.2206 108.363 53.1311C109.764 53.1864 111.143 52.7798 112.29 51.9739C113.437 51.168 114.287 50.0075 114.709 48.6711C114.825 48.3291 121.965 23.0341 121.965 23.0341C121.986 22.941 121.986 22.8443 121.965 22.7512C121.944 22.658 121.902 22.5709 121.843 22.4961C121.783 22.4214 121.708 22.361 121.622 22.3195C121.536 22.2779 121.442 22.2562 121.346 22.2561L115.495 22.2611Z" fill="#F71963"/>
<path d="M79.238 8.58934e-07H15.278C14.1436 -0.000578857 13.0284 0.292299 12.0407 0.85016C11.053 1.40802 10.2264 2.21189 9.64119 3.18367C9.05601 4.15545 8.73216 5.26208 8.70111 6.39603C8.67006 7.52997 8.93289 8.65266 9.46402 9.655L15.864 21.77H4.26401C3.5295 21.7702 2.80749 21.96 2.16789 22.3211C1.5283 22.6823 0.992807 23.2024 0.613296 23.8313C0.233784 24.4602 0.0231172 25.1764 0.00169298 25.9106C-0.0197313 26.6448 0.148816 27.3721 0.491012 28.022L21.069 66.971C21.4318 67.6559 21.9744 68.2291 22.6384 68.6288C23.3025 69.0286 24.0629 69.2398 24.838 69.2398C25.6131 69.2398 26.3735 69.0286 27.0376 68.6288C27.7017 68.2291 28.2442 67.6559 28.607 66.971L34.196 56.45L41.208 69.724C41.7665 70.7813 42.6025 71.6664 43.6262 72.2842C44.6499 72.9021 45.8226 73.2293 47.0183 73.2308C48.214 73.2322 49.3875 72.9078 50.4127 72.2924C51.4379 71.677 52.276 70.7939 52.837 69.738L84.895 9.411C85.4135 8.43488 85.6706 7.34124 85.6413 6.23636C85.612 5.13148 85.2974 4.05298 84.728 3.10568C84.1585 2.15839 83.3537 1.37454 82.3917 0.830338C81.4297 0.286133 80.3433 7.95735e-05 79.238 8.58934e-07ZM50.508 25.775L36.685 51.793C36.4434 52.2485 36.0823 52.6296 35.6404 52.8954C35.1986 53.1612 34.6927 53.3016 34.177 53.3016C33.6614 53.3016 33.1555 53.1612 32.7136 52.8954C32.2718 52.6296 31.9107 52.2485 31.669 51.793L17.979 25.884C17.7502 25.452 17.6368 24.9683 17.6497 24.4796C17.6627 23.9909 17.8017 23.5139 18.0531 23.0947C18.3046 22.6755 18.66 22.3283 19.085 22.0867C19.51 21.8452 19.9902 21.7175 20.479 21.716H48.069C48.5456 21.716 49.0141 21.8393 49.4289 22.074C49.8437 22.3087 50.1908 22.6467 50.4363 23.0552C50.6818 23.4636 50.8174 23.9287 50.83 24.4051C50.8426 24.8816 50.7316 25.3531 50.508 25.774V25.775Z" fill="#F71963"/>
<path d="M206.288 22.7029V27.8508C206.288 27.8962 206.27 27.9397 206.238 27.9718C206.206 28.0039 206.162 28.0219 206.117 28.0219H205.79C205.745 28.0219 205.701 28.0039 205.669 27.9718C205.637 27.9397 205.619 27.8962 205.619 27.8508V22.7029H204.69C204.645 22.7029 204.601 22.6849 204.569 22.6528C204.537 22.6207 204.519 22.5772 204.519 22.5318V22.3109C204.517 22.2879 204.52 22.2647 204.528 22.2429C204.535 22.2212 204.548 22.2015 204.564 22.1852C204.581 22.1688 204.6 22.1563 204.622 22.1485C204.644 22.1406 204.667 22.1377 204.69 22.1398H207.232C207.255 22.1377 207.278 22.1406 207.3 22.1485C207.322 22.1563 207.341 22.1688 207.358 22.1852C207.374 22.2015 207.387 22.2212 207.394 22.2429C207.402 22.2647 207.405 22.2879 207.403 22.3109V22.5339C207.403 22.5792 207.385 22.6227 207.353 22.6548C207.321 22.6868 207.277 22.7049 207.232 22.7049L206.288 22.7029Z" fill="#F71963"/>
<path d="M209.398 26.8259C209.374 26.8283 209.35 26.8257 209.327 26.8182C209.305 26.8106 209.284 26.7984 209.266 26.7823C209.248 26.7662 209.234 26.7465 209.224 26.7246C209.215 26.7026 209.21 26.6789 209.21 26.655L208.673 23.341H208.632L208.688 24.4889V27.853C208.688 27.8983 208.67 27.9418 208.638 27.9739C208.606 28.0059 208.562 28.0239 208.517 28.0239H208.231C208.209 28.0239 208.186 28.0195 208.166 28.0109C208.145 28.0023 208.126 27.9897 208.11 27.9739C208.094 27.958 208.082 27.9391 208.073 27.9184C208.064 27.8976 208.06 27.8754 208.06 27.853V22.307C208.058 22.284 208.061 22.2608 208.069 22.239C208.076 22.2173 208.089 22.1976 208.105 22.1812C208.122 22.1649 208.141 22.1524 208.163 22.1445C208.185 22.1367 208.208 22.1338 208.231 22.1359H208.831C208.946 22.1359 209.002 22.186 209.019 22.307L209.435 24.6529L209.635 26.0449H209.685L209.885 24.6529L210.292 22.307C210.316 22.186 210.374 22.1359 210.487 22.1359H211.087C211.11 22.1338 211.133 22.1367 211.155 22.1445C211.177 22.1524 211.196 22.1649 211.213 22.1812C211.229 22.1976 211.242 22.2173 211.249 22.239C211.257 22.2608 211.26 22.284 211.258 22.307V27.853C211.258 27.8983 211.24 27.9418 211.208 27.9739C211.176 28.0059 211.132 28.0239 211.087 28.0239H210.801C210.756 28.0239 210.712 28.0059 210.68 27.9739C210.648 27.9418 210.63 27.8983 210.63 27.853V24.5059L210.686 23.358H210.645L210.108 26.672C210.108 26.6959 210.103 26.7196 210.094 26.7416C210.084 26.7635 210.07 26.7832 210.052 26.7993C210.034 26.8154 210.013 26.8276 209.991 26.8352C209.968 26.8427 209.944 26.8453 209.92 26.8429L209.398 26.8259Z" fill="#F71963"/>
</svg>
