<svg width="120" height="96" viewBox="0 0 120 96" fill="none" xmlns="http://www.w3.org/2000/svg">
<path d="M24.3769 89.0471C22.7853 89.0471 21.6963 89.801 21.6963 91.3089C21.6963 92.7329 22.7016 93.6544 24.1256 93.6544C25.1309 93.6544 26.1361 93.068 26.7225 92.3141V90.3036C26.7225 89.7172 25.8848 89.0471 24.3769 89.0471ZM57.8848 88.7958C57.9686 91.3926 59.644 93.3193 62.4921 93.3193C64.2513 93.3193 65.5916 92.3979 66.0105 91.8115C66.2618 91.979 66.4293 92.2303 66.4293 92.8167C66.4293 94.157 64.8377 95.9162 61.1518 95.9162C57.466 95.9162 54.4502 92.9843 54.4502 89.1309C54.4502 84.8586 57.2146 81.8429 61.3194 81.8429C65.089 81.8429 66.7644 84.6073 66.7644 86.9528C66.7644 87.623 66.5968 88.2932 66.3455 88.7958H57.8848ZM63.0785 87.0366C63.6649 87.0366 63.6649 86.7015 63.6649 86.1989C63.6649 84.8586 62.5759 83.5183 60.9005 83.5183C58.7225 83.5183 57.8848 85.2775 57.8848 86.9528L63.0785 87.0366ZM97.8429 88.5445C97.8429 91.7277 98.2618 93.4031 100.356 93.4031C102.618 93.4031 103.204 91.3926 103.204 89.5497V86.0314C103.204 84.8586 102.618 84.356 101.361 84.5235C100.859 83.1832 102.618 82.3455 103.623 82.0942C103.958 82.0104 104.209 82.0104 104.544 82.0104C105.969 82.0104 106.555 82.9319 106.555 84.1884C106.555 84.6911 106.471 85.5288 106.471 89.2146C106.471 90.8062 106.471 91.5602 106.471 91.8115C106.471 92.9843 107.058 93.6544 108.314 93.4869C108.817 94.8272 107.058 95.4973 106.052 95.6649C105.717 95.7487 105.466 95.7487 105.215 95.7487C103.874 95.7487 103.623 94.911 103.288 93.5706C103.12 93.822 102.953 93.9895 102.534 94.3246C101.613 95.1623 100.524 95.6649 99.1832 95.6649C97.7591 95.6649 96.5864 95.0785 95.7487 94.2408C94.5759 92.8167 94.5759 91.0576 94.5759 88.3769V85.8638C94.5759 84.6911 93.9895 84.1884 92.733 84.356C92.2304 83.0157 93.9895 82.178 94.9948 81.9267C95.3298 81.8429 95.5811 81.8429 95.9162 81.8429C97.3403 81.8429 97.9267 82.7644 97.9267 84.0209L97.8429 88.5445ZM91.5602 88.7958C91.5602 84.6073 88.712 81.8429 84.6911 81.8429C81.0052 81.8429 77.7382 84.6911 77.7382 88.7958C77.7382 92.9843 80.8377 95.8324 84.6073 95.8324C88.6283 95.8324 91.5602 92.9843 91.5602 88.7958ZM29.822 92.4816C29.822 93.5707 30.4921 93.9057 31.7487 94.0733C31.6649 95.3298 30.8272 95.7487 29.822 95.9162C28.6492 96 27.5602 95.4974 27.1413 94.3246C26.6387 94.8272 25.1309 96 23.1204 96C20.356 96 18.3455 94.157 18.3455 91.644C18.3455 89.0471 20.6073 87.4555 23.8743 87.4555C24.9633 87.4555 26.1361 87.7068 26.8063 88.0419V86.2827C26.8063 84.6911 26.1361 83.6858 24.2932 83.6858C23.9581 83.6858 23.1204 83.7696 22.4502 84.0209C22.534 84.2722 22.534 84.5235 22.534 84.7748C22.534 85.7801 21.9476 86.534 20.8586 86.534C19.9372 86.534 19.267 85.7801 19.267 84.8586C19.267 83.0994 21.445 81.8429 24.4607 81.8429C26.89 81.8429 28.3141 82.4293 29.068 83.3507C29.7382 84.1884 29.822 85.5288 29.822 87.4555V92.4816ZM88.0419 88.9633C88.0419 92.1466 86.7016 93.9057 84.6911 93.9057C82.9319 93.9057 81.2565 92.1466 81.2565 88.3769C81.2565 85.445 82.5131 83.6021 84.5235 83.6021C86.6178 83.6021 88.0419 85.6125 88.0419 88.9633ZM39.5393 84.1047C39.623 84.9424 40.2932 85.5288 41.1309 85.5288C42.2199 85.5288 42.8063 84.6073 42.8063 83.6858C42.8063 82.4293 41.801 81.7591 40.712 81.7591C39.5392 81.7591 38.2827 82.6806 37.5288 83.9371H37.445C37.1937 82.7644 36.6911 81.8429 35.4345 81.8429C35.1832 81.8429 34.8482 81.9267 34.5131 82.0104C33.5078 82.3455 32.0838 83.0994 32.5864 84.4398C33.9267 84.1884 34.4293 84.6073 34.4293 85.8638V91.5602C34.4293 92.733 34.2618 93.1518 33.9267 93.4869C33.5916 93.7382 33.1728 93.9057 32.9215 93.9057C32.3351 95.1623 33.4241 95.4973 36.1885 95.4973C38.9529 95.4973 39.8743 95.0785 39.2879 93.9057C39.0366 93.822 38.3665 93.7382 37.9476 93.4869C37.5288 93.1518 37.3612 92.6492 37.3612 91.5602V88.2094C37.6963 85.1099 38.7853 84.2722 39.5393 84.1047ZM73.466 82.178H76.9843C77.4031 83.1832 76.8167 84.0209 76.0628 84.1047C75.8115 84.1047 75.5602 84.1047 75.3089 84.1047C74.6387 84.1047 74.0523 84.0209 73.5497 84.0209V91.644C73.5497 92.8167 73.7173 93.2356 74.1361 93.5706C74.4712 93.822 75.3927 93.9895 75.644 93.9895C76.2304 95.246 74.89 95.5811 72.1256 95.5811C69.3612 95.5811 68.2722 95.1623 68.8586 93.9895C69.1099 93.9057 69.5288 93.822 69.8639 93.5706C70.2827 93.2356 70.3665 92.733 70.3665 91.644V83.9371L68.2722 83.8534C67.8534 82.8481 68.4398 82.0942 69.2775 82.0942H70.2827V81.089C70.2827 79.0785 70.6178 77.9895 71.1204 77.2356C71.8743 76.0628 73.2146 75.2251 75.2251 75.2251C77.822 75.2251 79.9162 76.3979 79.9162 78.2408C79.9162 78.9947 79.4136 80 78.2408 80C77.4031 80 76.6492 79.246 76.6492 78.4083C76.6492 78.0733 76.8167 77.6544 76.9843 77.4031C76.6492 77.068 76.0628 76.9005 75.4764 76.9005C73.801 76.9005 73.3822 78.157 73.3822 79.7487L73.466 82.178ZM50.7644 84.1047C50.8481 84.9424 51.5183 85.5288 52.356 85.5288C53.445 85.5288 54.0314 84.6073 54.0314 83.6858C54.0314 82.4293 53.0262 81.7591 51.9372 81.7591C50.7644 81.7591 49.5078 82.6806 48.7539 83.9371H48.6701C48.4188 82.7644 47.9162 81.8429 46.6597 81.8429C46.4084 81.8429 46.0733 81.9267 45.7382 82.0104C44.733 82.3455 43.3089 83.0994 43.8115 84.4398C45.1518 84.1884 45.6544 84.6073 45.6544 85.8638V91.5602C45.6544 92.733 45.4869 93.1518 45.1518 93.4869C44.8167 93.7382 44.3979 93.9057 44.1466 93.9057C43.5602 95.1623 44.6492 95.4973 47.4136 95.4973C50.178 95.4973 51.0995 95.0785 50.5131 93.9057C50.2618 93.822 49.5916 93.7382 49.1728 93.4869C48.7539 93.1518 48.5864 92.6492 48.5864 91.5602V88.2094C48.9214 85.1099 50.0105 84.2722 50.7644 84.1047ZM116.272 84.1047C116.356 84.9424 117.11 85.5288 117.948 85.5288C118.953 85.5288 119.623 84.6073 119.623 83.6858C119.623 82.4293 118.618 81.7591 117.529 81.7591C116.356 81.7591 115.099 82.6806 114.429 83.9371H114.346C114.094 82.7644 113.592 81.8429 112.419 81.8429C112.168 81.8429 111.832 81.9267 111.497 82.0104C110.492 82.3455 109.068 83.0994 109.571 84.4398C110.995 84.1884 111.414 84.6073 111.414 85.8638V91.5602C111.414 92.733 111.246 93.1518 110.827 93.4869C110.492 93.7382 110.073 93.9057 109.822 93.9057C109.236 95.1623 110.408 95.4973 113.089 95.4973C115.853 95.4973 116.775 95.0785 116.188 93.9057C115.937 93.822 115.267 93.7382 114.848 93.4869C114.513 93.1518 114.346 92.6492 114.346 91.5602V88.2094C114.429 85.1099 115.518 84.2722 116.272 84.1047Z" fill="#044F9E"/>
<path d="M0 86.0316C0 92.2305 4.27225 95.9164 8.96335 95.9164C13.1518 95.9164 16.0838 92.9845 16.0838 90.5551C16.0838 89.2148 15.2461 88.2934 14.2408 88.2934C13.1518 88.2934 12.2304 89.0473 12.2304 90.3038C12.2304 91.1415 12.6492 91.5604 12.9843 91.8954C12.3979 92.9845 11.2251 93.9059 9.29843 93.9059C6.19895 93.9059 3.93717 90.6389 3.93717 86.0316C3.93717 81.3405 6.11518 78.1572 9.21466 78.1572C11.0576 78.1572 12.3141 79.0787 12.8168 80.1677C12.4817 80.5028 12.0628 81.0054 12.0628 81.7593C12.0628 83.0159 12.9843 83.7698 14.0733 83.7698C15.1623 83.7698 15.9162 82.8483 15.9162 81.508C15.9162 79.0787 12.9843 76.1468 8.79581 76.1468C4.18848 76.063 0 80.1677 0 86.0316Z" fill="#044F9E"/>
<path d="M40.377 2.17807L14.2408 27.4765C12.9005 28.5655 12.0628 29.822 12.0628 31.7487C12.0628 33.5917 12.9005 34.932 14.2408 36.021L40.377 61.3194C40.5445 61.487 40.712 61.5707 40.8796 61.5707C41.1309 61.5707 41.2984 61.3194 41.2984 61.0681C41.2984 60.9006 41.2147 60.733 41.0471 60.5655C34.9319 52.9425 30.4922 44.2304 30.4922 31.8325C30.4922 19.4346 34.9319 10.555 41.0471 2.93199C41.2147 2.76445 41.2984 2.59691 41.2984 2.42937C41.2984 2.17807 41.1309 1.92676 40.8796 1.92676C40.712 1.92676 40.5445 2.01053 40.377 2.17807Z" fill="#E30613"/>
<path d="M60.3979 0C50.178 0 46.1571 14.4921 46.1571 31.7487C46.1571 49.0052 50.178 63.3298 60.3979 63.3298C66.5131 63.3298 71.7906 59.7278 71.7906 56.7958C71.7906 56.1257 71.5393 55.5393 71.0367 54.9529C68.1047 52.1047 67.0157 49.3403 67.0157 46.8272C67.0157 42.1361 71.1204 38.534 74.8901 38.534C80.0838 38.534 83.1833 42.6387 83.1833 47.9162C83.1833 52.9424 81.0052 57.1309 78.7435 60.4817C78.6597 60.6492 78.5759 60.733 78.5759 60.9005C78.5759 61.1518 78.7435 61.4031 78.9948 61.4031C79.1623 61.4031 79.3298 61.3194 79.4974 61.1518L105.634 35.8534C106.974 34.7644 107.812 33.4241 107.812 31.5812C107.812 29.7382 106.974 28.3979 105.634 27.3089L79.4974 2.01047C79.3298 1.84293 79.1623 1.75916 78.9948 1.75916C78.7435 1.75916 78.5759 2.01047 78.5759 2.26178C78.5759 2.42932 78.5759 2.51309 78.7435 2.68063C81.089 6.03141 83.1833 10.2199 83.1833 15.2461C83.1833 20.5236 80.0838 24.6283 74.8901 24.6283C71.1204 24.6283 67.0157 21.1099 67.0157 16.3351C67.0157 13.822 68.1885 11.0576 71.0367 8.20942C71.5393 7.70681 71.7906 7.03665 71.7906 6.36649C71.7906 3.60209 66.5969 0 60.3979 0Z" fill="#044F9E"/>
</svg>
