<svg width="430" height="430" viewBox="0 0 430 430" fill="none" xmlns="http://www.w3.org/2000/svg">
<g clip-path="url(#clip0_604_2)">
<path d="M172.252 28.8066H205.09V78.9453H172.252V28.8066Z" fill="#40596B"/>
<path d="M211.389 0H165.953C156.883 0 149.576 7.30664 149.576 16.4609C149.576 25.5313 156.883 32.8379 165.953 32.8379H211.389C220.459 32.8379 227.85 25.5313 227.85 16.4609C227.85 7.30664 220.459 0 211.389 0Z" fill="#334A5E"/>
<path d="M316.285 129.168L300.916 113.799L324.432 90.2832L339.801 105.652L316.285 129.168Z" fill="#40596B"/>
<path d="M356.178 95.0703L334.93 73.8223C330.646 69.5391 323.844 69.5391 319.561 73.8223C315.277 78.0215 315.277 84.9082 319.561 89.1914L340.809 110.439C345.092 114.723 351.895 114.723 356.178 110.439C360.377 106.24 360.377 99.3535 356.178 95.0703Z" fill="#334A5E"/>
<path d="M377.426 241.287C377.426 137.062 292.938 52.5742 188.713 52.5742C84.4883 52.5742 0 137.062 0 241.287C0 345.512 84.4883 430 188.713 430C292.938 430 377.426 345.512 377.426 241.287Z" fill="#84DBFF"/>
<path d="M340.641 241.287C340.641 157.387 272.613 89.3594 188.713 89.3594C104.812 89.3594 36.7852 157.387 36.7852 241.287C36.7852 325.187 104.812 393.215 188.713 393.215C272.613 393.215 340.641 325.187 340.641 241.287Z" fill="white"/>
<path d="M184.346 97.0859H192.996V111.279H184.346V97.0859Z" fill="#ACB3BA"/>
<path d="M99.8574 146.301L93.7266 152.432L83.6484 142.354L89.7793 136.223L99.8574 146.301Z" fill="#ACB3BA"/>
<path d="M44.5117 236.92H58.7051V245.57H44.5117V236.92Z" fill="#ACB3BA"/>
<path d="M93.7266 330.143L99.8574 336.273L89.7793 346.352L83.6484 340.221L93.7266 330.143Z" fill="#ACB3BA"/>
<path d="M184.346 371.295H192.996V385.488H184.346V371.295Z" fill="#ACB3BA"/>
<path d="M277.568 336.273L283.699 330.143L293.777 340.221L287.646 346.352L277.568 336.273Z" fill="#ACB3BA"/>
<path d="M318.721 236.92H332.914V245.57H318.721V236.92Z" fill="#ACB3BA"/>
<path d="M283.699 152.432L277.568 146.301L287.646 136.223L293.777 142.354L283.699 152.432Z" fill="#ACB3BA"/>
<path d="M188.713 170.32C133.787 170.32 88.0156 209.793 78.3574 261.863C77.0977 255.229 76.4258 248.342 76.4258 241.287C76.4258 179.391 126.732 129.084 188.713 129.084V170.32Z" fill="#FFD15C"/>
<path d="M188.713 129.084C181.238 129.084 175.191 135.131 175.191 142.605V238.684C175.191 246.158 181.238 252.121 188.713 252.121C196.187 252.121 202.234 246.074 202.234 238.684V142.605C202.15 135.131 196.187 129.084 188.713 129.084Z" fill="#FF7058"/>
<path d="M221.971 241.287C221.971 222.895 207.105 208.029 188.713 208.029C170.32 208.029 155.455 222.895 155.455 241.287C155.455 259.68 170.32 274.545 188.713 274.545C207.021 274.545 221.971 259.68 221.971 241.287Z" fill="#40596B"/>
<path d="M202.15 241.287C202.15 233.812 196.104 227.766 188.713 227.766C181.238 227.766 175.191 233.812 175.191 241.287C175.191 248.762 181.238 254.809 188.713 254.809C196.187 254.809 202.15 248.762 202.15 241.287Z" fill="#334A5E"/>
<path d="M188.713 52.5742C84.4883 52.5742 0 137.062 0 241.287C0 345.512 84.4883 430 188.713 430C292.854 430 377.342 345.512 377.342 241.287C377.426 137.062 292.938 52.5742 188.713 52.5742ZM188.713 393.215C104.729 393.215 36.7852 325.188 36.7852 241.287C36.7852 157.471 104.812 89.4434 188.713 89.4434C272.529 89.4434 340.557 157.471 340.557 241.287C340.557 325.188 272.613 393.215 188.713 393.215Z" fill="#4CDBC4"/>
<path d="M227.85 328.883C227.85 273.033 273.117 227.766 328.967 227.766C384.816 227.766 430 273.033 430 328.883C430 384.732 384.732 430 328.883 430C273.033 430 227.85 384.732 227.85 328.883Z" fill="#F1543F"/>
<path d="M255.9 328.883C255.9 288.57 288.654 255.816 328.967 255.816C369.279 255.816 402.033 288.57 402.033 328.883C402.033 369.279 369.279 401.949 328.967 401.949C288.654 401.949 255.9 369.279 255.9 328.883Z" fill="#FF7058"/>
<path d="M311.498 367.768C311.498 368.607 311.078 369.447 310.322 370.203C309.566 370.959 308.643 371.295 307.719 371.295C305.535 371.295 302.176 371.295 297.725 371.379C293.273 371.463 289.998 371.463 287.73 371.463C286.051 371.463 285.211 370.707 285.211 369.279L285.295 368.523C285.967 350.887 286.303 340.137 286.303 336.441V315.781C286.303 314.521 285.967 313.85 285.379 313.85C284.455 313.85 283.027 314.102 281.18 314.689C279.332 315.277 277.904 315.529 276.896 315.529C275.469 315.529 274.713 314.689 274.713 312.926C274.713 311.33 274.713 308.979 274.629 305.871C274.545 302.764 274.545 300.328 274.545 298.732C274.545 297.809 275.133 297.137 276.309 296.633C283.111 293.777 288.486 289.998 292.35 285.295C293.105 284.287 293.777 283.867 294.365 283.867C294.449 283.867 294.701 283.951 295.205 284.035C296.969 284.371 299.572 284.959 303.016 285.799C304.863 286.051 307.551 286.471 311.162 287.059C311.834 287.227 312.17 287.73 312.17 288.57C312.17 288.822 312.086 289.326 312.002 289.998C311.498 294.029 311.246 304.023 311.246 319.896C311.246 325.187 311.246 333.25 311.33 343.916C311.414 354.498 311.498 362.477 311.498 367.768Z" fill="white"/>
<path d="M387.924 342.32C387.924 362.98 375.158 373.311 349.711 373.311C346.016 373.311 341.061 372.891 334.846 372.135C326.783 371.127 322.584 369.867 322.164 368.439C321.996 367.852 321.912 365.752 321.912 362.309C321.912 360.377 322.164 357.773 322.584 354.582C323.172 350.383 323.844 348.367 324.684 348.367C324.936 348.367 325.271 348.535 325.859 348.787C331.402 351.559 337.701 352.986 344.756 352.986C355.002 352.986 360.041 349.627 360.041 342.992C360.041 339.381 358.193 336.609 354.414 334.762C351.475 333.25 348.031 332.578 343.916 332.578C342.236 332.578 339.633 332.746 336.273 333.166C332.914 333.586 330.311 333.754 328.631 333.754C327.035 333.754 326.195 332.998 326.195 331.57C326.195 327.119 326.363 320.4 326.783 311.246C327.203 302.176 327.371 295.373 327.371 290.922C327.371 290.082 327.707 289.158 328.379 288.15C329.051 287.227 329.807 286.639 330.647 286.471C331.654 286.303 338.121 286.219 349.963 286.219C363.4 286.219 372.471 286.303 377.09 286.387C378.35 286.471 378.938 286.975 378.938 287.982C378.938 290.586 378.686 294.197 378.098 298.816C377.426 304.695 376.586 307.635 375.578 307.635L374.822 307.551C364.408 306.627 357.857 306.123 355.254 306.123C350.131 306.123 347.443 306.375 347.107 306.963C346.352 308.391 345.932 310.994 345.932 314.773C345.932 315.361 346.016 315.865 346.268 316.201C347.443 316.201 349.291 316.117 351.727 315.865C354.078 315.613 355.926 315.529 357.186 315.529C365.752 315.529 372.891 317.797 378.602 322.416C384.9 327.119 387.924 333.838 387.924 342.32Z" fill="white"/>
</g>
<defs>
<clipPath id="clip0_604_2">
<rect width="430" height="430" fill="white"/>
</clipPath>
</defs>
</svg>
