<svg width="199" height="42" viewBox="0 0 199 42" fill="none" xmlns="http://www.w3.org/2000/svg">
<path d="M12.365 19.6703C12.365 12.2513 13.406 10.5593 16.921 10.5593C22.127 10.5593 24.6 10.5593 28.375 10.6893L29.286 1.57832C25.8307 0.507847 22.2301 -0.0191082 18.613 0.0163232C17.571 8.47632 10.8 14.9843 2.473 14.9843C1.73295 15.0059 0.992429 14.9624 0.26 14.8543C0.13 16.5463 0 18.3683 0 20.4513C0 22.5343 0.13 24.4863 0.26 26.3083C3.4365 22.8009 7.69981 20.463 12.365 19.6703Z" fill="#ED6D1D"/>
<path d="M18.612 0.0163574H16.92C6.24701 0.0163574 1.30101 4.05136 0.26001 14.8544C0.99203 14.9664 1.73291 15.0099 2.47301 14.9844C10.803 15.1144 17.573 8.47636 18.613 0.0163574H18.612Z" fill="#E8481D"/>
<path d="M0.651001 28.5214C2.213 37.5024 7.159 41.0214 17.051 41.0214C22.908 41.0214 26.422 40.5004 30.197 39.0694L29.416 31.1294C25.5813 33.2128 21.28 34.2878 16.916 34.2534C10.9891 34.3141 5.23029 32.2846 0.651001 28.5214Z" fill="#2B8836"/>
<path d="M17.051 30.4704C13.407 30.4704 12.495 28.5184 12.495 20.4484V19.6704C7.80096 20.3781 3.51112 22.7308 0.390991 26.3084C0.520991 27.0894 0.520991 27.7404 0.650991 28.5214C5.23229 32.284 10.993 34.3117 16.921 34.2484C21.2811 34.2502 25.5744 33.1772 29.421 31.1244L29.291 30.0834C25.2212 30.4369 21.135 30.5661 17.051 30.4704Z" fill="#7ABA48"/>
<path d="M37.616 9.9083C37.616 6.9143 38.397 4.4413 40.089 2.7493C40.9977 1.81905 42.0949 1.09391 43.3068 0.622542C44.5188 0.151169 45.8176 -0.0555339 47.116 0.0163032C48.3892 -0.06396 49.6636 0.152912 50.8385 0.649788C52.0134 1.14666 53.0568 1.90993 53.886 2.8793C55.448 4.7013 56.099 7.0443 56.099 10.0383V29.9533C56.2205 32.6861 55.4432 35.3833 53.886 37.6323C52.324 39.7153 49.986 40.6263 46.857 40.6263C40.74 40.6263 37.616 36.9823 37.616 29.8263V9.9083ZM49.981 31.2543V9.5163C49.981 6.7833 48.94 5.4813 46.857 5.4813C44.774 5.4813 43.733 6.7813 43.733 9.5163V31.2543C43.733 33.9873 44.774 35.2893 46.857 35.2893C48.94 35.2893 49.981 33.8573 49.981 31.2543ZM61.565 40.7543V0.0163032H66.902L74.581 24.3563C74.841 25.2676 75.2314 26.701 75.752 28.6563C75.4438 26.846 75.2265 25.0214 75.101 23.1893V0.0163032H80.701V40.7563H75.101L67.816 18.2383V18.1083L67.686 17.7183C67.165 16.1563 66.775 14.7243 66.515 13.6833C66.905 16.6773 67.166 18.4993 67.166 19.2833V40.6263L61.566 40.7563L61.565 40.7543ZM86.816 40.7543V0.0163032H102.435V5.8733H92.803V16.5463H99.703V22.4033H92.803V34.6383H102.435V40.7563L86.816 40.7543ZM106.34 29.9543V9.9083C106.34 6.9143 107.121 4.4413 108.813 2.7493C109.722 1.81892 110.819 1.09371 112.031 0.62233C113.243 0.150953 114.542 -0.0556788 115.841 0.0163032C117.114 -0.0636439 118.388 0.153382 119.562 0.650248C120.737 1.14711 121.78 1.91021 122.609 2.8793C124.171 4.7013 124.822 7.0443 124.822 10.0383V13.8163H118.705V9.5163C118.705 6.7833 117.664 5.4813 115.581 5.4813C113.498 5.4813 112.457 6.7813 112.457 9.5163V31.3843C112.457 34.1173 113.498 35.4193 115.581 35.4193C117.664 35.4193 118.705 34.1193 118.705 31.3843V26.0483H124.822V30.0833C124.964 32.8184 124.184 35.522 122.609 37.7623C121.047 39.8453 118.709 40.7563 115.58 40.7563C109.463 40.7563 106.339 37.2423 106.339 29.9563L106.34 29.9543ZM126.64 6.0053V0.146303H145.123V6.0033H138.875V40.8863H132.888V6.0033H126.64V6.0053ZM147.86 40.7563V0.0163032H153.977V40.7563H147.86ZM158.533 40.7563V34.5083L169.333 6.2643H159.441V0.0163032H175.841V5.8733L164.916 34.5083H175.849V40.7563H158.533ZM178.057 40.7563L184.435 0.0163032H192.245L198.623 40.7563H192.375L191.204 31.9053H185.086L183.786 40.7563H178.059H178.057ZM185.997 26.1783H190.553L188.47 9.1273H188.08L185.997 26.1783Z" fill="white"/>
</svg>
