<svg width="62" height="65" viewBox="0 0 62 65" fill="none" xmlns="http://www.w3.org/2000/svg">
<path d="M30.9691 49.4715C30.9691 41.421 37.4953 34.8947 45.5458 34.8947C49.8043 34.8947 53.6358 36.7211 56.301 39.633V21.3496H0.9515V56.3715H32.7031C31.5971 54.3173 30.9691 51.9678 30.9691 49.4715Z" fill="white"/>
<path d="M32.7469 42.49V34.8945H24.5053V43.136H32.4142C32.5199 42.9175 32.631 42.7022 32.7469 42.49Z" fill="#E1FDA0"/>
<path d="M12.7386 2.68585V9.98043H7.00089V2.68585L8.2905 0.951904H11.449L12.7386 2.68585Z" fill="#D5F6EA"/>
<path d="M12.7386 2.68585V9.98043H7.00089V2.68585L8.2905 0.951904H11.449L12.7386 2.68585Z" fill="#D5F6EA"/>
<path d="M25.2429 2.68585V9.98043H19.5052V2.68585L20.7948 0.951904H23.9533L25.2429 2.68585Z" fill="#D5F6EA"/>
<path d="M37.7471 2.68585V9.98043H32.0095V2.68585L33.2991 0.951904H36.4575L37.7471 2.68585Z" fill="#D5F6EA"/>
<path d="M50.2514 2.68585V9.98043H44.5138V2.68585L45.8035 0.951904H48.9618L50.2514 2.68585Z" fill="#D5F6EA"/>
<path d="M56.301 5.24731V21.3498H0.9515V5.24731H7.00089V9.98045H12.7386V5.24731H19.5052V9.98045H25.2429V5.24731H32.0095V9.98045H37.7471V5.24731H44.5137V9.98045H50.2514V5.24731H56.301Z" fill="#FF6A47"/>
<path d="M8.02245 26.6531H16.264V34.8946H8.02245V26.6531Z" fill="#E1FDA0"/>
<path d="M8.02245 34.8945H16.264V43.136H8.02245V34.8945Z" fill="#E1FDA0"/>
<path d="M8.02245 43.1362H16.264V51.3777H8.02245V43.1362Z" fill="#E1FDA0"/>
<path d="M16.264 26.6531H24.5055V34.8946H16.264V26.6531Z" fill="#E1FDA0"/>
<path d="M16.264 34.8945H24.5055V43.136H16.264V34.8945Z" fill="#FF6A47"/>
<path d="M16.264 43.1362H24.5055V51.3777H16.264V43.1362Z" fill="#E1FDA0"/>
<path d="M24.5055 26.6531H32.747V34.8946H24.5055V26.6531Z" fill="#E1FDA0"/>
<path d="M32.7469 26.6531H40.9884V34.8946H32.7469V26.6531Z" fill="#FF6A47"/>
<path d="M40.9884 26.6531H49.2299V34.8946H40.9884V26.6531Z" fill="#E1FDA0"/>
<path d="M45.5458 64.048C53.5963 64.048 60.1226 57.5217 60.1226 49.4712C60.1226 41.4207 53.5963 34.8945 45.5458 34.8945C37.4953 34.8945 30.9691 41.4207 30.9691 49.4712C30.9691 57.5217 37.4953 64.048 45.5458 64.048Z" fill="#FEE95D"/>
<path d="M32.4143 43.1362H24.5055V51.3777H31.0932C30.7339 48.6278 31.1467 45.759 32.4143 43.1362Z" fill="#FF6A47"/>
<path d="M40.9884 35.6221V34.8945H32.7469V42.49C34.5075 39.2691 37.4486 36.7864 40.9884 35.6221Z" fill="#E1FDA0"/>
<path d="M46.8163 34.95C50.5626 35.2737 53.9037 37.0137 56.301 39.6328V37.4304C53.5452 35.5459 50.224 34.6565 46.8163 34.95Z" fill="#A7EED4"/>
<path d="M0.9515 21.3496H3.48985V56.3715H0.9515V21.3496Z" fill="#A7EED4"/>
<path d="M24.5055 34.8945H27.0438V43.136H24.5055V34.8945Z" fill="#8AE897"/>
<path d="M9.53924 2.68585L10.8288 0.951904H8.2905L7.00089 2.68585V9.98043H9.53924V2.68585Z" fill="#A7EED4"/>
<path d="M23.3331 0.951904H20.7948L19.5052 2.68585V9.98043H22.0435V2.68585L23.3331 0.951904Z" fill="#A7EED4"/>
<path d="M35.8374 0.951904H33.2991L32.0095 2.68585V9.98043H34.5478V2.68585L35.8374 0.951904Z" fill="#A7EED4"/>
<path d="M48.3418 0.951904H45.8035L44.5138 2.68585V9.98043H47.0521V2.68585L48.3418 0.951904Z" fill="#A7EED4"/>
<path d="M37.7471 5.24731H40.2855V9.98045H37.7471V5.24731Z" fill="#D03582"/>
<path d="M50.2514 5.24731H52.7898V9.98045H50.2514V5.24731Z" fill="#D03582"/>
<path d="M0.9515 5.24731H3.48985V21.3498H0.9515V5.24731Z" fill="#D03582"/>
<path d="M12.7386 5.24731H15.2769V9.98045H12.7386V5.24731Z" fill="#D03582"/>
<path d="M25.2429 5.24731H27.7812V9.98045H25.2429V5.24731Z" fill="#D03582"/>
<path d="M8.02245 26.6531H10.5608V34.8946H8.02245V26.6531Z" fill="#8AE897"/>
<path d="M8.02245 34.8945H10.5608V43.136H8.02245V34.8945Z" fill="#8AE897"/>
<path d="M8.02245 43.1362H10.5608V51.3777H8.02245V43.1362Z" fill="#8AE897"/>
<path d="M16.264 26.6531H18.8023V34.8946H16.264V26.6531Z" fill="#8AE897"/>
<path d="M16.264 34.8945H18.8023V43.136H16.264V34.8945Z" fill="#D03582"/>
<path d="M16.264 43.1362H18.8023V51.3777H16.264V43.1362Z" fill="#8AE897"/>
<path d="M24.5055 26.6531H27.0438V34.8946H24.5055V26.6531Z" fill="#8AE897"/>
<path d="M32.7469 26.6531H35.2852V34.8946H32.7469V26.6531Z" fill="#D03582"/>
<path d="M40.9884 26.6531H43.5267V34.8946H40.9884V26.6531Z" fill="#8AE897"/>
<path d="M33.5075 49.4714C33.5075 41.8486 39.359 35.5936 46.815 34.9503C38.2416 34.2104 30.9691 40.966 30.9691 49.4714C30.9691 57.9748 38.2393 64.7324 46.815 63.9925C39.359 63.3492 33.5075 57.0942 33.5075 49.4714Z" fill="#FFC277"/>
<path d="M24.5055 43.1362H27.0438V51.3777H24.5055V43.1362Z" fill="#D03582"/>
<path d="M35.2852 34.8945H32.7469V42.49C33.4275 41.2447 34.2852 40.1105 35.2852 39.1195V34.8945Z" fill="#8AE897"/>
<path d="M50.1818 31.4594V25.7012H7.07057V52.3295L27.2606 52.3297V50.426H25.4574C25.4574 49.6328 25.4574 44.8804 25.4574 44.0878H28.2861V42.1841H25.4574V35.8471L33.6989 35.8464L33.6991 27.6049H40.0362V31.6599H41.94V27.6049H48.2781V31.4594H50.1818ZM17.2158 35.8463H23.5533V42.1841H17.2158V35.8463ZM25.4574 27.6049H31.7951V33.9427H25.4574V27.6049ZM17.2158 27.6049H23.5536V33.9427H17.2158V27.6049ZM8.97433 27.6049H15.3122V33.9427H8.97433V27.6049ZM8.97433 35.8463H15.3122V42.1841H8.97433V35.8463ZM15.3121 50.4257H8.97433V44.0878H15.3122L15.3121 50.4257ZM17.2158 50.4257V44.0878H23.5533V50.4257H17.2158Z" fill="black"/>
<path d="M45.5455 33.9434C36.9831 33.9434 30.0171 40.9094 30.0171 49.4717C30.0171 53.3751 31.4716 57.106 34.1127 59.9776L35.514 58.6888C33.1969 56.1696 31.9209 52.8963 31.9209 49.4717C31.9209 41.9592 38.0328 35.8471 45.5455 35.8471C53.0581 35.8471 59.1702 41.9591 59.1702 49.4717C59.1702 56.9843 53.0582 63.0963 45.5455 63.0963C42.3506 63.0963 39.2454 61.9677 36.802 59.9187L35.5786 61.3775C38.3643 63.7135 41.9039 65 45.5453 65C54.1077 65 61.0738 58.0341 61.0738 49.4717C61.0738 40.9094 54.1078 33.9434 45.5455 33.9434Z" fill="black"/>
<path d="M44.5342 38.9604V51.3572H53.4377V49.4535H46.4379V38.9604H44.5342Z" fill="black"/>
<path d="M1.90376 22.3012H7.07057V20.3974H1.90376V6.19915H6.04888V10.9319L6.04901 10.9323H13.6905V10.9319L13.6906 6.19915H18.5528V10.9319H18.5534V10.9323H26.1947V6.19915H31.0577V10.9323H38.699V10.9319H38.6997V6.19915H43.5619V10.9319H43.562V10.9323H51.2034V10.9319H51.2036V6.19915H55.3487V20.3974H8.97433V22.3012H55.3487V34.5703H57.2524V4.29539H51.2034V2.37069L49.4402 0H45.3251L43.5619 2.37069V4.29539H38.699V2.37069L36.9358 0H32.8208L31.0576 2.37069V4.29539H26.1946V2.37069L24.4315 0H20.3166L18.5533 2.37069V4.29539H13.6905V2.37069L11.9272 0H7.81228L6.04901 2.37069V4.29539H0V57.3229H28.5044V55.4191H1.90376V22.3012ZM46.2817 1.90376H48.4836L49.2997 3.00109V9.02814H45.4658V3.00109L46.2817 1.90376ZM32.9615 3.00109L33.7775 1.90376H35.9793L36.7954 3.00109V9.02814H32.9618V4.29539H32.9616V3.00109H32.9615ZM21.2731 1.90376H23.4749L24.291 3.00109V4.29539H24.2907V9.02814H20.4572V3.00109L21.2731 1.90376ZM8.76885 1.90376H10.9707L11.7868 3.00109V9.02814H7.95277V3.00109L8.76885 1.90376Z" fill="black"/>
<path d="M35.2259 17.2692H33.3222V15.3655H35.2259V17.2692ZM29.5146 17.2692H27.6109V15.3655H29.5146V17.2692ZM23.8034 17.2692H21.8996V15.3655H23.8034V17.2692Z" fill="white"/>
<path d="M34.5407 49.4534H36.4445V51.3571H34.5407V49.4534Z" fill="black"/>
<path d="M44.6069 58.6731H46.5107V60.5769H44.6069V58.6731Z" fill="black"/>
</svg>
