<svg width="40" height="29" viewBox="0 0 40 29" fill="none" xmlns="http://www.w3.org/2000/svg">
<path d="M40 2.67493V2.51792C39.9817 1.86866 39.7205 1.24988 39.268 0.78391L39.216 0.731908C39.2091 0.732044 39.2023 0.730811 39.1959 0.728246C39.1896 0.72568 39.1838 0.721841 39.1789 0.716985C39.1741 0.712129 39.1702 0.706357 39.1677 0.699986C39.1651 0.693616 39.1639 0.686772 39.164 0.679906C39.064 0.579906 38.955 0.522919 38.85 0.418919C38.798 0.418919 38.798 0.366917 38.75 0.366917C38.65 0.314917 38.489 0.266905 38.384 0.209905C38.332 0.209905 38.332 0.157933 38.284 0.157933C38.1333 0.0998846 37.9743 0.0661251 37.813 0.057927H37.713C37.556 0.057927 37.347 0.00592501 37.138 0.00592501H2.832C2.61868 -0.00240345 2.40513 0.0150582 2.196 0.057927C2.16761 0.0543473 2.13878 0.0571392 2.11162 0.0661362C2.08445 0.0751332 2.05964 0.0901097 2.039 0.109929C1.882 0.161929 1.725 0.161905 1.621 0.209905C1.569 0.209905 1.569 0.261906 1.521 0.261906C1.421 0.313906 1.26 0.361919 1.155 0.418919L1.103 0.470921C1.003 0.522921 0.894001 0.627906 0.789001 0.679906L0.632004 0.836919C0.277435 1.232 0.0578342 1.72969 0.00500488 2.25791V25.8219C0.0448034 26.163 0.153306 26.4926 0.323975 26.7906C0.494643 27.0886 0.723933 27.3489 0.998001 27.5559C1.51031 27.9005 2.11458 28.0828 2.732 28.0789H37.259C37.4349 28.0876 37.6112 28.07 37.782 28.0269H37.882C38.039 27.9749 38.196 27.9749 38.3 27.9269H38.352C38.84 27.7583 39.2613 27.4382 39.5545 27.0133C39.8477 26.5884 39.9975 26.0809 39.982 25.5649V2.72791C39.999 2.72791 39.999 2.72791 39.999 2.67591L40 2.67493ZM36.636 1.94291L20.1 18.0569L16.318 14.3789L3.355 1.93491L36.636 1.94391V1.94291ZM1.943 25.0889V3.25892L14.17 15.0149L1.943 25.0889ZM19.581 26.1889H3.669L15.591 16.4289L19.417 20.1589C19.5492 20.2847 19.7113 20.3745 19.888 20.4199H20.2C20.3812 20.3863 20.5465 20.2947 20.671 20.1589L24.296 16.6379L36.261 26.1889H19.581ZM38.047 25.1429L25.768 15.2259L38.047 3.26093V25.1429Z" fill="white"/>
</svg>
