<svg width="86" height="65" viewBox="0 0 86 65" fill="none" xmlns="http://www.w3.org/2000/svg">
<path d="M85.1434 13.2385L86 14.7841V59.6407C86 62.5975 83.598 65 80.6418 65H5.3582C2.40195 65 0 62.5975 0 59.6407V14.7841L0.856644 13.2385H85.1434Z" fill="#736E6E"/>
<path d="M53.6996 42.9076C54.0859 42.9076 54.4555 42.7396 54.7074 42.4372L62.518 32.9787C62.9211 32.4915 62.9211 31.8027 62.518 31.3323L54.7074 21.8738C54.2539 21.3193 53.4309 21.2353 52.8766 21.7058C52.3223 22.1594 52.2383 22.9826 52.7086 23.537L59.8305 32.1555L52.7086 40.774C52.2551 41.3284 52.3223 42.1516 52.8766 42.6052C53.1117 42.79 53.3973 42.9076 53.6996 42.9076ZM32.2668 42.9076C32.9891 42.9076 33.5602 42.3196 33.5602 41.614C33.5602 41.3116 33.4594 41.026 33.2578 40.7908L26.1359 32.1723L33.2578 23.5202C33.7113 22.9658 33.6105 22.1426 33.0562 21.689C32.502 21.2521 31.7125 21.3193 31.259 21.857L23.4484 31.3155C23.0453 31.8027 23.0453 32.4915 23.4484 32.9619L31.259 42.4204C31.5109 42.7228 31.8805 42.9076 32.2668 42.9076ZM47.468 42.9076C48.1902 42.9076 48.7613 42.3196 48.7613 41.614C48.7613 41.4292 48.7109 41.2276 48.6438 41.0596L39.7414 22.1594C39.4391 21.5041 38.6664 21.2353 38.0113 21.5377C37.3562 21.8402 37.0875 22.613 37.3898 23.2682L46.2922 42.1684C46.4938 42.6052 46.9641 42.9076 47.468 42.9076Z" fill="#DDEAFB"/>
<path d="M8.76797 13.2385V50.871C8.76797 53.8278 11.1699 56.2303 14.1262 56.2303H86V59.6407C86 62.5975 83.598 65 80.6418 65H5.3582C2.40195 65 0 62.5975 0 59.6407V14.7841L0.856644 13.2385H8.76797Z" fill="#595454"/>
<path d="M5.3582 0H80.6418C83.598 0 86 2.40243 86 5.35927V14.7842H0V5.35927C0 2.40243 2.40195 0 5.3582 0Z" fill="#698ED5"/>
<path d="M5.35821 0H8.76797V14.7842H3.8147e-06V5.35927C3.8147e-06 2.40243 2.40196 0 5.35821 0Z" fill="#4073C8"/>
<path d="M76.2914 9.79461C74.9648 9.79461 73.8895 8.719 73.8895 7.39218C73.8895 6.06535 74.9648 4.98975 76.2914 4.98975C77.618 4.98975 78.6934 6.06535 78.6934 7.39218C78.6934 8.719 77.618 9.79461 76.2914 9.79461Z" fill="#DD636E"/>
<path d="M68.9008 9.79461C67.5742 9.79461 66.4988 8.719 66.4988 7.39218C66.4988 6.06535 67.5742 4.98975 68.9008 4.98975C70.2273 4.98975 71.3027 6.06535 71.3027 7.39218C71.3027 8.719 70.2273 9.79461 68.9008 9.79461Z" fill="#FFE07D"/>
<path d="M61.5102 9.79461C60.1836 9.79461 59.1082 8.719 59.1082 7.39218C59.1082 6.06535 60.1836 4.98975 61.5102 4.98975C62.8367 4.98975 63.9121 6.06535 63.9121 7.39218C63.9121 8.719 62.8367 9.79461 61.5102 9.79461Z" fill="#86F1A7"/>
<path d="M71.202 52.9376H76.9633C77.6856 52.9376 78.2567 52.3496 78.2567 51.644C78.2567 50.9215 77.6688 50.3503 76.9633 50.3503H71.1852C70.4629 50.3503 69.8918 50.9383 69.8918 51.644C69.8918 52.3496 70.4797 52.9376 71.202 52.9376Z" fill="#FB74C4"/>
<path d="M56.152 52.9376H65.3902C66.1125 52.9376 66.6836 52.3496 66.6836 51.644C66.6836 50.9215 66.0957 50.3503 65.3902 50.3503H56.152C55.4297 50.3503 54.8586 50.9383 54.8586 51.644C54.8586 52.3496 55.4465 52.9376 56.152 52.9376Z" fill="#DDEAFB"/>
<path d="M27.3453 52.9376H39.9094C40.6317 52.9376 41.2028 52.3496 41.2028 51.644C41.2028 50.9215 40.6149 50.3503 39.9094 50.3503H27.3453C26.6231 50.3503 26.052 50.9383 26.052 51.644C26.052 52.3496 26.6231 52.9376 27.3453 52.9376Z" fill="#FFE07D"/>
<path d="M46.141 52.9376H49.9371C50.6594 52.9376 51.2305 52.3496 51.2305 51.644C51.2305 50.9215 50.6426 50.3503 49.9371 50.3503H46.141C45.4187 50.3503 44.8477 50.9383 44.8477 51.644C44.8477 52.3664 45.4355 52.9376 46.141 52.9376Z" fill="#FB74C4"/>
<path d="M63.341 59.2376H69.1191C69.8414 59.2376 70.4125 58.6496 70.4125 57.944C70.4125 57.2216 69.8246 56.6504 69.1191 56.6504H63.341C62.6188 56.6504 62.0477 57.2384 62.0477 57.944C62.0477 58.6496 62.6188 59.2376 63.341 59.2376Z" fill="#BED8FB"/>
<path d="M48.8789 59.2376H57.5461C58.2684 59.2376 58.8395 58.6496 58.8395 57.944C58.8395 57.2216 58.2516 56.6504 57.5461 56.6504H48.8789C48.1567 56.6504 47.5856 57.2384 47.5856 57.944C47.5856 58.6496 48.1567 59.2376 48.8789 59.2376Z" fill="#DDEAFB"/>
<path d="M38.7 59.2376H42.6473C43.3695 59.2376 43.9406 58.6496 43.9406 57.944C43.9406 57.2216 43.3528 56.6504 42.6473 56.6504H38.7C37.9778 56.6504 37.4067 57.2384 37.4067 57.944C37.4067 58.6496 37.9945 59.2376 38.7 59.2376ZM9.759 59.2376H13.6727C14.3949 59.2376 14.966 58.6496 14.966 57.944C14.966 57.2216 14.3781 56.6504 13.6727 56.6504H9.759C9.03674 56.6504 8.46564 57.2384 8.46564 57.944C8.46564 58.6496 9.05354 59.2376 9.759 59.2376Z" fill="#FB74C4"/>
<path d="M19.7867 59.2376H32.5188C33.241 59.2376 33.8121 58.6496 33.8121 57.944C33.8121 57.2216 33.2242 56.6504 32.5188 56.6504H19.7867C19.0645 56.6504 18.4934 57.2384 18.4934 57.944C18.4934 58.6496 19.0645 59.2376 19.7867 59.2376Z" fill="#FFE07D"/>
</svg>
