<svg width="262" height="52" viewBox="0 0 262 52" fill="none" xmlns="http://www.w3.org/2000/svg">
<path d="M27.9804 0.100478L15.8286 5.08804C15.5099 5.21207 15.2368 5.43087 15.0463 5.71495C14.8559 5.99904 14.7571 6.33468 14.7634 6.67666V20.2877L24.3783 16.427C25.8782 15.8543 27.165 14.8332 28.0636 13.5027C28.9622 12.1722 29.4287 10.5971 29.3997 8.99188V1.06721C29.4136 0.893345 29.3813 0.718897 29.3061 0.561574C29.2308 0.404251 29.1151 0.269658 28.9709 0.17147C28.8267 0.0732829 28.6593 0.0149973 28.4852 0.00252896C28.3112 -0.00993939 28.1371 0.0238504 27.9804 0.100478Z" fill="#78DE1F"/>
<path d="M0.000529718 27.4431V34.7735C0.000529718 44.7641 7.23863 51.9992 17.2414 51.9992H28.0756C28.2525 52.0051 28.4291 51.9748 28.5938 51.9098C28.7588 51.8447 28.9085 51.7465 29.0337 51.6211C29.159 51.4958 29.2572 51.3461 29.3222 51.1814C29.3872 51.0164 29.4178 50.8401 29.4117 50.6629V38.6281C29.4178 38.451 29.3872 38.2744 29.3222 38.1095C29.2572 37.9445 29.1592 37.7946 29.0339 37.6689C28.9087 37.5434 28.759 37.445 28.594 37.3796C28.4293 37.3141 28.2528 37.2833 28.0756 37.289H16.9951C16.6991 37.2997 16.4041 37.2493 16.1284 37.1411C15.8527 37.0326 15.6023 36.8685 15.3929 36.659C15.1834 36.4498 15.0194 36.1993 14.911 35.9237C14.8027 35.6479 14.7523 35.3529 14.763 35.057V20.2789L1.07192 25.8515C0.750232 25.9728 0.474263 26.1912 0.282284 26.4764C0.0903056 26.7616 -0.00816256 27.0994 0.000529718 27.4431Z" fill="black"/>
<path d="M88.699 12.0919C79.4413 12.0919 72.311 19.287 72.311 28.357C72.311 37.427 79.4413 44.6188 88.699 44.6188C97.9568 44.6188 105.087 37.427 105.087 28.357C105.087 19.287 97.9568 12.0919 88.699 12.0919ZM88.699 38.2396C83.1327 38.2396 79.2534 33.9293 79.2534 28.357C79.2534 22.7844 83.1327 18.4742 88.699 18.4742C94.2039 18.4742 98.0799 22.7844 98.0799 28.357C98.0799 33.9293 94.2039 38.2396 88.699 38.2396Z" fill="black"/>
<path d="M137.924 35.7367L132.795 32.9843C132.735 32.9489 132.667 32.9273 132.598 32.921C132.528 32.9146 132.458 32.9236 132.393 32.9474C132.327 32.9714 132.268 33.0093 132.219 33.0587C132.17 33.1082 132.132 33.168 132.108 33.2337C131.324 34.757 130.13 36.0322 128.662 36.9161C127.194 37.8003 125.509 38.2585 123.796 38.2396C118.226 38.2396 114.286 33.9293 114.286 28.357C114.286 22.7844 118.226 18.4742 123.796 18.4742C125.509 18.4529 127.195 18.9097 128.663 19.7935C130.132 20.6772 131.325 21.9528 132.108 23.4772C132.131 23.5431 132.169 23.6033 132.218 23.6531C132.267 23.7028 132.327 23.741 132.392 23.765C132.458 23.7888 132.528 23.7977 132.598 23.7912C132.667 23.7844 132.735 23.7624 132.795 23.7264L137.924 20.9741C137.986 20.9465 138.042 20.9055 138.086 20.8538C138.131 20.8022 138.163 20.7412 138.181 20.6755C138.199 20.6097 138.202 20.5408 138.19 20.4737C138.178 20.4066 138.151 20.343 138.112 20.2875C135.36 15.2815 130.107 12.0919 123.79 12.0919C114.406 12.0919 107.275 19.0991 107.275 28.357C107.275 37.6146 114.406 44.6188 123.79 44.6188C130.107 44.6188 135.424 41.4293 138.177 36.3617C138.224 36.2451 138.224 36.1147 138.177 35.9979C138.13 35.8812 138.039 35.7873 137.924 35.7367Z" fill="black"/>
<path d="M71.4969 37.7383H55.4874V13.2191C55.4783 13.0891 55.4224 12.9668 55.3301 12.8746C55.238 12.7824 55.1156 12.7266 54.9856 12.7173H49.1053C48.9755 12.7266 48.8537 12.7826 48.7621 12.8749C48.6702 12.9671 48.615 13.0894 48.6065 13.2191V38.2399C48.6065 41.8052 50.7956 43.9943 54.3606 43.9943H71.4969C71.6269 43.9855 71.7491 43.9297 71.841 43.8374C71.9326 43.7448 71.9878 43.6222 71.9957 43.4924V38.2399C71.9878 38.1101 71.9326 37.9874 71.841 37.8949C71.7491 37.8026 71.6269 37.747 71.4969 37.7383Z" fill="black"/>
<path d="M227.249 37.7374H210.837L227 18.5354C227.164 18.3431 227.251 18.0982 227.249 17.8458V13.2277C227.24 13.0974 227.186 12.9748 227.092 12.8825C227 12.7902 226.878 12.7345 226.747 12.7258H202.734C202.603 12.7345 202.48 12.7902 202.388 12.8825C202.296 12.9748 202.24 13.0974 202.232 13.2277V18.4831C202.24 18.613 202.296 18.7353 202.389 18.8271C202.481 18.9189 202.604 18.9739 202.734 18.9818H218.353L202.232 38.2487C202.07 38.4405 201.981 38.684 201.982 38.9351V43.4915C201.99 43.6216 202.045 43.7442 202.137 43.8365C202.229 43.929 202.351 43.9847 202.481 43.9934H227.254C227.382 43.9847 227.504 43.929 227.596 43.8365C227.688 43.7442 227.742 43.6216 227.751 43.4915V38.2393C227.742 38.1088 227.688 37.9857 227.596 37.8934C227.502 37.8009 227.38 37.7455 227.249 37.7374Z" fill="black"/>
<path d="M196.85 1.52271H190.97C190.84 1.53136 190.718 1.58668 190.627 1.67841C190.535 1.77013 190.479 1.89203 190.471 2.02145V8.02806C190.479 8.1575 190.535 8.27939 190.627 8.37113C190.718 8.46284 190.84 8.51817 190.97 8.52684H193.22C193.767 8.54436 194.312 8.44957 194.821 8.2483C195.33 8.04702 195.792 7.74354 196.179 7.35661C196.565 6.96969 196.869 6.50753 197.07 5.99869C197.272 5.48987 197.366 4.94516 197.349 4.39825V2.02145C197.34 1.89203 197.285 1.77013 197.193 1.67841C197.101 1.58668 196.979 1.53136 196.85 1.52271Z" fill="black"/>
<path d="M261.023 12.7169H255.143C255.014 12.7263 254.892 12.7823 254.8 12.8745C254.708 12.9667 254.654 13.089 254.645 13.2187V16.9348C252.895 14.4133 249.162 12.0919 244.636 12.0919C236.067 12.0919 229.549 19.4101 229.549 28.357C229.549 37.3037 236.056 44.6188 244.636 44.6188C249.162 44.6188 252.895 42.3004 254.645 39.779V43.492C254.654 43.6219 254.708 43.7445 254.8 43.837C254.892 43.9293 255.014 43.9849 255.143 43.9939H261.023C261.154 43.9852 261.276 43.9295 261.37 43.8372C261.462 43.7449 261.516 43.6223 261.525 43.492V13.2187C261.516 13.0887 261.46 12.9664 261.368 12.8742C261.276 12.7821 261.154 12.7262 261.023 12.7169ZM245.886 38.3628C240.385 38.3628 236.567 33.9847 236.567 28.357C236.567 22.729 240.385 18.3479 245.886 18.3479C251.387 18.3479 255.208 22.7259 255.208 28.357C255.208 33.988 251.392 38.3628 245.886 38.3628Z" fill="black"/>
<path d="M171.403 12.7169H165.523C165.393 12.7263 165.272 12.7823 165.18 12.8745C165.088 12.9667 165.033 13.089 165.024 13.2187V16.9348C163.273 14.4133 159.538 12.0919 155.015 12.0919C146.444 12.0919 139.93 19.4101 139.93 28.357C139.93 37.3037 146.435 44.6188 155.015 44.6188C159.538 44.6188 163.273 42.3004 165.024 39.779V43.492C165.032 43.6219 165.087 43.7445 165.179 43.837C165.271 43.9293 165.393 43.9849 165.523 43.9939H171.403C171.533 43.9849 171.656 43.9293 171.748 43.837C171.839 43.7445 171.894 43.6219 171.902 43.492V13.2187C171.894 13.089 171.839 12.9667 171.747 12.8745C171.655 12.7823 171.533 12.7263 171.403 12.7169ZM156.265 38.3628C150.761 38.3628 146.946 33.9847 146.946 28.357C146.946 22.729 150.761 18.3479 156.265 18.3479C161.77 18.3479 165.585 22.7259 165.585 28.357C165.585 33.988 161.758 38.3628 156.253 38.3628H156.265Z" fill="black"/>
<path d="M196.85 12.7173H190.973C190.696 12.7173 190.471 12.942 190.471 13.2191V43.4893C190.471 43.7664 190.696 43.991 190.973 43.991H196.85C197.127 43.991 197.352 43.7664 197.352 43.4893V13.2191C197.352 12.942 197.127 12.7173 196.85 12.7173Z" fill="black"/>
<path d="M184.148 1.52271H178.27C177.993 1.52271 177.768 1.74738 177.768 2.02453V43.492C177.768 43.7691 177.993 43.9939 178.27 43.9939H184.148C184.425 43.9939 184.649 43.7691 184.649 43.492V2.02453C184.649 1.74738 184.425 1.52271 184.148 1.52271Z" fill="black"/>
</svg>
