<svg width="288" height="45" viewBox="0 0 288 45" fill="none" xmlns="http://www.w3.org/2000/svg">
<path d="M83.2562 34.2639H78.3302V14.6655H83.2562V17.2639C83.9435 16.275 84.8926 15.4708 86.0105 14.9302C87.1284 14.3896 88.3768 14.131 89.6332 14.18C94.7452 14.18 97.7002 17.3512 97.7002 22.4597V34.2639H92.7752V23.3415C92.7752 20.3027 91.1802 18.4527 88.1322 18.4527C85.1772 18.4527 83.2552 20.5666 83.2552 23.9134V34.2639H83.2562ZM101.312 25.8122V14.6655H106.236V25.5427C106.236 28.6257 107.831 30.4756 110.598 30.4756C113.365 30.4756 114.96 28.6257 114.96 25.5427V14.6655H119.837V25.8085C119.837 31.4429 116.366 34.7052 110.551 34.7052C104.781 34.7456 101.311 31.4457 101.311 25.8085L101.312 25.8122ZM121.338 14.6702H126.591L132.172 28.2792L137.8 14.6702H142.912L134.329 34.2685H129.966L121.337 14.6702H121.338ZM162.797 29.6446C161.9 31.2422 160.537 32.5668 158.868 33.4637C157.198 34.3605 155.291 34.7925 153.37 34.709C147.039 34.709 142.536 30.4832 142.536 24.4478C142.485 23.1133 142.722 21.7829 143.233 20.5366C143.743 19.2903 144.517 18.1538 145.507 17.1954C146.497 16.2369 147.683 15.4763 148.994 14.9592C150.305 14.4422 151.714 14.1794 153.136 14.1865C159.236 14.1865 163.501 18.5908 163.501 24.4478C163.501 24.7999 163.501 25.2845 163.454 25.8564H147.412C147.57 27.2395 148.274 28.517 149.384 29.4379C150.494 30.3589 151.931 30.8566 153.412 30.8334C154.502 30.8602 155.577 30.5974 156.515 30.0754C157.453 29.5534 158.214 28.7934 158.712 27.8829L162.797 29.6446ZM158.623 22.5076C158.477 21.2287 157.819 20.0495 156.784 19.2077C155.748 18.3658 154.411 17.9239 153.042 17.971C151.695 17.9998 150.401 18.4681 149.382 19.2954C148.362 20.1227 147.682 21.2575 147.456 22.5048L158.623 22.5076ZM171.096 34.2639H166.172V14.6655H171.096V17.2639C171.684 16.2787 172.554 15.4676 173.607 14.9226C174.661 14.3776 175.855 14.1203 177.056 14.18C178.381 14.12 179.694 14.4368 180.823 15.0891C181.953 15.7414 182.846 16.6987 183.387 17.8358C184.084 16.6938 185.097 15.7507 186.32 15.1069C187.542 14.4631 188.927 14.1428 190.328 14.18C195.159 14.18 197.928 17.3071 197.928 22.1959V34.216H193.004V23.1218C193.004 20.2595 191.597 18.4537 189.018 18.4537C186.345 18.4537 184.61 20.4792 184.563 23.6946V34.2639H179.639V23.2542C179.639 20.2154 178.232 18.4095 175.653 18.4095C172.933 18.4095 171.198 20.4755 171.198 23.827V34.2639H171.096ZM203.878 27.7899C204.155 28.635 204.707 29.3777 205.455 29.9146C206.203 30.4514 207.111 30.7556 208.052 30.7846C209.6 30.7846 210.866 30.1272 210.866 28.759C210.866 27.6584 210.166 27.1297 208.474 26.6452L205.941 25.8939C202.424 24.8365 200.641 22.9434 200.641 20.2126C200.641 16.5568 203.924 14.2232 207.817 14.2232C209.408 14.1896 210.974 14.5927 212.324 15.3828C213.674 16.173 214.749 17.316 215.417 18.6715L211.476 20.6595C210.676 19.1185 209.412 18.0611 207.865 18.0611C206.458 18.0611 205.332 18.7185 205.332 19.867C205.332 20.792 206.082 21.4963 207.677 21.9808L210.163 22.7321C214.056 23.9651 215.65 25.8592 215.65 28.4604C215.65 32.4683 212.086 34.7587 208.005 34.7587C206.272 34.8405 204.556 34.4023 203.106 33.5076C201.656 32.6128 200.546 31.3079 199.938 29.7817L203.878 27.7899ZM223.056 34.2639H218.136V7.35481H223.056V17.2639C223.744 16.275 224.693 15.471 225.811 14.9305C226.929 14.39 228.178 14.1317 229.434 14.1809C234.546 14.1809 237.501 17.3521 237.501 22.4607V34.2639H232.577V23.3415C232.577 20.3027 230.982 18.4527 227.934 18.4527C224.979 18.4527 223.057 20.5666 223.057 23.9134V34.2639H223.056ZM262.31 24.4431C262.348 26.5153 261.727 28.551 260.528 30.291C259.329 32.031 257.606 33.3965 255.578 34.2136C253.55 35.0307 251.308 35.2624 249.139 34.8792C246.97 34.4961 244.972 33.5153 243.399 32.0619C241.825 30.6085 240.748 28.7483 240.305 26.7181C239.861 24.6879 240.071 22.5796 240.908 20.6618C241.744 18.744 243.17 17.1035 245.003 15.9492C246.836 14.7948 248.993 14.179 251.2 14.18C252.655 14.1409 254.104 14.3784 255.459 14.8781C256.814 15.3778 258.048 16.1295 259.086 17.088C260.124 18.0465 260.945 19.1921 261.5 20.456C262.055 21.7199 262.332 23.076 262.315 24.4431H262.31ZM245.004 24.4431C244.972 25.2251 245.109 26.0052 245.406 26.7365C245.703 27.4678 246.154 28.1354 246.731 28.6992C247.309 29.2631 248.003 29.7116 248.77 30.018C249.536 30.3244 250.361 30.4823 251.195 30.4823C252.028 30.4823 252.853 30.3244 253.62 30.018C254.387 29.7116 255.08 29.2631 255.658 28.6992C256.236 28.1354 256.687 27.4678 256.984 26.7365C257.28 26.0052 257.417 25.2251 257.385 24.4431C257.417 23.661 257.28 22.881 256.984 22.1496C256.687 21.4183 256.236 20.7507 255.658 20.1869C255.08 19.623 254.387 19.1745 253.62 18.8681C252.853 18.5617 252.028 18.4038 251.195 18.4038C250.361 18.4038 249.536 18.5617 248.77 18.8681C248.003 19.1745 247.309 19.623 246.731 20.1869C246.154 20.7507 245.703 21.4183 245.406 22.1496C245.109 22.881 244.972 23.661 245.004 24.4431ZM270.056 14.6655V17.4827C270.877 16.4509 271.947 15.6172 273.178 15.0504C274.41 14.4837 275.767 14.2001 277.138 14.2232C282.907 14.2232 287.315 18.6274 287.315 24.4844C287.315 30.254 282.907 34.7456 277.138 34.7456C275.773 34.7945 274.415 34.5314 273.181 33.9791C271.948 33.4267 270.875 32.6015 270.056 31.5744V41.5754H265.176V14.6655H270.056ZM276.106 18.4086C275.27 18.4183 274.444 18.5838 273.677 18.8954C272.91 19.2069 272.216 19.6585 271.635 20.2238C271.055 20.7892 270.6 21.457 270.297 22.1887C269.993 22.9204 269.848 23.7013 269.868 24.4863C269.836 25.2742 269.974 26.0601 270.273 26.7968C270.572 27.5336 271.027 28.2061 271.609 28.7742C272.191 29.3422 272.89 29.7941 273.662 30.1027C274.435 30.4114 275.266 30.5705 276.106 30.5705C276.945 30.5705 277.776 30.4114 278.549 30.1027C279.322 29.7941 280.02 29.3422 280.602 28.7742C281.185 28.2061 281.639 27.5336 281.938 26.7968C282.237 26.0601 282.375 25.2742 282.343 24.4863C282.368 23.6999 282.225 22.9169 281.924 22.1831C281.622 21.4492 281.167 20.7794 280.586 20.213C280.004 19.6466 279.308 19.1949 278.539 18.8846C277.769 18.5742 276.941 18.4114 276.103 18.4058L276.106 18.4086ZM41.7492 1.47241e-05H41.7022C35.5988 -0.00663533 29.7371 2.23955 25.3812 6.25422C22.6069 5.14677 19.5837 4.70214 16.5817 4.96008C13.5797 5.21801 10.6926 6.17046 8.1784 7.7323C5.66421 9.29413 3.60132 11.4167 2.17415 13.9102C0.746975 16.4036 0 19.1904 0 22.0212C0 24.852 0.746975 27.6388 2.17415 30.1322C3.60132 32.6257 5.66421 34.7483 8.1784 36.3101C10.6926 37.8719 13.5797 38.8244 16.5817 39.0823C19.5837 39.3403 22.6069 38.8956 25.3812 37.7882C28.1336 40.3004 31.5011 42.1394 35.1875 43.1433C38.874 44.1473 42.7667 44.2855 46.5233 43.546C50.28 42.8064 53.7858 41.2116 56.7325 38.9018C59.6792 36.592 61.9766 33.6378 63.4228 30.299C64.869 26.9601 65.4198 23.3388 65.0267 19.7533C64.6336 16.1677 63.3087 12.7277 61.1683 9.73566C59.028 6.74357 56.1378 4.29096 52.7518 2.5934C49.3658 0.895839 45.5875 0.0052875 41.7492 1.47241e-05ZM41.7022 39.1526C36.8673 39.1408 32.234 37.332 28.815 34.1217C25.396 30.9113 23.4694 26.5606 23.4562 22.0203H18.2562C18.2431 26.1828 19.4958 30.2624 21.8672 33.7793C20.6926 34.0942 19.4777 34.2572 18.2562 34.2639C14.7983 34.2639 11.482 32.9739 9.03693 30.6778C6.59183 28.3817 5.21819 25.2675 5.21819 22.0203C5.21819 18.7731 6.59183 15.6589 9.03693 13.3627C11.482 11.0666 14.7983 9.77667 18.2562 9.77667C21.7117 9.78312 25.0237 11.0752 27.4668 13.37C29.9099 15.6648 31.2851 18.7753 31.2912 22.0203H36.4962C36.51 19.5164 35.9326 17.0408 34.8055 14.7716C33.6785 12.5024 32.0298 10.496 29.9782 8.89676C32.225 7.12696 34.893 5.89189 37.7562 5.29623C40.6194 4.70057 43.5932 4.76188 46.4258 5.47495C49.2584 6.18802 51.8661 7.53184 54.0281 9.39252C56.19 11.2532 57.8424 13.5759 58.8453 16.1638C59.8481 18.7516 60.1718 21.5284 59.789 24.2587C59.4061 26.9891 58.328 29.5925 56.6459 31.8483C54.9639 34.1042 52.7275 35.946 50.1263 37.2177C47.5251 38.4894 44.6358 39.1534 41.7032 39.1536L41.7022 39.1526Z" fill="white"/>
</svg>
