<svg width="266" height="72" viewBox="0 0 266 72" fill="none" xmlns="http://www.w3.org/2000/svg">
<path d="M57.119 13.3839C57.0924 13.2336 57.0137 13.0957 56.895 12.9918C56.7764 12.8879 56.6245 12.8236 56.463 12.8091C56.201 12.7678 50.956 12.7275 50.956 12.7275C50.956 12.7275 46.542 8.70542 46.105 8.29504C45.8707 8.14589 45.6027 8.04971 45.3222 8.01403C45.0417 7.97835 44.7561 8.00415 44.488 8.08939C44.488 8.08939 43.658 8.33542 42.259 8.74673C41.9925 7.91014 41.6412 7.09946 41.21 6.32581C39.637 3.49452 37.364 2.01642 34.567 2.01642C34.377 2.00952 34.1867 2.02307 34 2.0568C33.9021 1.97001 33.8142 1.87368 33.738 1.76945C33.1594 1.17571 32.4478 0.709781 31.6545 0.405167C30.8612 0.100552 30.0058 -0.0351733 29.15 0.00775258C25.566 0.0875735 22.026 2.5085 19.1 6.86296C17.0819 9.84898 15.7145 13.1812 15.077 16.6668C10.969 17.8566 8.085 18.6774 8.041 18.7187C5.987 19.3347 5.9 19.3761 5.641 21.2223C5.419 22.5774 0 62.0164 0 62.0164L45.494 69.405L65.2 64.8036C65.2 64.8036 57.163 13.7125 57.119 13.3839ZM39.988 9.40314C38.939 9.6905 37.759 10.0605 36.448 10.4295C36.4378 8.34908 36.0687 6.28392 35.355 4.31433C38.109 4.8064 39.42 7.67995 39.988 9.40314ZM34.088 11.1273C31.688 11.825 29.106 12.5641 26.488 13.3435C27.1752 10.7694 28.4905 8.38073 30.33 6.36619C31.0492 5.61593 31.9272 5.01494 32.908 4.60168C33.7788 6.67656 34.1806 8.89878 34.088 11.1273ZM29.193 2.26152C29.947 2.23729 30.6919 2.42286 31.334 2.79491C30.2749 3.31239 29.3259 4.00784 28.534 4.84678C26.1095 7.48885 24.4801 10.6908 23.814 14.122C21.629 14.738 19.531 15.3531 17.565 15.9278C18.88 10.5112 23.687 2.4268 29.193 2.26152Z" fill="#95BF47"/>
<path d="M56.463 12.8102C56.201 12.7689 50.956 12.7285 50.956 12.7285C50.956 12.7285 46.542 8.70646 46.105 8.29609C46.0254 8.21907 45.9303 8.15766 45.8253 8.11542C45.7202 8.07318 45.6073 8.05096 45.493 8.05005V69.4032L65.203 64.8065C65.203 64.8065 57.162 13.753 57.118 13.384C57.0849 13.2364 57.0042 13.102 56.8868 12.9992C56.7694 12.8963 56.621 12.83 56.462 12.8093L56.463 12.8102Z" fill="#5E8E3E"/>
<path d="M34.569 22.3303L32.296 30.3744C30.5291 29.6766 28.6156 29.368 26.702 29.4719C22.244 29.718 22.202 32.3445 22.244 33.0404C22.506 36.6539 32.559 37.4333 33.127 45.8446C33.564 52.4932 29.369 57.0073 23.338 57.3764C21.3047 57.5446 19.2564 57.3142 17.3229 56.6999C15.3894 56.0856 13.6129 55.1008 12.106 53.8079L13.636 47.6927C13.636 47.6927 17.657 50.524 20.847 50.3606C21.2329 50.3538 21.6131 50.2727 21.9642 50.1222C22.3152 49.9716 22.6296 49.755 22.8877 49.4856C23.1459 49.2162 23.3423 48.8999 23.4648 48.5563C23.5874 48.2126 23.6334 47.849 23.6 47.488C23.294 42.8095 15.078 43.0556 14.554 35.3815C14.117 28.8972 18.662 22.3284 28.67 21.7152C32.603 21.3865 34.57 22.3312 34.57 22.3312L34.569 22.3303Z" fill="white"/>
<path d="M91.907 39.4852C89.634 38.3358 88.454 37.3507 88.454 35.9966C88.454 34.2724 90.071 33.1653 92.654 33.1653C94.5803 33.2047 96.4802 33.5951 98.248 34.3147L100.348 28.3225C100.348 28.3225 98.425 26.927 92.787 26.927C84.921 26.927 79.458 31.1528 79.458 37.1047C79.458 40.4703 81.993 43.0555 85.402 44.8989C88.155 46.3761 89.117 47.4025 89.117 48.9623C89.117 50.5587 87.762 51.8349 85.184 51.8349C82.6074 51.7361 80.0857 51.1055 77.798 49.9878L75.562 55.9828C78.2598 57.4295 81.3285 58.1535 84.434 58.076C92.519 58.076 98.334 54.3413 98.334 47.611C98.375 43.9589 95.447 41.3737 91.907 39.4852ZM124.162 26.8453C122.316 26.8614 120.499 27.2727 118.848 28.0479C117.197 28.8232 115.756 29.9419 114.635 31.3191L114.504 31.2777L117.957 14.2872H108.957L100.216 57.5022H109.216L112.231 42.7278C113.411 37.146 116.47 33.6987 119.355 33.6987C121.365 33.6987 122.155 34.9711 122.155 36.8173C122.154 38.0713 122.023 39.3221 121.762 40.552L118.353 57.4599H127.353L130.893 39.9773C131.282 38.1657 131.501 36.3256 131.549 34.4781C131.545 29.7583 128.836 26.8453 124.162 26.8453ZM151.913 26.8453C141.075 26.8453 133.908 36.0379 133.908 46.2982C133.908 52.8641 138.235 58.1173 146.32 58.1173C156.94 58.1173 164.151 49.1708 164.151 38.6645C164.107 32.6319 160.305 26.8453 151.914 26.8453H151.913ZM147.455 51.6368C144.396 51.6368 143.085 49.1745 143.085 46.1376C143.085 41.2948 145.751 33.3737 150.646 33.3737C153.836 33.3737 154.885 35.959 154.885 38.4626C154.882 43.6716 152.216 51.633 147.453 51.633L147.455 51.6368ZM187.137 26.8453C181.062 26.8453 177.61 31.8524 177.61 31.8524H177.479L178.003 27.297H170.049C169.656 30.3753 168.956 35.0124 168.213 38.5011L161.962 69.4443H170.962L173.453 56.9275H173.628C175.255 57.7291 177.08 58.1115 178.916 58.0356C189.492 58.0356 196.397 47.858 196.397 37.5564C196.444 31.9341 193.734 26.8453 187.135 26.8453H187.137ZM178.528 51.757C177.172 51.7816 175.852 51.3442 174.813 50.5258L176.299 42.6048C177.348 37.3516 180.276 33.8226 183.423 33.8226C186.176 33.8226 187.007 36.2032 187.007 38.5011C187.004 43.9589 183.551 51.756 178.525 51.756L178.528 51.757ZM209.295 14.7388C208.609 14.7354 207.93 14.8611 207.297 15.1084C206.664 15.3557 206.09 15.7196 205.609 16.1787C205.129 16.6377 204.751 17.1826 204.498 17.7811C204.245 18.3796 204.123 19.0196 204.138 19.6633C204.09 20.2089 204.164 20.758 204.357 21.2748C204.549 21.7916 204.855 22.2647 205.255 22.6632C205.655 23.0617 206.139 23.3768 206.677 23.588C207.215 23.7992 207.794 23.9018 208.377 23.8891H208.508C209.207 23.9167 209.904 23.8084 210.555 23.5712C211.207 23.334 211.8 22.973 212.297 22.5107C212.793 22.0484 213.182 21.4948 213.44 20.8846C213.698 20.2745 213.819 19.6208 213.796 18.9647C213.83 18.4014 213.737 17.8377 213.523 17.3106C213.308 16.7835 212.978 16.3047 212.553 15.9058C212.129 15.5069 211.619 15.1967 211.057 14.9956C210.496 14.7945 209.896 14.707 209.296 14.7388H209.295ZM196.706 57.5013H205.706L211.824 27.5449H202.734L196.706 57.5013ZM234.727 27.4604H228.478L228.784 26.065C229.308 23.1923 231.144 20.6071 234.116 20.6071C235.094 20.608 236.066 20.7463 237 21.0175L238.748 14.4102C237.19 13.8433 235.522 13.5915 233.853 13.6711C230.645 13.5959 227.514 14.6001 225.025 16.5024C221.966 18.9647 220.525 22.4946 219.781 26.065L219.519 27.4604H215.319L214.008 33.8217H218.208L213.444 57.5013H222.444L227.208 33.8217H233.414L234.725 27.4604H234.727ZM256.404 27.5421C256.404 27.5421 250.766 40.8769 248.232 48.1444H248.101C247.926 45.8051 245.872 27.5421 245.872 27.5421H236.432L241.851 55.0841C241.981 55.5534 241.919 56.0515 241.676 56.4795C240.498 58.5169 238.82 60.2613 236.781 61.5684C235.208 62.5895 233.486 63.3913 231.668 63.9489L234.159 71.1309C237.462 70.3088 240.495 68.7293 242.987 66.5342C247.095 62.9225 250.897 57.3416 254.787 49.7492L265.8 27.5468H256.4L256.404 27.5421Z" fill="white"/>
</svg>
