<svg width="282" height="98" viewBox="0 0 282 98" fill="none" xmlns="http://www.w3.org/2000/svg">
<path d="M105.708 1.56262e-06H20.382C18.8686 -0.000901632 17.3806 0.389744 16.0628 1.13396C14.745 1.87817 13.6421 2.95064 12.8613 4.24715C12.0805 5.54366 11.6485 7.02009 11.607 8.53298C11.5656 10.0459 11.9163 11.5437 12.625 12.881L21.16 29.043H5.68801C4.70813 29.0433 3.74492 29.2966 2.8917 29.7785C2.03848 30.2603 1.32415 30.9544 0.817905 31.7933C0.311662 32.6323 0.0306655 33.5878 0.00212467 34.5673C-0.0264162 35.5467 0.198471 36.517 0.655002 37.384L28.107 89.344C28.5909 90.2579 29.3148 91.0227 30.2008 91.556C31.0868 92.0894 32.1014 92.3712 33.1355 92.3712C34.1696 92.3712 35.1842 92.0894 36.0702 91.556C36.9562 91.0227 37.6801 90.2579 38.164 89.344L45.62 75.309L54.974 93.017C55.719 94.4275 56.8344 95.6084 58.2001 96.4326C59.5659 97.2569 61.1304 97.6934 62.7256 97.6952C64.3208 97.6971 65.8863 97.2642 67.254 96.4431C68.6216 95.622 69.7397 94.4438 70.488 93.035L113.256 12.555C113.948 11.2527 114.291 9.79359 114.252 8.31949C114.213 6.8454 113.793 5.40649 113.033 4.14269C112.273 2.87888 111.199 1.83318 109.916 1.10726C108.632 0.38133 107.183 -0.000115822 105.708 1.56262e-06V1.56262e-06ZM67.38 34.386L48.939 69.096C48.6167 69.7036 48.135 70.212 47.5456 70.5666C46.9562 70.9211 46.2813 71.1084 45.5935 71.1084C44.9057 71.1084 44.2308 70.9211 43.6414 70.5666C43.052 70.212 42.5703 69.7036 42.248 69.096L23.985 34.532C23.6797 33.9558 23.5283 33.3104 23.5456 32.6585C23.5629 32.0066 23.7483 31.3703 24.0837 30.811C24.4192 30.2518 24.8934 29.7886 25.4603 29.4664C26.0273 29.1443 26.6679 28.9739 27.32 28.972H64.126C64.7617 28.9722 65.3866 29.1369 65.9399 29.45C66.4932 29.7632 66.9561 30.2142 67.2835 30.7591C67.6109 31.3041 67.7918 31.9244 67.8085 32.56C67.8253 33.1955 67.6773 33.8246 67.379 34.386H67.38Z" fill="white"/>
<path d="M196.463 37.336H187.125V69.324C187.125 69.6158 187.009 69.8955 186.803 70.1018C186.597 70.3081 186.317 70.424 186.025 70.424H178.825C178.533 70.424 178.253 70.3081 178.047 70.1018C177.841 69.8955 177.725 69.6158 177.725 69.324V37.336H168.345C168.204 37.3419 168.062 37.3193 167.93 37.2696C167.797 37.2199 167.676 37.144 167.574 37.0465C167.471 36.949 167.389 36.8319 167.333 36.7021C167.276 36.5723 167.246 36.4325 167.245 36.291V30.633C167.246 30.4915 167.276 30.3517 167.333 30.2219C167.389 30.0921 167.471 29.975 167.574 29.8775C167.676 29.78 167.797 29.7041 167.93 29.6544C168.062 29.6047 168.204 29.5821 168.345 29.588H196.461C196.606 29.5806 196.75 29.6018 196.886 29.6503C197.023 29.6988 197.148 29.7738 197.255 29.8709C197.363 29.9679 197.45 30.0852 197.512 30.216C197.573 30.3468 197.609 30.4885 197.616 30.633V36.293C197.601 36.5842 197.472 36.8575 197.255 37.0531C197.039 37.2487 196.754 37.3504 196.463 37.336Z" fill="white"/>
<path d="M226.425 70.1931C222.751 70.7162 219.043 70.9549 215.333 70.9071C208.245 70.9071 201.982 69.0931 201.982 59.0941V40.8421C201.982 30.8421 208.301 29.0841 215.388 29.0841C219.08 29.0354 222.77 29.2742 226.425 29.7981C227.194 29.9071 227.525 30.1841 227.525 30.8981V36.0151C227.525 36.3068 227.409 36.5866 227.203 36.7929C226.996 36.9992 226.717 37.1151 226.425 37.1151H214.84C212.257 37.1151 211.324 37.9931 211.324 40.8521V45.8521H225.987C226.279 45.8521 226.558 45.9679 226.765 46.1742C226.971 46.3805 227.087 46.6603 227.087 46.9521V52.1721C227.087 52.4638 226.971 52.7436 226.765 52.9499C226.558 53.1562 226.279 53.2721 225.987 53.2721H211.324V59.096C211.324 61.952 212.257 62.833 214.84 62.833H226.425C226.717 62.833 226.996 62.949 227.203 63.1553C227.409 63.3615 227.525 63.6413 227.525 63.9331V69.0431C227.525 69.7531 227.194 70.0841 226.425 70.1931Z" fill="white"/>
<path d="M267.88 70.412H259.145C258.852 70.4348 258.558 70.3683 258.303 70.2213C258.049 70.0742 257.844 69.8535 257.717 69.5881L250.143 57.563L243.28 69.3241C242.895 69.9831 242.511 70.4241 241.911 70.4241H233.78C233.678 70.438 233.574 70.43 233.475 70.4005C233.376 70.3711 233.285 70.3209 233.207 70.2534C233.129 70.1858 233.066 70.1024 233.023 70.0087C232.98 69.915 232.957 69.8132 232.956 69.71C232.967 69.5753 233.004 69.4441 233.066 69.3241L244.966 49.4761L232.941 30.629C232.88 30.5283 232.843 30.4152 232.832 30.2981C232.852 30.0962 232.948 29.9095 233.102 29.7767C233.255 29.6438 233.453 29.5749 233.656 29.5841H242.501C243.101 29.5841 243.546 30.134 243.87 30.629L250.899 41.729L257.699 30.629C257.82 30.3534 258.009 30.1129 258.249 29.9302C258.488 29.7474 258.77 29.6284 259.068 29.5841H267.199C267.402 29.5749 267.6 29.6438 267.753 29.7767C267.907 29.9095 268.003 30.0962 268.023 30.2981C268.012 30.4153 267.974 30.5284 267.913 30.629L255.947 49.5921L268.426 69.3241C268.523 69.4918 268.58 69.6803 268.59 69.874C268.597 70.193 268.323 70.412 267.88 70.412Z" fill="white"/>
<path d="M154.077 29.6969C153.881 29.6976 153.691 29.7661 153.54 29.8907C153.389 30.0154 153.285 30.1886 153.247 30.381L145.271 59.8999C145.162 60.4999 144.997 60.7239 144.502 60.7239C144.007 60.7239 143.843 60.4959 143.733 59.8999L135.748 30.3739C135.71 30.1815 135.606 30.0081 135.455 29.8834C135.303 29.7587 135.113 29.6904 134.917 29.6899H127.067C126.939 29.6901 126.813 29.7191 126.699 29.7747C126.584 29.8302 126.483 29.911 126.403 30.0109C126.324 30.1109 126.268 30.2274 126.24 30.3519C126.212 30.4764 126.212 30.6056 126.241 30.7299C126.241 30.7299 135.983 64.5839 136.09 64.9169C137.39 68.9509 140.546 70.8779 144.561 70.8779C146.429 70.9517 148.27 70.4093 149.8 69.3341C151.33 68.259 152.464 66.7108 153.027 64.9279C153.182 64.4719 162.707 30.7279 162.707 30.7279C162.735 30.6037 162.735 30.4747 162.707 30.3505C162.679 30.2263 162.623 30.11 162.544 30.0103C162.464 29.9106 162.364 29.83 162.249 29.7746C162.134 29.7191 162.008 29.6902 161.881 29.6899L154.077 29.6969Z" fill="white"/>
<path d="M105.708 1.56262e-06H20.382C18.8686 -0.000901632 17.3806 0.389744 16.0628 1.13396C14.745 1.87817 13.6421 2.95064 12.8613 4.24715C12.0805 5.54366 11.6485 7.02009 11.607 8.53298C11.5656 10.0459 11.9163 11.5437 12.625 12.881L21.16 29.043H5.68801C4.70813 29.0433 3.74492 29.2966 2.8917 29.7785C2.03848 30.2603 1.32415 30.9544 0.817905 31.7933C0.311662 32.6323 0.0306655 33.5878 0.00212467 34.5673C-0.0264162 35.5467 0.198471 36.517 0.655002 37.384L28.107 89.344C28.5909 90.2579 29.3148 91.0227 30.2008 91.556C31.0868 92.0894 32.1014 92.3712 33.1355 92.3712C34.1696 92.3712 35.1842 92.0894 36.0702 91.556C36.9562 91.0227 37.6801 90.2579 38.164 89.344L45.62 75.309L54.974 93.017C55.719 94.4275 56.8344 95.6084 58.2001 96.4326C59.5659 97.2569 61.1304 97.6934 62.7256 97.6952C64.3208 97.6971 65.8863 97.2642 67.254 96.4431C68.6216 95.622 69.7397 94.4438 70.488 93.035L113.256 12.555C113.948 11.2527 114.291 9.79359 114.252 8.31949C114.213 6.8454 113.793 5.40649 113.033 4.14269C112.273 2.87888 111.199 1.83318 109.916 1.10726C108.632 0.38133 107.183 -0.000115822 105.708 1.56262e-06V1.56262e-06ZM67.38 34.386L48.939 69.096C48.6167 69.7036 48.135 70.212 47.5456 70.5666C46.9562 70.9211 46.2813 71.1084 45.5935 71.1084C44.9057 71.1084 44.2308 70.9211 43.6414 70.5666C43.052 70.212 42.5703 69.7036 42.248 69.096L23.985 34.532C23.6797 33.9558 23.5283 33.3104 23.5456 32.6585C23.5629 32.0066 23.7483 31.3703 24.0837 30.811C24.4192 30.2518 24.8934 29.7886 25.4603 29.4664C26.0273 29.1443 26.6679 28.9739 27.32 28.972H64.126C64.7617 28.9722 65.3866 29.1369 65.9399 29.45C66.4932 29.7632 66.9561 30.2142 67.2835 30.7591C67.6109 31.3041 67.7918 31.9244 67.8085 32.56C67.8253 33.1955 67.6773 33.8246 67.379 34.386H67.38Z" fill="white"/>
<path d="M275.199 30.2889V37.1559C275.199 37.1859 275.193 37.2155 275.182 37.2432C275.17 37.2709 275.153 37.296 275.132 37.3172C275.111 37.3383 275.086 37.3551 275.058 37.3666C275.031 37.378 275.001 37.3839 274.971 37.3839H274.535C274.505 37.3839 274.475 37.378 274.448 37.3666C274.42 37.3551 274.395 37.3383 274.374 37.3172C274.353 37.296 274.336 37.2709 274.324 37.2432C274.313 37.2155 274.307 37.1859 274.307 37.1559V30.2889H273.073C273.043 30.2889 273.013 30.283 272.986 30.2716C272.958 30.2601 272.933 30.2433 272.912 30.2222C272.891 30.201 272.874 30.1758 272.862 30.1482C272.851 30.1205 272.845 30.0909 272.845 30.0609V29.7669C272.842 29.7363 272.846 29.7054 272.857 29.6765C272.867 29.6476 272.884 29.6214 272.906 29.5996C272.927 29.5779 272.954 29.5611 272.983 29.5507C273.011 29.5402 273.042 29.5362 273.073 29.5389H276.464C276.495 29.5362 276.526 29.5402 276.554 29.5507C276.583 29.5611 276.61 29.5779 276.631 29.5996C276.653 29.6214 276.67 29.6476 276.68 29.6765C276.691 29.7054 276.695 29.7363 276.692 29.7669V30.0609C276.692 30.0909 276.686 30.1205 276.675 30.1482C276.663 30.1758 276.646 30.201 276.625 30.2222C276.604 30.2433 276.579 30.2601 276.551 30.2716C276.524 30.283 276.494 30.2889 276.464 30.2889H275.199Z" fill="white"/>
<path d="M279.349 35.786C279.317 35.7892 279.285 35.7857 279.255 35.7757C279.224 35.7657 279.196 35.7494 279.173 35.7279C279.149 35.7064 279.13 35.6801 279.117 35.6509C279.104 35.6216 279.098 35.5899 279.098 35.5579L278.382 31.137H278.327L278.402 32.668V37.156C278.402 37.1859 278.396 37.2156 278.385 37.2432C278.373 37.2709 278.356 37.296 278.335 37.3172C278.314 37.3384 278.289 37.3551 278.261 37.3666C278.234 37.3781 278.204 37.384 278.174 37.384H277.793C277.733 37.384 277.674 37.3599 277.632 37.3172C277.589 37.2744 277.565 37.2164 277.565 37.156V29.756C277.562 29.7253 277.566 29.6945 277.577 29.6655C277.587 29.6366 277.604 29.6104 277.626 29.5886C277.647 29.5669 277.674 29.5502 277.703 29.5397C277.731 29.5292 277.762 29.5252 277.793 29.5279H278.587C278.74 29.5279 278.815 29.594 278.838 29.756L279.392 32.8859L279.663 34.743H279.729L280 32.8859L280.543 29.756C280.574 29.594 280.652 29.5279 280.803 29.5279H281.597C281.628 29.5252 281.658 29.5292 281.687 29.5397C281.716 29.5502 281.743 29.5669 281.764 29.5886C281.786 29.6104 281.803 29.6366 281.813 29.6655C281.824 29.6945 281.828 29.7253 281.825 29.756V37.156C281.825 37.1859 281.819 37.2156 281.808 37.2432C281.796 37.2709 281.779 37.296 281.758 37.3172C281.737 37.3384 281.712 37.3551 281.684 37.3666C281.657 37.3781 281.627 37.384 281.597 37.384H281.216C281.155 37.384 281.098 37.3599 281.055 37.3172C281.012 37.2744 280.988 37.2164 280.988 37.156V32.691L281.063 31.16H281.008L280.292 35.581C280.292 35.6129 280.286 35.6446 280.273 35.6739C280.26 35.7032 280.241 35.7294 280.217 35.7509C280.194 35.7724 280.166 35.7887 280.135 35.7987C280.105 35.8087 280.073 35.8122 280.041 35.809L279.349 35.786Z" fill="white"/>
</svg>
