<svg width="40" height="40" viewBox="0 0 40 40" fill="none" xmlns="http://www.w3.org/2000/svg">
<path d="M9.677 37.1449C12.7705 39.0099 16.3149 39.9937 19.927 39.9899C24.3257 39.9895 28.6005 38.5328 32.0842 35.8471C35.5679 33.1615 38.0644 29.3981 39.1841 25.1442C40.3038 20.8904 39.9836 16.3855 38.2736 12.3328C36.5635 8.28011 33.5598 4.90757 29.7314 2.74161C25.9029 0.575648 21.465 -0.261838 17.1104 0.359848C12.7559 0.981534 8.72963 3.02742 5.66019 6.17818C2.59074 9.32893 0.650801 13.4073 0.14315 17.7766C-0.3645 22.1459 0.588705 26.5604 2.854 30.3309L0 39.9999L9.677 37.1449ZM2.354 19.9839C2.35383 16.4895 3.39088 13.0737 5.33375 10.1692C7.27662 7.26475 10.0379 5.0023 13.2677 3.6685C16.4975 2.33471 20.0506 1.98959 23.4767 2.67689C26.9029 3.3642 30.0479 5.05298 32.5134 7.52928C34.9789 10.0056 36.6539 13.158 37.3262 16.5871C37.9985 20.0162 37.6379 23.5677 36.29 26.7917C34.9421 30.0157 32.6676 32.767 29.7546 34.6971C26.8417 36.6273 23.4214 37.6494 19.927 37.6339C16.5776 37.6421 13.2969 36.6834 10.479 34.8729L10.031 34.5809L3.469 36.519L5.407 29.9549L5.115 29.5069C3.30203 26.6624 2.34407 23.3571 2.355 19.9839H2.354Z" fill="white"/>
<path d="M9.40601 16.2749C10.071 19.8804 11.8144 23.1993 14.4059 25.7928C16.9974 28.3862 20.315 30.1322 23.92 30.7999C26.302 31.2589 29.805 31.3229 31.52 29.6149L32.471 28.6639C32.9496 28.1851 33.2185 27.5359 33.2185 26.8589C33.2185 26.1819 32.9496 25.5326 32.471 25.0539L28.658 21.2409C28.1793 20.7622 27.53 20.4934 26.853 20.4934C26.176 20.4934 25.5268 20.7622 25.048 21.2409L24.097 22.1919C23.7883 22.4743 23.3856 22.6319 22.9671 22.6339C22.5487 22.6359 22.1445 22.4823 21.833 22.2029L18.033 18.2409L18.012 18.2199C17.8724 18.0814 17.7615 17.9167 17.6858 17.7352C17.6102 17.5537 17.5712 17.359 17.5712 17.1624C17.5712 16.9657 17.6102 16.771 17.6858 16.5895C17.7615 16.408 17.8724 16.2433 18.012 16.1049L18.963 15.1539C19.4402 14.6743 19.708 14.0254 19.708 13.3489C19.708 12.6724 19.4402 12.0234 18.963 11.5439L15.15 7.73087C14.6705 7.2537 14.0215 6.98584 13.345 6.98584C12.6685 6.98584 12.0196 7.2537 11.54 7.73087L10.589 8.68188C9.22201 10.0379 8.76301 12.9539 9.40401 16.2749H9.40601ZM12.289 10.3689C13.289 9.38587 13.24 9.37589 13.346 9.37589C13.3659 9.37484 13.3858 9.37813 13.4043 9.38556C13.4227 9.39299 13.4394 9.40437 13.453 9.41888C17.469 13.4559 17.308 13.2189 17.308 13.3379C17.309 13.3578 17.3057 13.3776 17.2983 13.3961C17.2909 13.4146 17.2795 13.4312 17.265 13.4449L16.314 14.3959C15.5842 15.1243 15.1731 16.1125 15.171 17.1436C15.169 18.1747 15.5761 19.1646 16.303 19.8959L20.116 23.8579L20.137 23.8789C20.8993 24.6112 21.9154 25.0202 22.9725 25.0202C24.0296 25.0202 25.0457 24.6112 25.808 23.8789L26.759 22.9279C26.7886 22.9019 26.8266 22.8875 26.866 22.8875C26.9054 22.8875 26.9434 22.9019 26.973 22.9279C30.989 26.9649 30.828 26.7279 30.828 26.8479C30.8291 26.8678 30.8257 26.8876 30.8183 26.9061C30.8109 26.9246 30.7995 26.9412 30.785 26.9549L29.834 27.9059C29.183 28.5569 27.1 28.9529 24.387 28.4289C21.2607 27.8342 18.3827 26.3207 16.121 24.0819C13.8924 21.8127 12.3806 18.938 11.774 15.8159C11.24 13.1029 11.635 11.0159 12.287 10.3689H12.289Z" fill="white"/>
</svg>
